<svg xmlns="http://www.w3.org/2000/svg" viewBox="0 0 347.33 355.75"><defs><style>.cls-1,.cls-4,.cls-6{fill:#fb0;}.cls-2{opacity:0.7;}.cls-3,.cls-7,.cls-9{fill:#fff;}.cls-10,.cls-4,.cls-5,.cls-6,.cls-8,.cls-9{stroke:#263238;}.cls-4,.cls-5{stroke-linecap:round;stroke-linejoin:round;}.cls-5,.cls-8{fill:#263238;}.cls-10,.cls-6,.cls-8,.cls-9{stroke-miterlimit:10;}.cls-7{opacity:0.5;}.cls-10{fill:none;}</style></defs><title>backups</title><g id="Background_Simple" data-name="Background Simple"><path class="cls-1" d="M158.08,148.41h31.61v-2.56c-10.1,1-20,.82-31.87,1.83A2.54,2.54,0,0,1,158.08,148.41Z" transform="translate(-76.41 -70.22)"/><path class="cls-1" d="M421,213c-4.84-27.18-18.16-48.54-35.28-68.28q-2.94-3.39-5.81-6.44H329a2.65,2.65,0,1,1-2.74-3.57V123H296.74V138.3H261.9V166h-1V137.3h34.84V122h55.15a2.66,2.66,0,1,1,0,1H327.28v11.79a2.66,2.66,0,0,1,1.91,2.48h49.73c-37.63-39.52-68.16-39.19-92.21-33.18-23.49,5.88-34.62,19.21-60.19,31.25v5h21.63v1H225.52v-5.51c-1.85.85-3.76,1.69-5.76,2.53a99.75,99.75,0,0,1-29.07,7.38v3.66H158.08a2.66,2.66,0,0,1-5.27-.5,2.38,2.38,0,0,1,.13-.76,182.67,182.67,0,0,0-18.32,3c-37.11,8-58.21,58.14-58.21,86.81s2.23,70.11,34.2,91.59S218.31,310.39,248.14,312s64,35,107,35C415.26,347,430.92,268.89,421,213Zm-39.72,31.15h16V217.51a2.66,2.66,0,1,1,1,0v27.66h-16V263h-1Zm-57.75-55.42H357a2.66,2.66,0,1,1,0,1h-33.5Zm-179.15-2.16A2.65,2.65,0,0,1,147,189h49.47v1H146.89a2.66,2.66,0,1,1-2.55-3.37Zm50.17,113.35H177.66v7a2.66,2.66,0,1,1-3.11,3.11H142.31V293.26H128.56a2.66,2.66,0,0,1-2,1.87v25.61h-16a2.66,2.66,0,1,1,.17-1h14.81V295.13a2.66,2.66,0,0,1-2-1.87H102.9a2.67,2.67,0,1,1,.09-1h20.39a2.65,2.65,0,0,1,5.27,0h14.66v16.79h31.24a2.66,2.66,0,0,1,2.11-2.11v-8h17.85Zm-64.06-35.69a2.66,2.66,0,0,1-5.22,0h-8.82a2.66,2.66,0,1,1,0-1h8.82a2.66,2.66,0,0,1,2.58-2.16v-7.53h-23a2.67,2.67,0,1,1-.13-1h24.14v8.72a2.7,2.7,0,0,1,1.64,2H401.27a2.66,2.66,0,1,1,0,1ZM402,311.34a2.65,2.65,0,1,1,.05,1H363.68V302.18a2.62,2.62,0,0,1-1.9-2.05H319.15v-1h42.63a2.66,2.66,0,0,1,5.22,0h35a2.66,2.66,0,1,1,0,1H367a2.66,2.66,0,0,1-2.32,2.13v9.08Z" transform="translate(-76.41 -70.22)"/><g class="cls-2"><path class="cls-3" d="M158.08,148.41h31.61v-2.56c-10.1,1-20,.82-31.87,1.83A2.54,2.54,0,0,1,158.08,148.41Z" transform="translate(-76.41 -70.22)"/><path class="cls-3" d="M421,213c-4.84-27.18-18.16-48.54-35.28-68.28q-2.94-3.39-5.81-6.44H329a2.65,2.65,0,1,1-2.74-3.57V123H296.74V138.3H261.9V166h-1V137.3h34.84V122h55.15a2.66,2.66,0,1,1,0,1H327.28v11.79a2.66,2.66,0,0,1,1.91,2.48h49.73c-37.63-39.52-68.16-39.19-92.21-33.18-23.49,5.88-34.62,19.21-60.19,31.25v5h21.63v1H225.52v-5.51c-1.85.85-3.76,1.69-5.76,2.53a99.75,99.75,0,0,1-29.07,7.38v3.66H158.08a2.66,2.66,0,0,1-5.27-.5,2.38,2.38,0,0,1,.13-.76,182.67,182.67,0,0,0-18.32,3c-37.11,8-58.21,58.14-58.21,86.81s2.23,70.11,34.2,91.59S218.31,310.39,248.14,312s64,35,107,35C415.26,347,430.92,268.89,421,213Zm-39.72,31.15h16V217.51a2.66,2.66,0,1,1,1,0v27.66h-16V263h-1Zm-57.75-55.42H357a2.66,2.66,0,1,1,0,1h-33.5Zm-179.15-2.16A2.65,2.65,0,0,1,147,189h49.47v1H146.89a2.66,2.66,0,1,1-2.55-3.37Zm50.17,113.35H177.66v7a2.66,2.66,0,1,1-3.11,3.11H142.31V293.26H128.56a2.66,2.66,0,0,1-2,1.87v25.61h-16a2.66,2.66,0,1,1,.17-1h14.81V295.13a2.66,2.66,0,0,1-2-1.87H102.9a2.67,2.67,0,1,1,.09-1h20.39a2.65,2.65,0,0,1,5.27,0h14.66v16.79h31.24a2.66,2.66,0,0,1,2.11-2.11v-8h17.85Zm-64.06-35.69a2.66,2.66,0,0,1-5.22,0h-8.82a2.66,2.66,0,1,1,0-1h8.82a2.66,2.66,0,0,1,2.58-2.16v-7.53h-23a2.67,2.67,0,1,1-.13-1h24.14v8.72a2.7,2.7,0,0,1,1.64,2H401.27a2.66,2.66,0,1,1,0,1ZM402,311.34a2.65,2.65,0,1,1,.05,1H363.68V302.18a2.62,2.62,0,0,1-1.9-2.05H319.15v-1h42.63a2.66,2.66,0,0,1,5.22,0h35a2.66,2.66,0,1,1,0,1H367a2.66,2.66,0,0,1-2.32,2.13v9.08Z" transform="translate(-76.41 -70.22)"/></g></g><g id="Locks"><path class="cls-4" d="M272.78,122.77H247.43a2.11,2.11,0,0,1-2.11-2.1V108.73a14.78,14.78,0,1,1,29.56,0v11.94A2.1,2.1,0,0,1,272.78,122.77Zm-23.24-4.21h21.13v-9.83a10.57,10.57,0,1,0-21.13,0Z" transform="translate(-76.41 -70.22)"/><rect class="cls-5" x="167.35" y="46.8" width="32.27" height="27.27"/><path class="cls-6" d="M263.25,128.34a3.52,3.52,0,1,0-5.18,3.09l-.59,6.2H262l-.59-6.2A3.5,3.5,0,0,0,263.25,128.34Z" transform="translate(-76.41 -70.22)"/><path class="cls-4" d="M390.77,257.38H365.42a2.1,2.1,0,0,1-2.1-2.11V243.34a14.78,14.78,0,1,1,29.55,0v11.93A2.1,2.1,0,0,1,390.77,257.38Zm-23.24-4.21h21.13v-9.83a10.57,10.57,0,1,0-21.13,0Z" transform="translate(-76.41 -70.22)"/><rect class="cls-5" x="285.34" y="181.4" width="32.27" height="27.27"/><path class="cls-6" d="M381.24,263a3.52,3.52,0,1,0-5.18,3.09l-.59,6.19H380L379.4,266A3.51,3.51,0,0,0,381.24,263Z" transform="translate(-76.41 -70.22)"/><path class="cls-4" d="M153.37,257.38H128a2.1,2.1,0,0,1-2.11-2.11V243.34a14.78,14.78,0,0,1,29.56,0v11.93A2.1,2.1,0,0,1,153.37,257.38Zm-23.24-4.21h21.14v-9.83a10.57,10.57,0,0,0-21.14,0Z" transform="translate(-76.41 -70.22)"/><rect class="cls-5" x="47.95" y="181.4" width="32.27" height="27.27"/><path class="cls-6" d="M143.85,263a3.52,3.52,0,1,0-5.19,3.09l-.59,6.19h4.52L142,266A3.5,3.5,0,0,0,143.85,263Z" transform="translate(-76.41 -70.22)"/><path class="cls-1" d="M410.26,238c-4,4.18-6.38,10.58-6.34,17.09s2.55,13,6.7,17.14a1.69,1.69,0,0,0,2.39,0,1.65,1.65,0,0,0,.49-1.2,1.72,1.72,0,0,0-.49-1.19c-3.54-3.51-5.67-9-5.71-14.76s2-11.17,5.4-14.73a1.69,1.69,0,1,0-2.44-2.34Z" transform="translate(-76.41 -70.22)"/><path class="cls-1" d="M415.19,242.55a19.9,19.9,0,0,0,.23,24.95,1.7,1.7,0,0,0,2.39.18,1.68,1.68,0,0,0,.58-1.3,1.64,1.64,0,0,0-.4-1.08,16.52,16.52,0,0,1-.19-20.6,1.69,1.69,0,1,0-2.61-2.15Z" transform="translate(-76.41 -70.22)"/><path class="cls-1" d="M420.06,247.16a12.31,12.31,0,0,0,.31,15.83,1.69,1.69,0,0,0,3-1.1,1.62,1.62,0,0,0-.4-1.07,9,9,0,0,1-.23-11.58,1.69,1.69,0,0,0-2.66-2.08Z" transform="translate(-76.41 -70.22)"/><path class="cls-1" d="M109.69,238c4,4.18,6.39,10.58,6.34,17.09s-2.55,13-6.7,17.14a1.69,1.69,0,1,1-2.38-2.4c3.53-3.51,5.66-9,5.7-14.76s-2-11.17-5.4-14.73a1.7,1.7,0,0,1,0-2.39A1.68,1.68,0,0,1,109.69,238Z" transform="translate(-76.41 -70.22)"/><path class="cls-1" d="M104.77,242.55a19.89,19.89,0,0,1-.24,24.95,1.69,1.69,0,0,1-2.38.18,1.72,1.72,0,0,1-.59-1.3,1.66,1.66,0,0,1,.41-1.08,16.52,16.52,0,0,0,.19-20.6,1.69,1.69,0,0,1,2.61-2.15Z" transform="translate(-76.41 -70.22)"/><path class="cls-1" d="M99.9,247.16A12.33,12.33,0,0,1,99.58,263a1.68,1.68,0,0,1-2.38.21,1.7,1.7,0,0,1-.6-1.31,1.67,1.67,0,0,1,.4-1.07,8.94,8.94,0,0,0,.24-11.58,1.68,1.68,0,0,1,.29-2.37A1.7,1.7,0,0,1,99.9,247.16Z" transform="translate(-76.41 -70.22)"/><path class="cls-1" d="M277.08,83.31c-4.19,4-10.58,6.38-17.1,6.34S247,87.1,242.85,83a1.69,1.69,0,0,1,0-2.39,1.72,1.72,0,0,1,1.21-.49,1.64,1.64,0,0,1,1.18.5c3.51,3.53,9,5.66,14.76,5.7a21.42,21.42,0,0,0,14.74-5.4,1.69,1.69,0,0,1,2.34,2.44Z" transform="translate(-76.41 -70.22)"/><path class="cls-1" d="M272.5,78.38a19.87,19.87,0,0,1-24.95-.23,1.69,1.69,0,1,1,2.2-2.56,16.52,16.52,0,0,0,20.6.19,1.69,1.69,0,0,1,2.15,2.6Z" transform="translate(-76.41 -70.22)"/><path class="cls-1" d="M267.88,73.52a12.33,12.33,0,0,1-15.83-.32,1.69,1.69,0,0,1,1.1-3,1.64,1.64,0,0,1,1.08.4,8.94,8.94,0,0,0,11.57.23,1.69,1.69,0,0,1,2.08,2.67Z" transform="translate(-76.41 -70.22)"/></g><g id="Device"><ellipse class="cls-1" cx="180.97" cy="305.35" rx="161.21" ry="50.4"/><ellipse class="cls-7" cx="180.97" cy="305.35" rx="161.21" ry="50.4"/><ellipse class="cls-8" cx="182.59" cy="300" rx="146.88" ry="44.61"/><ellipse class="cls-9" cx="182.59" cy="289.1" rx="130.96" ry="37.83"/><ellipse class="cls-9" cx="182.59" cy="287.85" rx="119.44" ry="33.26"/><ellipse class="cls-9" cx="182.59" cy="293.25" rx="117.86" ry="27.85"/><path class="cls-9" d="M146.54,386.47a4.08,4.08,0,1,1-4-3.54A3.81,3.81,0,0,1,146.54,386.47Z" transform="translate(-76.41 -70.22)"/><ellipse class="cls-9" cx="124.28" cy="331.7" rx="4.04" ry="3.54"/><path class="cls-9" d="M274,404.45a4.08,4.08,0,1,1-4-3.54A3.81,3.81,0,0,1,274,404.45Z" transform="translate(-76.41 -70.22)"/><ellipse class="cls-9" cx="262.24" cy="328.16" rx="4.04" ry="3.54"/><ellipse class="cls-9" cx="306.71" cy="311.99" rx="4.04" ry="3.54"/><path class="cls-9" d="M401.22,362.73c-.67,1.28-3,1.38-5.22.23s-3.47-3.13-2.8-4.41,3-1.38,5.22-.23S401.89,361.45,401.22,362.73Z" transform="translate(-76.41 -70.22)"/><path class="cls-9" d="M116.78,362.73c.67,1.28,3,1.38,5.22.23s3.47-3.13,2.8-4.41-3-1.38-5.22-.23S116.11,361.45,116.78,362.73Z" transform="translate(-76.41 -70.22)"/><line class="cls-10" x1="62.97" y1="280.6" x2="62.97" y2="246.47"/><line class="cls-10" x1="85" y1="305.48" x2="85" y2="288.42"/><line class="cls-10" x1="85" y1="284.15" x2="85" y2="250.03"/><line class="cls-10" x1="281.92" y1="306.9" x2="281.92" y2="272.78"/><line class="cls-10" x1="261.19" y1="312.82" x2="261.19" y2="237.78"/><line class="cls-10" x1="175.28" y1="320.41" x2="175.28" y2="304.77"/><line class="cls-10" x1="109.69" y1="314.74" x2="109.69" y2="276.48"/><line class="cls-10" x1="226.28" y1="319.4" x2="226.28" y2="311.67"/><line class="cls-10" x1="226.28" y1="309.26" x2="226.28" y2="293.48"/><line class="cls-10" x1="175.28" y1="297.66" x2="175.28" y2="289.13"/><line class="cls-10" x1="281.92" y1="264.96" x2="281.92" y2="249.32"/><line class="cls-10" x1="301.82" y1="291.97" x2="301.82" y2="215.91"/><line class="cls-10" x1="62.97" y1="241.5" x2="62.97" y2="223.04"/><g id="_Group_" data-name="&lt;Group&gt;"><rect id="_Rectangle_" data-name="&lt;Rectangle&gt;" class="cls-8" x="243.5" y="185.42" width="4.75" height="12.56"/><rect id="_Rectangle_2" data-name="&lt;Rectangle&gt;" class="cls-8" x="120.03" y="92.16" width="125.03" height="27.08"/><rect id="_Rectangle_3" data-name="&lt;Rectangle&gt;" class="cls-8" x="243.5" y="259.52" width="4.75" height="12.56"/><rect id="_Rectangle_4" data-name="&lt;Rectangle&gt;" class="cls-8" x="116.42" y="259.52" width="4.75" height="12.56"/><rect id="_Rectangle_5" data-name="&lt;Rectangle&gt;" class="cls-8" x="115.73" y="112.75" width="4.75" height="12.56"/><rect id="_Rectangle_6" data-name="&lt;Rectangle&gt;" class="cls-8" x="115.73" y="222.94" width="4.75" height="12.56"/><rect id="_Rectangle_7" data-name="&lt;Rectangle&gt;" class="cls-8" x="115.73" y="185.34" width="4.75" height="12.56"/><rect id="_Rectangle_8" data-name="&lt;Rectangle&gt;" class="cls-8" x="244.71" y="112.75" width="4.75" height="12.56"/><rect id="_Rectangle_9" data-name="&lt;Rectangle&gt;" class="cls-8" x="244.71" y="222.94" width="4.75" height="12.56"/><rect id="_Rectangle_10" data-name="&lt;Rectangle&gt;" class="cls-8" x="115.73" y="148.98" width="4.75" height="12.56"/><rect id="_Rectangle_11" data-name="&lt;Rectangle&gt;" class="cls-8" x="244.71" y="148.98" width="4.75" height="12.56"/><rect id="_Rectangle_12" data-name="&lt;Rectangle&gt;" class="cls-9" x="120.03" y="105.8" width="125.03" height="27.08"/><rect class="cls-6" x="146.48" y="112.71" width="7.14" height="13.26"/><rect class="cls-6" x="135.53" y="112.71" width="7.14" height="13.26"/><rect class="cls-6" x="126.04" y="112.71" width="5.69" height="13.26"/><rect class="cls-6" x="157.43" y="112.71" width="7.14" height="13.26"/><rect class="cls-6" x="168.37" y="112.71" width="43.83" height="13.26"/><circle id="_Path_" data-name="&lt;Path&gt;" class="cls-9" cx="223.88" cy="118.76" r="3.34"/><path id="_Path_2" data-name="&lt;Path&gt;" class="cls-6" d="M316.72,189a3.35,3.35,0,1,0-3.34,3.35A3.35,3.35,0,0,0,316.72,189Z" transform="translate(-76.41 -70.22)"/><circle id="_Path_3" data-name="&lt;Path&gt;" class="cls-9" cx="204.39" cy="118.76" r="3.34"/><rect id="_Rectangle_13" data-name="&lt;Rectangle&gt;" class="cls-8" x="124.77" y="132.88" width="115.54" height="9.27"/><rect id="_Rectangle_14" data-name="&lt;Rectangle&gt;" class="cls-9" x="120.03" y="142.16" width="125.03" height="27.08"/><rect class="cls-6" x="135.53" y="149.06" width="7.14" height="13.26"/><rect class="cls-6" x="157.43" y="149.06" width="7.14" height="13.26"/><rect class="cls-6" x="146.48" y="149.06" width="7.14" height="13.26"/><rect class="cls-6" x="126.04" y="149.06" width="5.69" height="13.26"/><rect class="cls-6" x="168.37" y="149.06" width="43.83" height="13.26"/><circle id="_Path_4" data-name="&lt;Path&gt;" class="cls-6" cx="223.88" cy="155.12" r="3.34"/><path id="_Path_5" data-name="&lt;Path&gt;" class="cls-9" d="M316.72,225.34a3.35,3.35,0,1,0-3.34,3.34A3.34,3.34,0,0,0,316.72,225.34Z" transform="translate(-76.41 -70.22)"/><circle id="_Path_6" data-name="&lt;Path&gt;" class="cls-9" cx="204.39" cy="155.12" r="3.34"/><rect id="_Rectangle_15" data-name="&lt;Rectangle&gt;" class="cls-8" x="124.77" y="169.24" width="115.54" height="9.27"/><rect id="_Rectangle_16" data-name="&lt;Rectangle&gt;" class="cls-9" x="120.03" y="178.51" width="125.03" height="27.08"/><rect class="cls-6" x="146.48" y="185.42" width="7.14" height="13.26"/><rect class="cls-6" x="157.43" y="185.42" width="7.14" height="13.26"/><rect class="cls-6" x="135.53" y="185.42" width="7.14" height="13.26"/><rect class="cls-6" x="168.37" y="185.42" width="43.83" height="13.26"/><rect class="cls-6" x="126.04" y="185.42" width="5.69" height="13.26"/><circle id="_Path_7" data-name="&lt;Path&gt;" class="cls-9" cx="223.88" cy="191.47" r="3.34"/><path id="_Path_8" data-name="&lt;Path&gt;" class="cls-6" d="M316.72,261.69a3.35,3.35,0,1,0-3.34,3.35A3.35,3.35,0,0,0,316.72,261.69Z" transform="translate(-76.41 -70.22)"/><circle id="_Path_9" data-name="&lt;Path&gt;" class="cls-9" cx="204.39" cy="191.47" r="3.34"/><rect id="_Rectangle_17" data-name="&lt;Rectangle&gt;" class="cls-8" x="124.77" y="205.59" width="115.54" height="9.27"/><rect id="_Rectangle_18" data-name="&lt;Rectangle&gt;" class="cls-9" x="120.03" y="214.87" width="125.03" height="27.08"/><rect class="cls-6" x="157.43" y="221.77" width="7.14" height="13.26"/><rect class="cls-6" x="135.53" y="221.77" width="7.14" height="13.26"/><rect class="cls-6" x="146.48" y="221.77" width="7.14" height="13.26"/><rect class="cls-6" x="126.04" y="221.77" width="5.69" height="13.26"/><rect class="cls-6" x="168.37" y="221.77" width="43.83" height="13.26"/><circle id="_Path_10" data-name="&lt;Path&gt;" class="cls-6" cx="223.88" cy="227.83" r="3.34"/><path id="_Path_11" data-name="&lt;Path&gt;" class="cls-9" d="M316.72,298.05a3.35,3.35,0,1,0-3.34,3.34A3.34,3.34,0,0,0,316.72,298.05Z" transform="translate(-76.41 -70.22)"/><circle id="_Path_12" data-name="&lt;Path&gt;" class="cls-9" cx="204.39" cy="227.83" r="3.34"/><rect id="_Rectangle_19" data-name="&lt;Rectangle&gt;" class="cls-8" x="124.77" y="241.95" width="115.54" height="9.27"/><rect id="_Rectangle_20" data-name="&lt;Rectangle&gt;" class="cls-9" x="120.03" y="251.22" width="125.03" height="27.08"/><rect class="cls-6" x="135.53" y="258.13" width="7.14" height="13.26"/><rect class="cls-6" x="146.48" y="258.13" width="7.14" height="13.26"/><rect class="cls-6" x="157.43" y="258.13" width="7.14" height="13.26"/><rect class="cls-6" x="126.04" y="258.13" width="5.69" height="13.26"/><rect class="cls-6" x="168.37" y="258.13" width="43.83" height="13.26"/><circle id="_Path_13" data-name="&lt;Path&gt;" class="cls-9" cx="223.88" cy="264.18" r="3.34"/><path id="_Path_14" data-name="&lt;Path&gt;" class="cls-6" d="M316.72,334.4a3.35,3.35,0,1,0-3.34,3.35A3.35,3.35,0,0,0,316.72,334.4Z" transform="translate(-76.41 -70.22)"/><circle id="_Path_15" data-name="&lt;Path&gt;" class="cls-9" cx="204.39" cy="264.18" r="3.34"/></g></g></svg>