<svg xmlns="http://www.w3.org/2000/svg" viewBox="0 0 359.06 331.87"><defs><style>.cls-1,.cls-4,.cls-5{fill:#fb0;}.cls-10,.cls-2,.cls-3,.cls-6,.cls-8{fill:#fff;}.cls-2{opacity:0.8;}.cls-3{opacity:0.5;}.cls-10,.cls-11,.cls-13,.cls-4,.cls-5,.cls-8,.cls-9{stroke:#263238;}.cls-10,.cls-11,.cls-12,.cls-13,.cls-4,.cls-5,.cls-8,.cls-9{stroke-linecap:round;}.cls-4,.cls-5,.cls-8{stroke-miterlimit:10;}.cls-5{opacity:0.7;}.cls-11,.cls-7{fill:#263238;}.cls-12,.cls-13,.cls-9{fill:none;}.cls-10,.cls-11,.cls-12,.cls-13,.cls-9{stroke-linejoin:round;}.cls-9{stroke-width:2px;}.cls-12{stroke:#fff;stroke-width:0.5px;}</style></defs><title>calendar</title><g id="Background_Simple" data-name="Background Simple"><path class="cls-1" d="M334.58,119.45s-52.13-29.16-111.94-7-97.93,79.8-130,125.71-27.19,99,10.43,129.24,71.72.9,130.33,9.16,72.88,19.26,126.89-5.45,76-101,47.66-165S334.58,119.45,334.58,119.45Z" transform="translate(-71.35 -103.78)"/><path class="cls-2" d="M334.58,119.45s-52.13-29.16-111.94-7-97.93,79.8-130,125.71-27.19,99,10.43,129.24,71.72.9,130.33,9.16,72.88,19.26,126.89-5.45,76-101,47.66-165S334.58,119.45,334.58,119.45Z" transform="translate(-71.35 -103.78)"/></g><g id="Ground"><path class="cls-1" d="M423.67,428.55c0,3.92-77.91,7.1-174,7.1s-174-3.18-174-7.1,77.9-7.11,174-7.11S423.67,424.62,423.67,428.55Z" transform="translate(-71.35 -103.78)"/><path class="cls-3" d="M423.67,428.55c0,3.92-77.91,7.1-174,7.1s-174-3.18-174-7.1,77.9-7.11,174-7.11S423.67,424.62,423.67,428.55Z" transform="translate(-71.35 -103.78)"/></g><g id="Plants"><path class="cls-1" d="M399.91,356.9a21,21,0,0,0-4.74,9.84l-9.5,5.33V346.88l.18.26L401,336.05c1.91.3,9.26,1.14,16-2.47C424.72,329.39,430.4,315,430.4,315s-18.53-2.09-24.81,5.68a21.53,21.53,0,0,0-5.15,14.5L385.67,346v-18.6a20.57,20.57,0,0,0,11.25-13.58c2.69-10.47-11.66-31.1-11.66-31.1s-14.95,21.23-12,32c2.53,9.12,9.34,12,11.37,12.68v40.35L374,358.88c.24-2.12.43-8.77-5.49-15.44-7.18-8.07-26.31-7.47-26.31-7.47s8.07,16.14,15,21.53c6,4.7,14.3,2.78,16.29,2.22l11.22,9.35v12.26H368l6.8,42.5h20.4l6.8-42.5H385.67v-8.11l10.44-5.85c2.54.7,9.64,2.16,16.36-1.2C420.84,362,427.71,353,427.71,353S407.68,347.93,399.91,356.9Z" transform="translate(-71.35 -103.78)"/><path class="cls-3" d="M399.91,356.9a21,21,0,0,0-4.74,9.84l-9.5,5.33V346.88l.18.26L401,336.05c1.91.3,9.26,1.14,16-2.47C424.72,329.39,430.4,315,430.4,315s-18.53-2.09-24.81,5.68a21.53,21.53,0,0,0-5.15,14.5L385.67,346v-18.6a20.57,20.57,0,0,0,11.25-13.58c2.69-10.47-11.66-31.1-11.66-31.1s-14.95,21.23-12,32c2.53,9.12,9.34,12,11.37,12.68v40.35L374,358.88c.24-2.12.43-8.77-5.49-15.44-7.18-8.07-26.31-7.47-26.31-7.47s8.07,16.14,15,21.53c6,4.7,14.3,2.78,16.29,2.22l11.22,9.35v12.26H368l6.8,42.5h20.4l6.8-42.5H385.67v-8.11l10.44-5.85c2.54.7,9.64,2.16,16.36-1.2C420.84,362,427.71,353,427.71,353S407.68,347.93,399.91,356.9Z" transform="translate(-71.35 -103.78)"/></g><g id="Calendar"><rect class="cls-4" x="46.65" y="12.23" width="252.15" height="167.53" rx="11.66" ry="11.66"/><rect class="cls-5" x="46.65" y="12.23" width="252.15" height="167.53" rx="11.66" ry="11.66"/><rect class="cls-6" x="123.49" y="105.88" width="29.5" height="16.55"/><rect class="cls-6" x="123.49" y="125.43" width="29.5" height="16.55"/><rect class="cls-6" x="156" y="105.88" width="29.5" height="16.55"/><rect class="cls-6" x="188.5" y="86.33" width="29.5" height="16.55"/><rect class="cls-6" x="188.5" y="66.79" width="29.5" height="16.55"/><rect class="cls-7" x="188.5" y="30.66" width="29.5" height="13.58"/><rect class="cls-7" x="156" y="30.66" width="29.5" height="13.58"/><rect class="cls-6" x="156" y="125.43" width="29.5" height="16.55"/><rect class="cls-6" x="156" y="47.24" width="29.5" height="16.55"/><rect class="cls-6" x="156" y="66.79" width="29.5" height="16.55"/><rect class="cls-6" x="156" y="86.33" width="29.5" height="16.55"/><rect class="cls-6" x="188.5" y="125.43" width="29.5" height="16.55"/><rect class="cls-6" x="56.53" y="47.24" width="31.45" height="16.55"/><rect class="cls-6" x="56.53" y="86.33" width="31.45" height="16.55"/><rect class="cls-6" x="56.53" y="105.88" width="31.45" height="16.55"/><rect class="cls-6" x="56.53" y="66.79" width="31.45" height="16.55"/><rect class="cls-7" x="253.51" y="30.66" width="31.45" height="13.58"/><rect class="cls-6" x="56.53" y="125.43" width="31.45" height="16.55"/><rect class="cls-6" x="221.01" y="47.24" width="29.5" height="16.55"/><rect class="cls-6" x="188.5" y="105.88" width="29.5" height="16.55"/><rect class="cls-6" x="221.01" y="105.88" width="29.5" height="16.55"/><rect class="cls-6" x="221.01" y="66.79" width="29.5" height="16.55"/><rect class="cls-6" x="221.01" y="86.33" width="29.5" height="16.55"/><rect class="cls-6" x="221.01" y="125.43" width="29.5" height="16.55"/><rect class="cls-6" x="188.5" y="47.24" width="29.5" height="16.55"/><rect class="cls-6" x="253.51" y="125.43" width="31.45" height="16.55"/><rect class="cls-7" x="221.01" y="30.66" width="29.5" height="13.58"/><rect class="cls-6" x="253.51" y="105.88" width="31.45" height="16.55"/><rect class="cls-6" x="221.01" y="144.98" width="29.5" height="17.49"/><rect class="cls-6" x="253.51" y="86.33" width="31.45" height="16.55"/><rect class="cls-6" x="156" y="144.98" width="29.5" height="17.49"/><rect class="cls-6" x="188.5" y="144.98" width="29.5" height="17.49"/><rect class="cls-6" x="253.51" y="66.79" width="31.45" height="16.55"/><rect class="cls-6" x="253.51" y="144.98" width="31.45" height="17.49"/><rect class="cls-6" x="56.53" y="144.98" width="31.45" height="17.49"/><rect class="cls-6" x="253.51" y="47.24" width="31.45" height="16.55"/><rect class="cls-7" x="56.53" y="30.66" width="31.45" height="13.58"/><rect class="cls-7" x="90.99" y="30.66" width="29.5" height="13.58"/><rect class="cls-6" x="90.99" y="105.88" width="29.5" height="16.55"/><rect class="cls-7" x="123.49" y="30.66" width="29.5" height="13.58"/><rect class="cls-6" x="123.49" y="66.79" width="29.5" height="16.55"/><rect class="cls-6" x="90.99" y="125.43" width="29.5" height="16.55"/><rect class="cls-6" x="123.49" y="47.24" width="29.5" height="16.55"/><rect class="cls-6" x="90.99" y="47.24" width="29.5" height="16.55"/><rect class="cls-6" x="123.49" y="86.33" width="29.5" height="16.55"/><rect class="cls-6" x="90.99" y="86.33" width="29.5" height="16.55"/><rect class="cls-6" x="90.99" y="144.98" width="29.5" height="17.49"/><rect class="cls-6" x="90.99" y="66.79" width="29.5" height="16.55"/><rect class="cls-6" x="123.49" y="144.98" width="29.5" height="17.49"/><circle class="cls-8" cx="70.42" cy="17.27" r="4.25"/><path class="cls-8" d="M160.4,121.06a4.26,4.26,0,1,0-4.25,4.25A4.25,4.25,0,0,0,160.4,121.06Z" transform="translate(-71.35 -103.78)"/><path class="cls-8" d="M141.84,123.83h0a2.23,2.23,0,0,1-2.23-2.23V106.52a2.23,2.23,0,0,1,2.23-2.24h0a2.24,2.24,0,0,1,2.24,2.24V121.6A2.23,2.23,0,0,1,141.84,123.83Z" transform="translate(-71.35 -103.78)"/><path class="cls-8" d="M156.36,123.83h0a2.23,2.23,0,0,1-2.23-2.23V106.52a2.23,2.23,0,0,1,2.23-2.24h0a2.24,2.24,0,0,1,2.24,2.24V121.6A2.23,2.23,0,0,1,156.36,123.83Z" transform="translate(-71.35 -103.78)"/><path class="cls-8" d="M337.92,121.06a4.26,4.26,0,1,0-4.25,4.25A4.25,4.25,0,0,0,337.92,121.06Z" transform="translate(-71.35 -103.78)"/><circle class="cls-8" cx="276.71" cy="17.27" r="4.25"/><path class="cls-8" d="M333.74,123.83h0a2.23,2.23,0,0,1-2.23-2.23V106.52a2.23,2.23,0,0,1,2.23-2.24h0a2.24,2.24,0,0,1,2.24,2.24V121.6A2.23,2.23,0,0,1,333.74,123.83Z" transform="translate(-71.35 -103.78)"/><path class="cls-8" d="M348.27,123.83h0A2.23,2.23,0,0,1,346,121.6V106.52a2.24,2.24,0,0,1,2.24-2.24h0a2.23,2.23,0,0,1,2.23,2.24V121.6A2.23,2.23,0,0,1,348.27,123.83Z" transform="translate(-71.35 -103.78)"/><circle class="cls-8" cx="166.37" cy="17.27" r="4.25"/><circle class="cls-8" cx="180.75" cy="17.27" r="4.25"/><path class="cls-8" d="M237.79,123.83h0a2.23,2.23,0,0,1-2.23-2.23V106.52a2.23,2.23,0,0,1,2.23-2.24h0a2.24,2.24,0,0,1,2.24,2.24V121.6A2.23,2.23,0,0,1,237.79,123.83Z" transform="translate(-71.35 -103.78)"/><path class="cls-8" d="M252.31,123.83h0a2.23,2.23,0,0,1-2.23-2.23V106.52a2.23,2.23,0,0,1,2.23-2.24h0a2.24,2.24,0,0,1,2.24,2.24V121.6A2.23,2.23,0,0,1,252.31,123.83Z" transform="translate(-71.35 -103.78)"/><line class="cls-9" x1="76.96" y1="68.23" x2="62.07" y2="81.34"/><line class="cls-9" x1="66.65" y1="68.23" x2="76.96" y2="80.47"/><line class="cls-9" x1="241.65" y1="49.56" x2="226.76" y2="62.68"/><line class="cls-9" x1="231.34" y1="49.56" x2="241.65" y2="61.8"/><line class="cls-9" x1="144.13" y1="49.56" x2="129.24" y2="62.68"/><line class="cls-9" x1="133.82" y1="49.56" x2="144.13" y2="61.8"/><line class="cls-9" x1="275.69" y1="49.2" x2="260.8" y2="62.31"/><line class="cls-9" x1="265.38" y1="49.2" x2="275.69" y2="61.44"/></g><g id="Character_1" data-name="Character 1"><path class="cls-10" d="M191.4,195.53s4.59,5.82,5.06,7.1a24.09,24.09,0,0,1,.82,2.85l3,2.22a.85.85,0,0,1,.16,1.23l-2.27,2.79s2.11,7,2,8-7.44,3.49-7.44,3.49l-.68,5.36-13.9-.18-.05-9.93-5.55-13S177.52,196.08,191.4,195.53Z" transform="translate(-71.35 -103.78)"/><path class="cls-10" d="M189,215.12l1.87-.2a6.25,6.25,0,0,0,2.94,4" transform="translate(-71.35 -103.78)"/><path class="cls-11" d="M175.5,195.86s-5.25.25-5.22,7.52,7.39,14,7.79,15.07,4.34.57,7.11-.46a7.27,7.27,0,0,0,3.79-2.87s-2.65-3.86-2.11-5,3.38-.05,3.38-.05a6.74,6.74,0,0,0,1.68-1.35c.48-.67,3.05-3.56,1.27-5.08s-4.55-2.44-3.32-4.36,5.63-3.79,4.34-7.92-4.17-4-6.57-2.65-3.06-3-7.73-.53S173.93,194.26,175.5,195.86Z" transform="translate(-71.35 -103.78)"/><path class="cls-12" d="M181.64,210.1a9.06,9.06,0,0,0,0,2.32" transform="translate(-71.35 -103.78)"/><path class="cls-12" d="M189.74,198.42s-1,1.85-5,5.44a9.48,9.48,0,0,0-2.86,4.73" transform="translate(-71.35 -103.78)"/><path class="cls-12" d="M190.68,202.09s-4.07,5.52-6.21,7.16" transform="translate(-71.35 -103.78)"/><path class="cls-11" d="M231.69,196.14a55.16,55.16,0,0,0,13,4.36s-6.41-4.34-12.61-5.42C231.51,195,231.2,195.89,231.69,196.14Z" transform="translate(-71.35 -103.78)"/><path class="cls-10" d="M230.5,229l7.64-19.56s-3-4.93-3-6.42,4.78-6.85,4.78-6.85.39-2.91,2.47-1.52a4.22,4.22,0,0,1,1.82,3.74,38.62,38.62,0,0,1,2.61,4.23c.48,1.16-4.06,7.61-4.06,7.61S242,228,240,234.11s-2.5,7.38-3.83,9.17-7.65-1.36-7.65-1.36Z" transform="translate(-71.35 -103.78)"/><path class="cls-11" d="M195.57,417.72,208,422.24a2.21,2.21,0,0,1,1.3,3,1.47,1.47,0,0,1-.83.73c-1.58.57-18,6.2-22.79,4.17a3,3,0,0,1-1.65-2.63,83.13,83.13,0,0,1,1.21-11S191.34,419.4,195.57,417.72Z" transform="translate(-71.35 -103.78)"/><path class="cls-10" d="M209.32,425.25a2,2,0,0,0,.05-1.69c-3.44,1.67-10.75,4.8-17.41,4.92a27.12,27.12,0,0,1-7.88-.67,3.1,3.1,0,0,0,1.62,2.34c4.82,2,21.21-3.6,22.79-4.17A1.47,1.47,0,0,0,209.32,425.25Z" transform="translate(-71.35 -103.78)"/><path class="cls-11" d="M161.11,413.94s-1.12,10.31-.52,11.33,2.39,1.71,5.47,1.51a4.5,4.5,0,0,0,4.2-3.17c.28-.74-.44-7.48-.46-8.66S161.11,413.94,161.11,413.94Z" transform="translate(-71.35 -103.78)"/><path class="cls-10" d="M170.29,421.68c-.95,1.83-2.16,3-5.3,3.06a8,8,0,0,1-4.58-1.22,4.89,4.89,0,0,0,.18,1.75c.61,1,2.39,1.71,5.47,1.51a4.5,4.5,0,0,0,4.2-3.17A8.06,8.06,0,0,0,170.29,421.68Z" transform="translate(-71.35 -103.78)"/><path class="cls-10" d="M202.22,295.31a41.76,41.76,0,0,1-9.17,3.27l-27.57-6.37s-1.83,15.46-1.78,18.12,1,50.53,1,50.53l-3.76,53.8a4.59,4.59,0,0,0,4.31,2.58,12.87,12.87,0,0,0,5.3-1.17l11.82-56L185,419.52s1.63,1.57,5.35,1.49a6.18,6.18,0,0,0,5.26-3.29s1.83-23,4.56-39.46,3.06-61.77,3.06-61.77Z" transform="translate(-71.35 -103.78)"/><path class="cls-13" d="M176,303.42a56.27,56.27,0,0,0,11,1.27" transform="translate(-71.35 -103.78)"/><path class="cls-13" d="M165.78,300.45s1.28,1.7,4.67,1.7" transform="translate(-71.35 -103.78)"/><path class="cls-13" d="M193.75,403.42s2.54-30.51,4.24-52.54a286.5,286.5,0,0,0,.42-39s4.24-4.66,1.27-12.71" transform="translate(-71.35 -103.78)"/><line class="cls-13" x1="122.41" y1="303.03" x2="121.13" y2="312.77"/><polyline class="cls-13" points="111 256.3 107.97 216.35 100.93 209.57"/><path class="cls-10" d="M167.57,273.39a2.2,2.2,0,0,0-.87-2.5c-3.06-2.07-10.48-6.33-12.85-.72a36.09,36.09,0,0,0-1.44,6.72c-.66,4.49-.42,34.89-.39,38a2.07,2.07,0,0,1-.06.5c-.26,1.19-1.35,6.39-.59,9.49.85,3.53,2.48,6.25,5.25,7s4.28-2.45,3.85-4.41.6-3.48.17-5.44c-.35-1.58-1.85-5.71-2.42-7.24a2.26,2.26,0,0,1-.1-1.18c.78-4,5.15-26.43,5.48-27.51S166.49,276.88,167.57,273.39Z" transform="translate(-71.35 -103.78)"/><path class="cls-13" d="M155.79,325.55s3.53,2.47,3.94,4.75" transform="translate(-71.35 -103.78)"/><path class="cls-13" d="M156.91,323.5s2.8,1.83,3.55,3.27" transform="translate(-71.35 -103.78)"/><path class="cls-10" d="M157.42,321.43l1,1.38s.5,5.5,2.06,4.68.64-7.49.64-7.49-.79-1.63-3.23-5.52" transform="translate(-71.35 -103.78)"/><path class="cls-13" d="M157.24,315.68a10.48,10.48,0,0,1-.14,6,47.61,47.61,0,0,1-3,4.9,46.53,46.53,0,0,1,4.11,4.48" transform="translate(-71.35 -103.78)"/><path class="cls-11" d="M159,237.31l-9.07,33.33s7.59,6.15,17,6L173,245S166.22,229.77,159,237.31Z" transform="translate(-71.35 -103.78)"/><path class="cls-11" d="M174,226.38S160.68,233,159.43,236c-1,2.5,2.06,20.2,2.12,23.31s2.72,29.83,3.44,35,18,7.37,24.58,5.38,12.69-2.75,12.65-4.41-.92-15.72-.56-18.41S204.81,254,204.81,254l25.11-5.2s1.16-.7,1.19-5.24a122.85,122.85,0,0,0-.66-12.83,28.9,28.9,0,0,1-9.94.62c-6.06-.54-13.24-2.17-14.52-1.81s-10-1.46-12.87-1.82C189.13,227.18,179,223.8,174,226.38Z" transform="translate(-71.35 -103.78)"/><line class="cls-12" x1="91.47" y1="171.24" x2="87.99" y2="141.98"/><line class="cls-12" x1="88.93" y1="154.72" x2="87.24" y2="150.9"/><line class="cls-12" x1="133.46" y1="150.17" x2="123.68" y2="151.75"/><line class="cls-12" x1="131.3" y1="150.9" x2="124.1" y2="157.68"/><path class="cls-12" d="M224.68,232.23s-6.78,10.17-23.3,14" transform="translate(-71.35 -103.78)"/></g></svg>