<svg xmlns="http://www.w3.org/2000/svg" xmlns:xlink="http://www.w3.org/1999/xlink" viewBox="0 0 391.39 391.25"><defs><style>.cls-1,.cls-11{fill:#fb0;}.cls-1,.cls-10,.cls-16,.cls-19,.cls-2,.cls-20,.cls-27,.cls-28,.cls-3,.cls-4,.cls-5,.cls-6,.cls-7,.cls-8,.cls-9{stroke:#263238;}.cls-1,.cls-10,.cls-20,.cls-28,.cls-3,.cls-4,.cls-6,.cls-7,.cls-8,.cls-9{stroke-miterlimit:10;}.cls-2,.cls-21{fill:gray;}.cls-14,.cls-16,.cls-19,.cls-2,.cls-27,.cls-5{stroke-linecap:round;stroke-linejoin:round;}.cls-10,.cls-26,.cls-3,.cls-4,.cls-6,.cls-7,.cls-8,.cls-9{fill:#8f8f8f;}.cls-3{clip-path:url(#clip-path);}.cls-4{clip-path:url(#clip-path-7);}.cls-12,.cls-13,.cls-23,.cls-5{fill:#fff;}.cls-7{clip-path:url(#clip-path-3);}.cls-8{clip-path:url(#clip-path-4);}.cls-9{clip-path:url(#clip-path-5);}.cls-10{clip-path:url(#clip-path-6);}.cls-12{opacity:0.7;}.cls-13{opacity:0.4;}.cls-14,.cls-19,.cls-20,.cls-28{fill:none;}.cls-14{stroke:#fb0;stroke-width:1.25px;}.cls-15,.cls-18{fill:#263238;}.cls-16{fill:#b1b1b1;}.cls-17{clip-path:url(#clip-path-8);}.cls-18{opacity:0.3;}.cls-22{clip-path:url(#clip-path-9);}.cls-24{clip-path:url(#clip-path-10);}.cls-25{clip-path:url(#clip-path-11);}.cls-27{opacity:0.2;}.cls-28{opacity:0.18;}.cls-29{clip-path:url(#clip-path-12);}.cls-30{font-size:23px;font-family:Estefin, Estefin;}.cls-31{font-size:40px;font-family:KozGoPr6N-Regular-90ms-RKSJ-H, Kozuka Gothic Pr6N;}.cls-32{font-size:36px;font-family:AdobeArabic-Regular, Adobe Arabic;}</style><clipPath id="clip-path"><polygon class="cls-4" points="318.17 137.95 314.78 137.81 312.52 140.77 315.39 146.63 318.17 146.02 318.17 137.95"/></clipPath><clipPath id="clip-path-2"><polygon class="cls-3" points="338.94 137.6 330.82 135.37 328.76 133.13 327.19 134.15 329.63 138.09 332.15 143.36 335.64 143.93 336.09 142.94 333.45 140.16 339.48 141.06 338.94 137.6"/></clipPath><clipPath id="clip-path-3"><polygon class="cls-6" points="278.02 150.9 287.42 152.85 290.62 156.17 294.79 156.81 296.12 160.78 295.15 163.46 292.3 164.76 285.32 163.62 285.13 162.77 288.43 160.47 286.16 156.26 279.92 155.41 276.59 152.56 278.02 150.9"/></clipPath><clipPath id="clip-path-4"><path class="cls-7" d="M353.75,237.62l-7.45-1.25-9-1.14-6.62,1.47-6.48.09-6.5,3-3.8,1.07-2.35.52L307.64,245l-3.89,2.66-6.57-2.35.17-6.31-4-.69-4.27,1L288,237.43l-.42-3.94-2-1.81-2.9,1.09-.38,2.33-3.58,1L274.73,233l-2.42-4.85,1.88-6.69,6.29-.95,2,1.12,2.56-.57,2.78-2.63,3,.23,5.32,5.77,1.45-.54-1.52-4.82-1.85-2.28-.48-4.15,7.15-5.18-.69-8.13,2.8-3.54,1.69-5.53,2-.9,4.2-4.3-.17-1.75-3.37,1-1-1.57-2.35.53-3.44,1.66,1.09-3.16,7-3.8,1.29-2.3,4,4,2.35,1.49,2.8-1.52-1.9-2.49L312,175l-6.4-4.63-6.15-2.45-5.31.29-3.14-2-3.6-.09-.24,1,.95,6.28,1.33,1.95-.41,7.26L284,180l0-3.13-5-1.14-2.45-1.92-.11-5.58,5.19-5.86-.71-5.22-2.3.74-1.92-1.59-1.35-3.07-1.55.12-.09,3.61-2.26.95-2.72-7.24-2-.69-3.27-.62-3,2.47L265.7,155l1.66,3.44-9-4.06-6.62-4.58-1.71-5.67-5.93-.48-3.65,3.73a33.93,33.93,0,0,1-2.83,2.42,36.92,36.92,0,0,1-4.94,2l0,3.82-4.87,1.31.95,2.25,8.19-.47,5.05,3.58,1.66,7.48-.88,7.14,2,7-3.66,11.8,2.18,15.87,3.91,8.55,4.3,6.22,3.3-.29L253,222.8l-2.28-2.18-2.11-4.46,1.83-.86,4.7,7,3.65,6.36,1.23,5.55,5.15,4,8.45,3.73,11.77.52,4.13,2.45,3.32,2.85,4.37,1.49,5,.24,4.65-1.26s.26,2.19.5,3.25-1.95,5.37-1.95,5.37l-1.4,4.79,2.76,4.32,5.12.88,8.14,5.36,3.27.62.72,3.2.7,1.41a91.78,91.78,0,0,0,40.11-31l-.23-1.58L368,233.12l-3.2-1.31Z"/></clipPath><clipPath id="clip-path-5"><path class="cls-8" d="M357.23,148.33,354,144.79l-4-4-2.28-6.21,4-.22-.26-2.18-2.83.4,2.11-1.59,2.24-2.06-.48-2.14-3.32-2.84-1.57-4.48a92.25,92.25,0,0,0-111.3-2.14l5.7,2.4-2.14,4.51L236,126l.85,5.87-1.57,1-1.61,2.82,1.07,3.8,3.72-.38-.69,4,3.63-.81,4.44-9.27-.11-3.56,5.88-1.76.93-2.89,6.05-2-.17-3.77,4.44-1.21a23.13,23.13,0,0,1,3.47-2.57,26.71,26.71,0,0,1,3.86.27l3.78,1.85,4.48-1,3.32-3.2,5-.67a5.46,5.46,0,0,0,2.54.34c1.07-.24,3.94-2.45,3.94-2.45l7.05,2.47,3,1.36.71,3.2,3.3-.29.64-2.15,3.06.66.17,1.76-6,3.13,4.67,3.89,8.64,2.56,4.15,3.56,4.8-.61.59-2.37,1.61-.81-6.5-3-3.51.33,2.59-1.47-3.37-3.06,3.58-1,5.27,1.52,2.21,4.89,3,2.25,3.3,5.77,5.46,2.37,1.56,7.05,5.63,2.12.3,2.39,0,2.92,2.14,3.56.85,1.83,3.77-.17.91-4Z"/></clipPath><clipPath id="clip-path-6"><path class="cls-9" d="M355.23,126.19l.27,1.23-.31,3.65,1.31,2.85,2.54.33.9,4.06-2.8-.5,1.92,11.68-1.52,5.27,3,5.6,3.34,1.94,2.56,11.54,4.77,8.35,4.51,6.17,5.2.19.76-4.65.57-.7a93.36,93.36,0,0,0-1.79-11.34A91.78,91.78,0,0,0,355.23,126.19Z"/></clipPath><clipPath id="clip-path-7"><polygon class="cls-10" points="305.6 135.81 290.12 132.75 283.98 134.34 283.38 138.73 280.2 136.52 275.74 138.63 276.88 145.78 281.34 147.7 283.22 143.02 287.13 145.51 295.03 149.81 297.69 155.72 304.81 161.54 313.45 158.05 312.52 154.89 309.79 151.69 307.47 143.24 308.8 139.13 305.6 135.81"/></clipPath><clipPath id="clip-path-8" transform="translate(-57.35 -54.46)"><path id="_Clipping_Path_" data-name="&lt;Clipping Path&gt;" class="cls-1" d="M199.35,390.8c-1.4-12-4.64-37.44-5.13-40.62a55.62,55.62,0,0,1-.19-9.6s11-18.64,12.86-33.53c.55-4.45,1.05-9.42,1.53-14.34-7.56-.31-23.18-2-37.78-10.22a25.7,25.7,0,0,0-2.45,4.89c-3.84,10.58-1.35,20.13,3.16,33.77s9.08,20.19,7.83,26.36-1.15,14.1,1,20.08c1.27,3.62,6.05,15.43,9.57,25A17.29,17.29,0,0,0,199.35,390.8Z"/></clipPath><clipPath id="clip-path-9" transform="translate(-57.35 -54.46)"><path id="_Clipping_Path_2" data-name="&lt;Clipping Path&gt;" class="cls-2" d="M167.35,290.08c5,5.35,17.48,15.1,40.2,11.26,1.51-14,2.72-30.52,3.92-34.83,1.37-4.91,4.4-16,4.4-16a57.19,57.19,0,0,0,1-17.44c-1.11-8.41-13.5-10.07-17.49-9.71s-7.15,1-7.15,1-10.9-2.19-14,3.86,6.75,33.17,7.17,36.12-13.33,12.45-17.16,23C167.86,288.29,167.59,289.19,167.35,290.08Z"/></clipPath><clipPath id="clip-path-10" transform="translate(-57.35 -54.46)"><path id="_Clipping_Path_3" data-name="&lt;Clipping Path&gt;" class="cls-5" d="M191.9,188.09s-7.19,11-14.72,14.44c0,0,1,12.36,5.37,16.4s11.45,3.27,15.63,0,2.37-23,2.37-23S194.1,192.61,191.9,188.09Z"/></clipPath><clipPath id="clip-path-11" transform="translate(-57.35 -54.46)"><circle id="_Ellipse_" data-name="&lt;Ellipse&gt;" class="cls-1" cx="290.51" cy="191.84" r="92.19" transform="translate(-46.52 104.59) rotate(-18.93)"/></clipPath><clipPath id="clip-path-12" transform="translate(-57.35 -54.46)"><path id="_Clipping_Path_4" data-name="&lt;Clipping Path&gt;" class="cls-5" d="M198.55,220.54s-11.55-.21-17.87,4-4.94,7.48-3.11,10.91,6.85,4,15.74,1.83,19.94-8.05,26.87-12.36,29.21-28.64,29.21-28.64l5.69-3.18s6.49-1.44,8-2.21-.57-1.58-1.79-1.31-5.14.62-5.14.62,7.15-3.32,7.69-4.72.36-2.21-1.29-1-7.32,2.91-7.32,2.91,8.66-6.26,8.84-7.37-.41-1.83-1.65-.7-9.19,5.6-9.19,5.6l5.69-7.58s.18-2.27-2-.24a56.12,56.12,0,0,1-5.42,4.86,35.37,35.37,0,0,1-4.09,1.76,5.11,5.11,0,0,1,.54-3.32c.81-1.24,2.53-2,.93-4.46-.45-.7-1,.22-1.35,1.57s-4.13,5.4-4.15,6.25a60.78,60.78,0,0,0,1.64,6.45S231,203.54,224.17,209.31s-8.91,6.88-8.91,6.88Z"/></clipPath></defs><title>languages</title><g id="Background_Simple" data-name="Background Simple"><path class="cls-11" d="M94.46,300.61s27.72,66,74.81,100.88,110.43,35.91,159.92-.33,48.15-111,81.93-171.58S443.26,99.91,382.17,66.87s-87.51,10-160.91,13.48S36.72,145.13,94.46,300.61Z" transform="translate(-57.35 -54.46)"/><path class="cls-12" d="M94.46,300.61s27.72,66,74.81,100.88,110.43,35.91,159.92-.33,48.15-111,81.93-171.58S443.26,99.91,382.17,66.87s-87.51,10-160.91,13.48S36.72,145.13,94.46,300.61Z" transform="translate(-57.35 -54.46)"/></g><g id="Plants"><path class="cls-11" d="M119.67,342.67c-1.42,4.56-3.55,1.16-4.79-17.37-.59-8.69-1.45-26.46,8.47-23.36,9.53,3-.44,30.2-.44,30.2Zm13.4,1.53s18.27-22.5,10.22-28.42c-8.37-6.16-13.33,10.93-15.6,19.34-4.84,17.93-3.93,21.84-1.1,18Zm5.76,18.35s17.23-14.55,11.94-20.24c-5.51-5.92-11.78,6.42-14.73,12.52-6.3,13-6.17,16.13-3.45,13.59Zm6.51,18.24s17.23-14.56,11.93-20.25c-5.5-5.92-11.77,6.43-14.72,12.53-6.3,13-6.17,16.12-3.45,13.59ZM110.25,346s-26.73-11.21-30.14-1.83c-3.56,9.76,14.23,9.72,22.94,9.54,18.57-.4,22.06-2.37,17.57-4Zm4.83,14.38s-28.43-5.67-29.91,4.2c-1.54,10.28,15.89,6.7,24.38,4.78,18.12-4.07,21.15-6.7,16.42-7.4Zm7.68,15.48s-24.17-4.14-25.19,4.24c-1.07,8.73,13.59,5.3,20.72,3.48,15.23-3.86,17.74-6.15,13.72-6.64Zm4.8,12.9S104,382,102.06,390.26c-2,8.56,13,6.71,20.24,5.66,15.55-2.23,18.28-4.24,14.34-5.15Zm-20.87-65.66s-13.14-31.6-24.51-24.72c-11.83,7.16,3.64,20.62,11.36,27,16.45,13.69,21.25,14.35,18.81,9.3Z" transform="translate(-57.35 -54.46)"/><path class="cls-13" d="M119.67,342.67c-1.42,4.56-3.55,1.16-4.79-17.37-.59-8.69-1.45-26.46,8.47-23.36,9.53,3-.44,30.2-.44,30.2Zm13.4,1.53s18.27-22.5,10.22-28.42c-8.37-6.16-13.33,10.93-15.6,19.34-4.84,17.93-3.93,21.84-1.1,18Zm5.76,18.35s17.23-14.55,11.94-20.24c-5.51-5.92-11.78,6.42-14.73,12.52-6.3,13-6.17,16.13-3.45,13.59Zm6.51,18.24s17.23-14.56,11.93-20.25c-5.5-5.92-11.77,6.43-14.72,12.53-6.3,13-6.17,16.12-3.45,13.59ZM110.25,346s-26.73-11.21-30.14-1.83c-3.56,9.76,14.23,9.72,22.94,9.54,18.57-.4,22.06-2.37,17.57-4Zm4.83,14.38s-28.43-5.67-29.91,4.2c-1.54,10.28,15.89,6.7,24.38,4.78,18.12-4.07,21.15-6.7,16.42-7.4Zm7.68,15.48s-24.17-4.14-25.19,4.24c-1.07,8.73,13.59,5.3,20.72,3.48,15.23-3.86,17.74-6.15,13.72-6.64Zm4.8,12.9S104,382,102.06,390.26c-2,8.56,13,6.71,20.24,5.66,15.55-2.23,18.28-4.24,14.34-5.15Zm-20.87-65.66s-13.14-31.6-24.51-24.72c-11.83,7.16,3.64,20.62,11.36,27,16.45,13.69,21.25,14.35,18.81,9.3Z" transform="translate(-57.35 -54.46)"/><path class="cls-14" d="M88.1,309.49s28.89,29.83,36.49,45.33c8.74,17.81,15.3,38.61,17.7,55.7" transform="translate(-57.35 -54.46)"/><line class="cls-14" x1="61.15" y1="290.33" x2="62.27" y2="259.51"/><line class="cls-14" x1="67.24" y1="300.35" x2="78.31" y2="273.61"/><line class="cls-14" x1="65" y1="296.71" x2="36.9" y2="293.37"/><line class="cls-14" x1="73.64" y1="314.48" x2="88.36" y2="294.62"/><line class="cls-14" x1="70.87" y1="308.57" x2="49.99" y2="310.12"/><line class="cls-14" x1="76.14" y1="323.38" x2="60.19" y2="325.34"/><line class="cls-14" x1="80.23" y1="332.78" x2="87.85" y2="320.64"/><line class="cls-14" x1="81.21" y1="336.97" x2="62.42" y2="337.59"/><path class="cls-11" d="M398.88,355.68c-6.06.46-3-3.65,18.27-13.81,10-4.77,30.59-14.12,31.57-.94.94,12.65-35.89,13.63-35.89,13.63Zm4.47,16.54s35.15,11,38.37-1.24c3.35-12.78-19.17-10.63-30.16-9.37-23.46,2.69-27.65,5.6-21.77,7.13Zm-19,15.42s25.28,13.53,29.52,4.61c4.41-9.28-13.12-10.9-21.71-11.53-18.32-1.34-21.94.28-17.67,2.3Zm-18.5,16.24s25.28,13.53,29.52,4.61c4.41-9.28-13.12-10.9-21.7-11.53-18.33-1.34-21.95.27-17.68,2.3Zm24.71-57.8s.72-36.83-12-36.47c-13.21.38-4.81,21.38-.51,31.58,9.17,21.76,13.14,25,13,18.88Zm-14.72,12.45s-6.63-36.24-19-33.37c-12.87,3-.46,21.92,5.78,31,13.31,19.5,17.84,21.85,16.45,15.94Zm-14.69,16.34s-6.44-30.5-16.83-27.78c-10.81,2.83.12,18.54,5.61,26.12,11.71,16.18,15.59,18.07,14.28,13.1Zm-13,11.72s-3.17-31-13.78-29.41c-11.05,1.67-1.86,18.45,2.8,26.57,9.93,17.34,13.58,19.62,12.81,14.54ZM416,331.13s31.17-30.33,17.71-40.54c-14-10.62-22.65,14-26.61,26.09-8.46,25.87-7,31.84-2.16,26.59Z" transform="translate(-57.35 -54.46)"/><path class="cls-13" d="M398.88,355.68c-6.06.46-3-3.65,18.27-13.81,10-4.77,30.59-14.12,31.57-.94.94,12.65-35.89,13.63-35.89,13.63Zm4.47,16.54s35.15,11,38.37-1.24c3.35-12.78-19.17-10.63-30.16-9.37-23.46,2.69-27.65,5.6-21.77,7.13Zm-19,15.42s25.28,13.53,29.52,4.61c4.41-9.28-13.12-10.9-21.71-11.53-18.32-1.34-21.94.28-17.67,2.3Zm-18.5,16.24s25.28,13.53,29.52,4.61c4.41-9.28-13.12-10.9-21.7-11.53-18.33-1.34-21.95.27-17.68,2.3Zm24.71-57.8s.72-36.83-12-36.47c-13.21.38-4.81,21.38-.51,31.58,9.17,21.76,13.14,25,13,18.88Zm-14.72,12.45s-6.63-36.24-19-33.37c-12.87,3-.46,21.92,5.78,31,13.31,19.5,17.84,21.85,16.45,15.94Zm-14.69,16.34s-6.44-30.5-16.83-27.78c-10.81,2.83.12,18.54,5.61,26.12,11.71,16.18,15.59,18.07,14.28,13.1Zm-13,11.72s-3.17-31-13.78-29.41c-11.05,1.67-1.86,18.45,2.8,26.57,9.93,17.34,13.58,19.62,12.81,14.54ZM416,331.13s31.17-30.33,17.71-40.54c-14-10.62-22.65,14-26.61,26.09-8.46,25.87-7,31.84-2.16,26.59Z" transform="translate(-57.35 -54.46)"/><path class="cls-14" d="M423.28,302.82s-21.7,48.12-36.45,64.37c-16.94,18.68-38.45,36.18-57.52,47" transform="translate(-57.35 -54.46)"/><line class="cls-14" x1="338.46" y1="300.84" x2="375.41" y2="287.7"/><line class="cls-14" x1="329.48" y1="312.73" x2="366.28" y2="313.26"/><line class="cls-14" x1="332.73" y1="308.37" x2="323.5" y2="273.6"/><line class="cls-14" x1="315.79" y1="326.91" x2="346.16" y2="334.99"/><line class="cls-14" x1="321.47" y1="320.86" x2="309.85" y2="296.92"/><line class="cls-14" x1="306.44" y1="334.04" x2="296.65" y2="316.12"/><line class="cls-14" x1="297.26" y1="343.28" x2="315.17" y2="346.59"/><line class="cls-14" x1="292.76" y1="346.4" x2="283.22" y2="324.49"/><path class="cls-11" d="M314.45,359.62c-2,3.05-2.85.11.13-13.77,1.4-6.51,4.51-19.75,11.14-15.38,6.37,4.2-6.68,22.1-6.68,22.1Zm9.52,3.94s18.16-12.69,13.49-18.73c-4.85-6.28-12.09,5.23-15.53,10.93-7.33,12.16-7.48,15.22-4.59,13Zm.38,14.7s15.72-7.07,13-12.36c-2.8-5.51-10,2.24-13.46,6.1-7.37,8.23-7.93,10.55-5.39,9.26Zm.94,14.77s15.72-7.07,13-12.36c-2.8-5.51-10,2.24-13.46,6.1-7.36,8.23-7.92,10.55-5.39,9.26Zm-18.45-33s-17.28-13.86-21.76-7.69c-4.67,6.43,8.41,10.14,14.85,11.84,13.72,3.61,16.7,2.9,13.74.76Zm.52,11.58s-19.69-10.15-22.86-3.21c-3.29,7.23,10.27,8.27,16.91,8.65,14.17.82,16.95-.48,13.62-2Zm2.39,13s-16.89-8.13-19.41-2.18c-2.62,6.18,8.88,6.75,14.5,6.92,12,.36,14.33-.8,11.48-2Zm.81,10.49s-15.93-9.87-19.06-4.23c-3.27,5.87,8.1,7.65,13.68,8.42,11.89,1.64,14.32.73,11.62-.77ZM309,342.47s-3-26-12.81-23.31c-10.2,2.77-1.66,15.91,2.66,22.25,9.21,13.52,12.59,15,11.87,10.79Z" transform="translate(-57.35 -54.46)"/><path class="cls-13" d="M314.45,359.62c-2,3.05-2.85.11.13-13.77,1.4-6.51,4.51-19.75,11.14-15.38,6.37,4.2-6.68,22.1-6.68,22.1Zm9.52,3.94s18.16-12.69,13.49-18.73c-4.85-6.28-12.09,5.23-15.53,10.93-7.33,12.16-7.48,15.22-4.59,13Zm.38,14.7s15.72-7.07,13-12.36c-2.8-5.51-10,2.24-13.46,6.1-7.37,8.23-7.93,10.55-5.39,9.26Zm.94,14.77s15.72-7.07,13-12.36c-2.8-5.51-10,2.24-13.46,6.1-7.36,8.23-7.92,10.55-5.39,9.26Zm-18.45-33s-17.28-13.86-21.76-7.69c-4.67,6.43,8.41,10.14,14.85,11.84,13.72,3.61,16.7,2.9,13.74.76Zm.52,11.58s-19.69-10.15-22.86-3.21c-3.29,7.23,10.27,8.27,16.91,8.65,14.17.82,16.95-.48,13.62-2Zm2.39,13s-16.89-8.13-19.41-2.18c-2.62,6.18,8.88,6.75,14.5,6.92,12,.36,14.33-.8,11.48-2Zm.81,10.49s-15.93-9.87-19.06-4.23c-3.27,5.87,8.1,7.65,13.68,8.42,11.89,1.64,14.32.73,11.62-.77ZM309,342.47s-3-26-12.81-23.31c-10.2,2.77-1.66,15.91,2.66,22.25,9.21,13.52,12.59,15,11.87,10.79Z" transform="translate(-57.35 -54.46)"/><path class="cls-14" d="M298.24,328.6s14.95,28,17.27,41c2.68,14.93,3.12,31.59,1.28,44.66" transform="translate(-57.35 -54.46)"/><line class="cls-14" x1="255.79" y1="306.48" x2="263.1" y2="284.06"/><line class="cls-14" x1="258.16" y1="315.12" x2="271.92" y2="297.79"/><line class="cls-14" x1="257.28" y1="311.97" x2="237.33" y2="303.61"/><line class="cls-14" x1="259.89" y1="326.84" x2="274.88" y2="315.35"/><line class="cls-14" x1="259.09" y1="321.92" x2="243.43" y2="318.66"/><line class="cls-14" x1="259.85" y1="333.91" x2="247.72" y2="332"/><line class="cls-14" x1="260.88" y1="341.67" x2="269.03" y2="334.36"/><line class="cls-14" x1="260.72" y1="344.96" x2="246.78" y2="341.47"/><path class="cls-11" d="M91.8,384c.61,2.89-1.56,1.7-7.82-7.92C81,371.62,75.21,362.29,81.5,361c6-1.27,8.87,16.42,8.87,16.42Zm7.69-3.22s3.06-17.64-3.06-18.41c-6.38-.79-3.89,9.92-2.58,15.14,2.8,11.13,4.47,13,4.83,10Zm8.65,8.16s4.89-13.05.32-14.52c-4.75-1.53-4.41,7-4.16,11.2.53,8.91,1.54,10.56,2.24,8.37Zm9,7.87s4.89-13.05.32-14.52c-4.75-1.53-4.41,7-4.16,11.2.53,8.91,1.54,10.56,2.24,8.37Zm-29.44-8.2s-17.79,2-16.8,8.11c1,6.34,10.61.95,15.25-1.78,9.89-5.81,11.18-7.93,8.26-7.45Zm7,6.3s-17,5.52-14.86,11.29c2.27,6,10.58-1.18,14.59-4.78,8.54-7.66,9.38-10,6.62-8.95Zm8.81,6s-14.28,5.06-12.3,9.89c2,5,8.92-1.25,12.22-4.38,7-6.68,7.71-8.67,5.39-7.72Zm6.48,5.51S95.22,410,96.67,415c1.51,5.22,9-.29,12.62-3.06,7.72-5.89,8.58-7.8,6.18-7.1ZM78.88,377.38s-16.62-13.07-20.67-5.93c-4.22,7.43,8.18,10,14.28,11.15,13,2.41,15.79,1.32,13-.67Z" transform="translate(-57.35 -54.46)"/><path class="cls-13" d="M91.8,384c.61,2.89-1.56,1.7-7.82-7.92C81,371.62,75.21,362.29,81.5,361c6-1.27,8.87,16.42,8.87,16.42Zm7.69-3.22s3.06-17.64-3.06-18.41c-6.38-.79-3.89,9.92-2.58,15.14,2.8,11.13,4.47,13,4.83,10Zm8.65,8.16s4.89-13.05.32-14.52c-4.75-1.53-4.41,7-4.16,11.2.53,8.91,1.54,10.56,2.24,8.37Zm9,7.87s4.89-13.05.32-14.52c-4.75-1.53-4.41,7-4.16,11.2.53,8.91,1.54,10.56,2.24,8.37Zm-29.44-8.2s-17.79,2-16.8,8.11c1,6.34,10.61.95,15.25-1.78,9.89-5.81,11.18-7.93,8.26-7.45Zm7,6.3s-17,5.52-14.86,11.29c2.27,6,10.58-1.18,14.59-4.78,8.54-7.66,9.38-10,6.62-8.95Zm8.81,6s-14.28,5.06-12.3,9.89c2,5,8.92-1.25,12.22-4.38,7-6.68,7.71-8.67,5.39-7.72Zm6.48,5.51S95.22,410,96.67,415c1.51,5.22,9-.29,12.62-3.06,7.72-5.89,8.58-7.8,6.18-7.1ZM78.88,377.38s-16.62-13.07-20.67-5.93c-4.22,7.43,8.18,10,14.28,11.15,13,2.41,15.79,1.32,13-.67Z" transform="translate(-57.35 -54.46)"/><path class="cls-14" d="M64.77,375.68S89.35,383,98.12,389.11a121.16,121.16,0,0,1,26.36,24.69" transform="translate(-57.35 -54.46)"/><line class="cls-14" x1="34.47" y1="331.08" x2="25.77" y2="314.12"/><line class="cls-14" x1="40.77" y1="334.64" x2="38.67" y2="316.88"/><line class="cls-14" x1="38.46" y1="333.35" x2="22.3" y2="340.04"/><line class="cls-14" x1="48.49" y1="340.33" x2="50.43" y2="325.18"/><line class="cls-14" x1="45.21" y1="337.98" x2="34.42" y2="345.11"/><line class="cls-14" x1="52.52" y1="344.37" x2="44.51" y2="350.24"/><line class="cls-14" x1="57.56" y1="348.21" x2="58.01" y2="339.36"/><line class="cls-14" x1="59.35" y1="350.17" x2="49.41" y2="356.18"/></g><g id="Floor"><ellipse class="cls-15" cx="196.02" cy="375.6" rx="135.28" ry="15.65"/></g><g id="Character"><path class="cls-15" d="M210,193.28s-4.36-11.2-14.93-16.34-37.49,9.78-39.95,16.09,6.83,4.89,4.48,9.51S126,215,121.92,225.26s5.16,14.67,3.47,19.67-12.9,14.49-7.84,25.4,27.69,4.23,34.63,2.31,3.2,3.28,5.66,7.19,20.33-.62,26.51-6.34,3.61,6.42,9.64,4.81c2.2-.58,7.36-11.59,12.34-30S214.7,209.63,210,193.28Z" transform="translate(-57.35 -54.46)"/><path class="cls-5" d="M178.28,335.63s-5.07,4.19-11.63,10.93-16.35,29.76-18.72,33.33-7.45,8-7.45,8-9-.6-9.41,1.51-.67,6.07-1.87,8.12-3.51,4.82-2.42,8.35,2.46,7.08,4.38,6.14,2.54-2.22,4.18-6.9,15.08-14.69,19.78-21.29,22.35-24.05,24.64-26.55,6-1.73,7.47-12.27S183.29,332.24,178.28,335.63Z" transform="translate(-57.35 -54.46)"/><path class="cls-1" d="M179.76,357.28c2.3-2.51,6-1.73,7.47-12.27s-3.94-12.77-8.95-9.38c0,0-5.07,4.19-11.63,10.93-5.79,5.94-14.07,24.51-17.58,31.29a14.19,14.19,0,0,0,6.84,4.92C161.52,375.53,177.58,359.66,179.76,357.28Z" transform="translate(-57.35 -54.46)"/><path class="cls-16" d="M136.35,394l2.36-6.17c-2.64-.06-7.35.06-7.64,1.57-.4,2.1-.67,6.07-1.87,8.12s-3.51,4.82-2.42,8.35,2.46,7.07,4.38,6.14,2.54-2.22,4.18-6.9c.74-2.1,3.84-5.26,7.46-8.71C140.4,393.87,136.35,394,136.35,394Z" transform="translate(-57.35 -54.46)"/><path class="cls-5" d="M192.19,224.37s-10.9-2.19-14,3.86,6.75,33.17,7.17,36.12-13.33,12.45-17.16,23-1.35,20.13,3.16,33.77,9.08,20.19,7.83,26.36-1.15,14.1,1,20.08,13.76,34.26,13.51,38-4.76,8.85-4.66,10.52,8.7,7.05,11.81,10.38,9.23,5.41,9.77,3.57-4.95-7-5.88-11.86-4.16-15.7-4.77-22.2-5.12-42-5.7-45.82a55.62,55.62,0,0,1-.19-9.6s11-18.64,12.86-33.53,3.21-35.63,4.58-40.54,4.4-16,4.4-16a57.19,57.19,0,0,0,1-17.44c-1.11-8.41-13.5-10.07-17.49-9.71S192.19,224.37,192.19,224.37Z" transform="translate(-57.35 -54.46)"/><path id="_Clipping_Path_5" data-name="&lt;Clipping Path&gt;" class="cls-11" d="M199.35,390.8c-1.4-12-4.64-37.44-5.13-40.62a55.62,55.62,0,0,1-.19-9.6s11-18.64,12.86-33.53c.55-4.45,1.05-9.42,1.53-14.34-7.56-.31-23.18-2-37.78-10.22a25.7,25.7,0,0,0-2.45,4.89c-3.84,10.58-1.35,20.13,3.16,33.77s9.08,20.19,7.83,26.36-1.15,14.1,1,20.08c1.27,3.62,6.05,15.43,9.57,25A17.29,17.29,0,0,0,199.35,390.8Z" transform="translate(-57.35 -54.46)"/><g class="cls-17"><path class="cls-18" d="M194.79,295.57c-1.2,8-3.61,3.61-4.42,2s-8.43-11.25-8-7.63,5.62,44.16,8,57c2.06,11,5.28,31.55,7.18,44.6.59-.22,1.18-.46,1.8-.76-1.4-12-4.64-37.44-5.13-40.62a55.62,55.62,0,0,1-.19-9.6s11-18.64,12.86-33.53c.55-4.45,1.05-9.42,1.53-14.34a94.74,94.74,0,0,1-13-1.48C195.21,292.76,195,294.22,194.79,295.57Z" transform="translate(-57.35 -54.46)"/><path class="cls-19" d="M190.55,303.2s2.35,24.63,2.81,33.7" transform="translate(-57.35 -54.46)"/></g><path id="_Clipping_Path_6" data-name="&lt;Clipping Path&gt;" class="cls-20" d="M199.35,390.8c-1.4-12-4.64-37.44-5.13-40.62a55.62,55.62,0,0,1-.19-9.6s11-18.64,12.86-33.53c.55-4.45,1.05-9.42,1.53-14.34-7.56-.31-23.18-2-37.78-10.22a25.7,25.7,0,0,0-2.45,4.89c-3.84,10.58-1.35,20.13,3.16,33.77s9.08,20.19,7.83,26.36-1.15,14.1,1,20.08c1.27,3.62,6.05,15.43,9.57,25A17.29,17.29,0,0,0,199.35,390.8Z" transform="translate(-57.35 -54.46)"/><path id="_Clipping_Path_7" data-name="&lt;Clipping Path&gt;" class="cls-21" d="M167.35,290.08c5,5.35,17.48,15.1,40.2,11.26,1.51-14,2.72-30.52,3.92-34.83,1.37-4.91,4.4-16,4.4-16a57.19,57.19,0,0,0,1-17.44c-1.11-8.41-13.5-10.07-17.49-9.71s-7.15,1-7.15,1-10.9-2.19-14,3.86,6.75,33.17,7.17,36.12-13.33,12.45-17.16,23C167.86,288.29,167.59,289.19,167.35,290.08Z" transform="translate(-57.35 -54.46)"/><g class="cls-22"><path class="cls-18" d="M216.83,233.1c-1.11-8.41-13.5-10.07-17.49-9.71s-7.15,1-7.15,1-.5-.1-1.31-.2l1.1,5.55s12.45,12.05,12.85,18.87-4.82,12.45-6,19.68-2.81,19.27-4,27.3-3.61,3.61-4.42,2-8.43-11.25-8-7.63c.12,1,.6,4.88,1.3,10.21,6.21,2,14.11,2.84,23.91,1.18,1.51-14,2.72-30.52,3.92-34.83,1.37-4.91,4.4-16,4.4-16A57.19,57.19,0,0,0,216.83,233.1Z" transform="translate(-57.35 -54.46)"/></g><path id="_Clipping_Path_8" data-name="&lt;Clipping Path&gt;" class="cls-19" d="M167.35,290.08c5,5.35,17.48,15.1,40.2,11.26,1.51-14,2.72-30.52,3.92-34.83,1.37-4.91,4.4-16,4.4-16a57.19,57.19,0,0,0,1-17.44c-1.11-8.41-13.5-10.07-17.49-9.71s-7.15,1-7.15,1-10.9-2.19-14,3.86,6.75,33.17,7.17,36.12-13.33,12.45-17.16,23C167.86,288.29,167.59,289.19,167.35,290.08Z" transform="translate(-57.35 -54.46)"/><path class="cls-5" d="M186.46,219.61a25.25,25.25,0,0,1,1.93,5.55c.27,2.1,2.53,5.8,5.87,8.73s5.41.15,5.26-3.82-2.23-13.49-2.23-13.49S190.38,220.29,186.46,219.61Z" transform="translate(-57.35 -54.46)"/><path class="cls-5" d="M176.88,204a2.09,2.09,0,0,0-2.44,2.13c-.16,2.49,4.14,3.61,4.14,3.61Z" transform="translate(-57.35 -54.46)"/><path id="_Clipping_Path_9" data-name="&lt;Clipping Path&gt;" class="cls-23" d="M191.9,188.09s-7.19,11-14.72,14.44c0,0,1,12.36,5.37,16.4s11.45,3.27,15.63,0,2.37-23,2.37-23S194.1,192.61,191.9,188.09Z" transform="translate(-57.35 -54.46)"/><g class="cls-24"><path class="cls-18" d="M191.9,188.09l-.2.29.09,1.42a51.53,51.53,0,0,1,4.38,19.9,16.21,16.21,0,0,1-4.62,11.88,13.44,13.44,0,0,0,6.63-2.65c4.18-3.26,2.37-23,2.37-23S194.1,192.61,191.9,188.09Z" transform="translate(-57.35 -54.46)"/></g><path id="_Clipping_Path_10" data-name="&lt;Clipping Path&gt;" class="cls-19" d="M191.9,188.09s-7.19,11-14.72,14.44c0,0,1,12.36,5.37,16.4s11.45,3.27,15.63,0,2.37-23,2.37-23S194.1,192.61,191.9,188.09Z" transform="translate(-57.35 -54.46)"/><path class="cls-19" d="M186.84,201.5a7.37,7.37,0,0,1,0,3.13c-.35,2.06-2.06,2.78.41,3.15" transform="translate(-57.35 -54.46)"/><path class="cls-19" d="M185.16,211s4,1.94,9-3.36" transform="translate(-57.35 -54.46)"/><path class="cls-19" d="M179.55,204.56s1.63-2.6,5.07-1.12" transform="translate(-57.35 -54.46)"/><path class="cls-19" d="M190.92,202.82s4-3.28,7.14-.78" transform="translate(-57.35 -54.46)"/><path class="cls-19" d="M189.66,196.69a5.21,5.21,0,0,1,7-1.2" transform="translate(-57.35 -54.46)"/><circle id="_Ellipse_2" data-name="&lt;Ellipse&gt;" class="cls-11" cx="290.51" cy="191.84" r="92.19" transform="translate(-103.87 50.13) rotate(-18.93)"/><g class="cls-25"><polygon class="cls-26" points="220.67 96.44 230.06 98.39 233.27 101.71 237.44 102.35 238.77 106.31 237.8 108.99 234.95 110.3 227.97 109.16 227.78 108.3 231.08 106 228.81 101.8 222.56 100.95 219.24 98.1 220.67 96.44"/><path class="cls-26" d="M353.75,237.62l-7.45-1.25-9-1.14-6.62,1.47-6.48.09-6.5,3-3.8,1.07-2.35.52L307.64,245l-3.89,2.66-6.57-2.35.17-6.31-4-.69-4.27,1L288,237.43l-.42-3.94-2-1.81-2.9,1.09-.38,2.33-3.58,1L274.73,233l-2.42-4.85,1.88-6.69,6.29-.95,2,1.12,2.56-.57,2.78-2.63,3,.23,5.32,5.77,1.45-.54-1.52-4.82-1.85-2.28-.48-4.15,7.15-5.18-.69-8.13,2.8-3.54,1.69-5.53,2-.9,4.2-4.3-.17-1.75-3.37,1-1-1.57-2.35.53-3.44,1.66,1.09-3.16,7-3.8,1.29-2.3,4,4,2.35,1.49,2.8-1.52-1.9-2.49L312,175l-6.4-4.63-6.15-2.45-5.31.29-3.14-2-3.6-.09-.24,1,.95,6.28,1.33,1.95-.41,7.26L284,180l0-3.13-5-1.14-2.45-1.92-.11-5.58,5.19-5.86-.71-5.22-2.3.74-1.92-1.59-1.35-3.07-1.55.12-.09,3.61-2.26.95-2.72-7.24-2-.69-3.27-.62-3,2.47L265.7,155l1.66,3.44-9-4.06-6.62-4.58-1.71-5.67-5.93-.48-3.65,3.73a33.93,33.93,0,0,1-2.83,2.42,36.92,36.92,0,0,1-4.94,2l0,3.82-4.87,1.31.95,2.25,8.19-.47,5.05,3.58,1.66,7.48-.88,7.14,2,7-3.66,11.8,2.18,15.87,3.91,8.55,4.3,6.22,3.3-.29L253,222.8l-2.28-2.18-2.11-4.46,1.83-.86,4.7,7,3.65,6.36,1.23,5.55,5.15,4,8.45,3.73,11.77.52,4.13,2.45,3.32,2.85,4.37,1.49,5,.24,4.65-1.26s.26,2.19.5,3.25-1.95,5.37-1.95,5.37l-1.4,4.79,2.76,4.32,5.12.88,8.14,5.36,3.27.62.72,3.2.7,1.41a91.78,91.78,0,0,0,40.11-31l-.23-1.58L368,233.12l-3.2-1.31Z" transform="translate(-57.35 -54.46)"/><path class="cls-26" d="M357.23,148.33,354,144.79l-4-4-2.28-6.21,4-.22-.26-2.18-2.83.4,2.11-1.59,2.24-2.06-.48-2.14-3.32-2.84-1.57-4.48a92.25,92.25,0,0,0-111.3-2.14l5.7,2.4-2.14,4.51L236,126l.85,5.87-1.57,1-1.61,2.82,1.07,3.8,3.72-.38-.69,4,3.63-.81,4.44-9.27-.11-3.56,5.88-1.76.93-2.89,6.05-2-.17-3.77,4.44-1.21a23.13,23.13,0,0,1,3.47-2.57,26.71,26.71,0,0,1,3.86.27l3.78,1.85,4.48-1,3.32-3.2,5-.67a5.46,5.46,0,0,0,2.54.34c1.07-.24,3.94-2.45,3.94-2.45l7.05,2.47,3,1.36.71,3.2,3.3-.29.64-2.15,3.06.66.17,1.76-6,3.13,4.67,3.89,8.64,2.56,4.15,3.56,4.8-.61.59-2.37,1.61-.81-6.5-3-3.51.33,2.59-1.47-3.37-3.06,3.58-1,5.27,1.52,2.21,4.89,3,2.25,3.3,5.77,5.46,2.37,1.56,7.05,5.63,2.12.3,2.39,0,2.92,2.14,3.56.85,1.83,3.77-.17.91-4Z" transform="translate(-57.35 -54.46)"/><path class="cls-26" d="M355.23,126.19l.27,1.23-.31,3.65,1.31,2.85,2.54.33.9,4.06-2.8-.5,1.92,11.68-1.52,5.27,3,5.6,3.34,1.94,2.56,11.54,4.77,8.35,4.51,6.17,5.2.19.76-4.65.57-.7a93.36,93.36,0,0,0-1.79-11.34A91.78,91.78,0,0,0,355.23,126.19Z" transform="translate(-57.35 -54.46)"/><polygon class="cls-26" points="248.24 81.35 232.77 78.28 226.63 79.87 226.03 84.26 222.85 82.06 218.39 84.17 219.53 91.31 223.99 93.23 225.86 88.56 229.78 91.05 237.68 95.35 240.34 101.26 247.46 107.07 256.1 103.58 255.17 100.43 252.44 97.22 250.12 88.78 251.45 84.67 248.24 81.35"/><polygon class="cls-26" points="260.82 83.49 257.43 83.34 255.17 86.31 258.04 92.17 260.82 91.56 260.82 83.49"/><polygon class="cls-26" points="281.58 83.13 273.47 80.9 271.4 78.67 269.84 79.69 272.28 83.63 274.8 88.9 278.29 89.47 278.74 88.47 276.1 85.69 282.13 86.6 281.58 83.13"/><polygon class="cls-26" points="236.34 174.09 235.68 175.13 242.51 175.63 245.74 178.05 249.89 177.58 250.86 174.9 245.76 175.13 236.34 174.09"/><polygon class="cls-26" points="256.25 173.92 252.05 176.2 253.07 177.77 258.62 176.53 259.31 174.59 257.44 175.23 256.25 173.92"/><polygon class="cls-20" points="220.67 96.44 230.06 98.39 233.27 101.71 237.44 102.35 238.77 106.31 237.8 108.99 234.95 110.3 227.97 109.16 227.78 108.3 231.08 106 228.81 101.8 222.56 100.95 219.24 98.1 220.67 96.44"/><path class="cls-20" d="M353.75,237.62l-7.45-1.25-9-1.14-6.62,1.47-6.48.09-6.5,3-3.8,1.07-2.35.52L307.64,245l-3.89,2.66-6.57-2.35.17-6.31-4-.69-4.27,1L288,237.43l-.42-3.94-2-1.81-2.9,1.09-.38,2.33-3.58,1L274.73,233l-2.42-4.85,1.88-6.69,6.29-.95,2,1.12,2.56-.57,2.78-2.63,3,.23,5.32,5.77,1.45-.54-1.52-4.82-1.85-2.28-.48-4.15,7.15-5.18-.69-8.13,2.8-3.54,1.69-5.53,2-.9,4.2-4.3-.17-1.75-3.37,1-1-1.57-2.35.53-3.44,1.66,1.09-3.16,7-3.8,1.29-2.3,4,4,2.35,1.49,2.8-1.52-1.9-2.49L312,175l-6.4-4.63-6.15-2.45-5.31.29-3.14-2-3.6-.09-.24,1,.95,6.28,1.33,1.95-.41,7.26L284,180l0-3.13-5-1.14-2.45-1.92-.11-5.58,5.19-5.86-.71-5.22-2.3.74-1.92-1.59-1.35-3.07-1.55.12-.09,3.61-2.26.95-2.72-7.24-2-.69-3.27-.62-3,2.47L265.7,155l1.66,3.44-9-4.06-6.62-4.58-1.71-5.67-5.93-.48-3.65,3.73a33.93,33.93,0,0,1-2.83,2.42,36.92,36.92,0,0,1-4.94,2l0,3.82-4.87,1.31.95,2.25,8.19-.47,5.05,3.58,1.66,7.48-.88,7.14,2,7-3.66,11.8,2.18,15.87,3.91,8.55,4.3,6.22,3.3-.29L253,222.8l-2.28-2.18-2.11-4.46,1.83-.86,4.7,7,3.65,6.36,1.23,5.55,5.15,4,8.45,3.73,11.77.52,4.13,2.45,3.32,2.85,4.37,1.49,5,.24,4.65-1.26s.26,2.19.5,3.25-1.95,5.37-1.95,5.37l-1.4,4.79,2.76,4.32,5.12.88,8.14,5.36,3.27.62.72,3.2.7,1.41a91.78,91.78,0,0,0,40.11-31l-.23-1.58L368,233.12l-3.2-1.31Z" transform="translate(-57.35 -54.46)"/><path class="cls-20" d="M357.23,148.33,354,144.79l-4-4-2.28-6.21,4-.22-.26-2.18-2.83.4,2.11-1.59,2.24-2.06-.48-2.14-3.32-2.84-1.57-4.48a92.25,92.25,0,0,0-111.3-2.14l5.7,2.4-2.14,4.51L236,126l.85,5.87-1.57,1-1.61,2.82,1.07,3.8,3.72-.38-.69,4,3.63-.81,4.44-9.27-.11-3.56,5.88-1.76.93-2.89,6.05-2-.17-3.77,4.44-1.21a23.13,23.13,0,0,1,3.47-2.57,26.71,26.71,0,0,1,3.86.27l3.78,1.85,4.48-1,3.32-3.2,5-.67a5.46,5.46,0,0,0,2.54.34c1.07-.24,3.94-2.45,3.94-2.45l7.05,2.47,3,1.36.71,3.2,3.3-.29.64-2.15,3.06.66.17,1.76-6,3.13,4.67,3.89,8.64,2.56,4.15,3.56,4.8-.61.59-2.37,1.61-.81-6.5-3-3.51.33,2.59-1.47-3.37-3.06,3.58-1,5.27,1.52,2.21,4.89,3,2.25,3.3,5.77,5.46,2.37,1.56,7.05,5.63,2.12.3,2.39,0,2.92,2.14,3.56.85,1.83,3.77-.17.91-4Z" transform="translate(-57.35 -54.46)"/><path class="cls-20" d="M355.23,126.19l.27,1.23-.31,3.65,1.31,2.85,2.54.33.9,4.06-2.8-.5,1.92,11.68-1.52,5.27,3,5.6,3.34,1.94,2.56,11.54,4.77,8.35,4.51,6.17,5.2.19.76-4.65.57-.7a93.36,93.36,0,0,0-1.79-11.34A91.78,91.78,0,0,0,355.23,126.19Z" transform="translate(-57.35 -54.46)"/><polygon class="cls-20" points="248.24 81.35 232.77 78.28 226.63 79.87 226.03 84.26 222.85 82.06 218.39 84.17 219.53 91.31 223.99 93.23 225.86 88.56 229.78 91.05 237.68 95.35 240.34 101.26 247.46 107.07 256.1 103.58 255.17 100.43 252.44 97.22 250.12 88.78 251.45 84.67 248.24 81.35"/><polygon class="cls-20" points="260.82 83.49 257.43 83.34 255.17 86.31 258.04 92.17 260.82 91.56 260.82 83.49"/><polygon class="cls-20" points="281.58 83.13 273.47 80.9 271.4 78.67 269.84 79.69 272.28 83.63 274.8 88.9 278.29 89.47 278.74 88.47 276.1 85.69 282.13 86.6 281.58 83.13"/><polygon class="cls-20" points="236.34 174.09 235.68 175.13 242.51 175.63 245.74 178.05 249.89 177.58 250.86 174.9 245.76 175.13 236.34 174.09"/><polygon class="cls-20" points="256.25 173.92 252.05 176.2 253.07 177.77 258.62 176.53 259.31 174.59 257.44 175.23 256.25 173.92"/><path class="cls-27" d="M318.86,102.54a92.9,92.9,0,0,1-110.4,131.22,92.86,92.86,0,1,0,110.4-131.22Z" transform="translate(-57.35 -54.46)"/></g><circle id="_Ellipse_3" data-name="&lt;Ellipse&gt;" class="cls-20" cx="290.51" cy="191.84" r="92.19" transform="translate(-103.87 50.13) rotate(-18.93)"/><circle class="cls-28" cx="290.51" cy="191.84" r="92.19" transform="translate(-103.87 50.13) rotate(-18.93)"/><path id="_Clipping_Path_11" data-name="&lt;Clipping Path&gt;" class="cls-23" d="M198.55,220.54s-11.55-.21-17.87,4-4.94,7.48-3.11,10.91,6.85,4,15.74,1.83,19.94-8.05,26.87-12.36,29.21-28.64,29.21-28.64l5.69-3.18s6.49-1.44,8-2.21-.57-1.58-1.79-1.31-5.14.62-5.14.62,7.15-3.32,7.69-4.72.36-2.21-1.29-1-7.32,2.91-7.32,2.91,8.66-6.26,8.84-7.37-.41-1.83-1.65-.7-9.19,5.6-9.19,5.6l5.69-7.58s.18-2.27-2-.24a56.12,56.12,0,0,1-5.42,4.86,35.37,35.37,0,0,1-4.09,1.76,5.11,5.11,0,0,1,.54-3.32c.81-1.24,2.53-2,.93-4.46-.45-.7-1,.22-1.35,1.57s-4.13,5.4-4.15,6.25a60.78,60.78,0,0,0,1.64,6.45S231,203.54,224.17,209.31s-8.91,6.88-8.91,6.88Z" transform="translate(-57.35 -54.46)"/><g class="cls-29"><path class="cls-18" d="M193.31,237.25c8.89-2.18,19.94-8.05,26.87-12.36,5.74-3.57,22-20.88,27.43-26.71l-.1-.42s-18.71,17.91-26.67,23.08-25.47,12.34-31.44,13.94a31.88,31.88,0,0,1-11.83.64C179.39,238.85,184.42,239.44,193.31,237.25Z" transform="translate(-57.35 -54.46)"/></g><path id="_Clipping_Path_12" data-name="&lt;Clipping Path&gt;" class="cls-19" d="M198.55,220.54s-11.55-.21-17.87,4-4.94,7.48-3.11,10.91,6.85,4,15.74,1.83,19.94-8.05,26.87-12.36,29.21-28.64,29.21-28.64l5.69-3.18s6.49-1.44,8-2.21-.57-1.58-1.79-1.31-5.14.62-5.14.62,7.15-3.32,7.69-4.72.36-2.21-1.29-1-7.32,2.91-7.32,2.91,8.66-6.26,8.84-7.37-.41-1.83-1.65-.7-9.19,5.6-9.19,5.6l5.69-7.58s.18-2.27-2-.24a56.12,56.12,0,0,1-5.42,4.86,35.37,35.37,0,0,1-4.09,1.76,5.11,5.11,0,0,1,.54-3.32c.81-1.24,2.53-2,.93-4.46-.45-.7-1,.22-1.35,1.57s-4.13,5.4-4.15,6.25a60.78,60.78,0,0,0,1.64,6.45S231,203.54,224.17,209.31s-8.91,6.88-8.91,6.88Z" transform="translate(-57.35 -54.46)"/><path class="cls-16" d="M203,410.9l-5.15,2.64-4.69-5.76c-1.24,3.32-4.22,7-4.14,8.33.1,1.68,8.7,7.05,11.81,10.38s9.23,5.41,9.77,3.57-4.95-7-5.88-11.86C204.35,416.41,203.69,413.8,203,410.9Z" transform="translate(-57.35 -54.46)"/><text class="cls-30" transform="translate(169.12 296.4) rotate(-19.8)">Española</text><text class="cls-31" transform="matrix(0.84, -0.54, 0.54, 0.84, 77.67, 126.01)">中文</text><text class="cls-32" transform="translate(242.41 27.2) rotate(-0.15)">عربي</text></g></svg>