<svg xmlns="http://www.w3.org/2000/svg" xmlns:xlink="http://www.w3.org/1999/xlink" viewBox="0 0 395.57 347.93"><defs><style>.cls-1,.cls-3,.cls-5,.cls-7,.cls-9{fill:#fff;}.cls-1,.cls-10,.cls-11,.cls-13{stroke:#263238;}.cls-1,.cls-10,.cls-11{stroke-linecap:round;stroke-linejoin:round;}.cls-11,.cls-2{fill:#fb0;}.cls-3{opacity:0.7;}.cls-4,.cls-7{opacity:0.3;}.cls-10,.cls-6{fill:none;}.cls-6{stroke:#fb0;}.cls-13,.cls-6{stroke-miterlimit:10;}.cls-8{clip-path:url(#clip-path);}.cls-9{opacity:0.5;}.cls-12{clip-path:url(#clip-path-2);}.cls-13{fill:#263238;}.cls-14{fill:#efb30f;}</style><clipPath id="clip-path" transform="translate(-49.12 -77.21)"><path id="_Clipping_Path_" data-name="&lt;Clipping Path&gt;" class="cls-1" d="M441,300s-8,.4-34.11-20.47-27.7-32.91-66.23-53-57-22.07-58.2-17.66-.4,189.45,4.42,193.46,36.12,2,60.6-2,51-1.2,60.21,2S444.19,414,444.19,414"/></clipPath><clipPath id="clip-path-2" transform="translate(-49.12 -77.21)"><path id="_Clipping_Path_2" data-name="&lt;Clipping Path&gt;" class="cls-1" d="M413.54,285.11s-8-5.62-17.66-21.27S363,214.47,359,197.61s-4.41-22.47-6.82-32.11-8.43-14.45-7.22-26.49-2.41-18.06-8-18.86-14.05-1.61-18.46,19.26,3.61,50.17,6.42,63.82,2.81,25.69-2.81,40.14-11.64,33.71-6,62.21,23.68,36.93,37.73,42.95"/></clipPath></defs><title>offline</title><g id="Background_Simple" data-name="Background Simple"><path class="cls-2" d="M400.89,221.37a433.47,433.47,0,0,0-11-42.53c-13.12-40.53-38.39-81.79-80.6-96.4-31.15-10.79-64.41-4.54-90.12,15.48C178.88,129.31,150,172.69,105.69,199.68c-37,22.54-55.78,59.84-42,113.44s56.46,85.59,102.41,82.77c38.21-2.34,78.29,1.93,111.78,21.76,29.93,17.72,81.86,4,124.09-41.69,24.6-26.63,21.43-61.25,12.54-93.75C409,262.18,405.25,241.7,400.89,221.37Z" transform="translate(-49.12 -77.21)"/><path class="cls-3" d="M400.89,221.37a433.47,433.47,0,0,0-11-42.53c-13.12-40.53-38.39-81.79-80.6-96.4-31.15-10.79-64.41-4.54-90.12,15.48C178.88,129.31,150,172.69,105.69,199.68c-37,22.54-55.78,59.84-42,113.44s56.46,85.59,102.41,82.77c38.21-2.34,78.29,1.93,111.78,21.76,29.93,17.72,81.86,4,124.09-41.69,24.6-26.63,21.43-61.25,12.54-93.75C409,262.18,405.25,241.7,400.89,221.37Z" transform="translate(-49.12 -77.21)"/></g><g id="Plants"><path class="cls-2" d="M134.83,296.41s-18.46,14.66-27.28,29.93S99,352,99,352s26-18.63,31.93-31.2A45.12,45.12,0,0,0,134.83,296.41Z" transform="translate(-49.12 -77.21)"/><path class="cls-2" d="M56.83,276s-4,26.32,5.64,42.52S98.8,351.54,98.8,351.54s3.83-11.82-10.13-29.79S56.83,276,56.83,276Z" transform="translate(-49.12 -77.21)"/><path class="cls-2" d="M100.2,322.36a90.19,90.19,0,0,0-12.82-41.11c-12.57-20.87-27.63-42-31.17-51a139.61,139.61,0,0,1-5.69-19.08s-5.24,17.35,4.55,40.44S100.2,322.36,100.2,322.36Z" transform="translate(-49.12 -77.21)"/><path class="cls-2" d="M99.25,314.05s14.84-18.88,25.09-40.46,8.61-44,8.61-44S113.71,254.55,107.59,274A238.08,238.08,0,0,0,99.25,314.05Z" transform="translate(-49.12 -77.21)"/><path class="cls-2" d="M96.32,271.38s-3.49-31-11.85-48.21S59,179.38,59,179.38s-2.1,29.77,11.35,53.52S96.32,271.38,96.32,271.38Z" transform="translate(-49.12 -77.21)"/><path class="cls-2" d="M95.62,253.57s17.4-25.9,22.15-44.43,8.89-49.87,8.89-49.87-20.85,21.34-25.95,48.15S95.62,253.57,95.62,253.57Z" transform="translate(-49.12 -77.21)"/><path class="cls-2" d="M104.26,141.76s-16.33,12-13.75,37.32,5.06,33.81,5.06,33.81C93,195.59,104.26,141.76,104.26,141.76Z" transform="translate(-49.12 -77.21)"/><g class="cls-4"><path class="cls-5" d="M134.83,296.41s-18.46,14.66-27.28,29.93S99,352,99,352s26-18.63,31.93-31.2A45.12,45.12,0,0,0,134.83,296.41Z" transform="translate(-49.12 -77.21)"/><path class="cls-5" d="M56.83,276s-4,26.32,5.64,42.52S98.8,351.54,98.8,351.54s3.83-11.82-10.13-29.79S56.83,276,56.83,276Z" transform="translate(-49.12 -77.21)"/><path class="cls-5" d="M100.2,322.36a90.19,90.19,0,0,0-12.82-41.11c-12.57-20.87-27.63-42-31.17-51a139.61,139.61,0,0,1-5.69-19.08s-5.24,17.35,4.55,40.44S100.2,322.36,100.2,322.36Z" transform="translate(-49.12 -77.21)"/><path class="cls-5" d="M99.25,314.05s14.84-18.88,25.09-40.46,8.61-44,8.61-44S113.71,254.55,107.59,274A238.08,238.08,0,0,0,99.25,314.05Z" transform="translate(-49.12 -77.21)"/><path class="cls-5" d="M96.32,271.38s-3.49-31-11.85-48.21S59,179.38,59,179.38s-2.1,29.77,11.35,53.52S96.32,271.38,96.32,271.38Z" transform="translate(-49.12 -77.21)"/><path class="cls-5" d="M95.62,253.57s17.4-25.9,22.15-44.43,8.89-49.87,8.89-49.87-20.85,21.34-25.95,48.15S95.62,253.57,95.62,253.57Z" transform="translate(-49.12 -77.21)"/><path class="cls-5" d="M104.26,141.76s-16.33,12-13.75,37.32,5.06,33.81,5.06,33.81C93,195.59,104.26,141.76,104.26,141.76Z" transform="translate(-49.12 -77.21)"/></g><path class="cls-6" d="M98.5,360s1.5-4,1.5-34.5S96,283,96,253s-2-58-2-58" transform="translate(-49.12 -77.21)"/><path class="cls-6" d="M96.22,268.43S85.34,245,80.74,236.23c-4.26-8.13-9.2-21.33-9.2-21.33" transform="translate(-49.12 -77.21)"/><path class="cls-6" d="M72.38,272.19s24.28,45.16,27.82,50.17" transform="translate(-49.12 -77.21)"/><line class="cls-6" x1="50.86" y1="233.03" x2="70.51" y2="186.2"/><path class="cls-6" d="M76.56,322.37c4.6,7.52,23.42,27.18,23.42,27.18s12.54-13.38,20.49-25.51" transform="translate(-49.12 -77.21)"/><line class="cls-6" x1="47.1" y1="171.98" x2="59.22" y2="131"/><polygon class="cls-2" points="62.75 277.5 35.39 277.5 35.39 287.28 37.97 287.28 41.3 308.78 56.84 308.78 60.17 287.28 62.75 287.28 62.75 277.5"/><polygon class="cls-7" points="62.75 277.5 35.39 277.5 35.39 287.28 37.97 287.28 41.3 308.78 56.84 308.78 60.17 287.28 62.75 287.28 62.75 277.5"/></g><g id="Device"><path id="_Path_" data-name="&lt;Path&gt;" class="cls-1" d="M152.27,257.1s-15,.83-19.14,7.7,1.25,13.94,9.15,16.86,10.62,1.66,11.66-.21S152.27,257.1,152.27,257.1Z" transform="translate(-49.12 -77.21)"/><path id="_Clipping_Path_3" data-name="&lt;Clipping Path&gt;" class="cls-5" d="M441,300s-8,.4-34.11-20.47-27.7-32.91-66.23-53-57-22.07-58.2-17.66-.4,189.45,4.42,193.46,36.12,2,60.6-2,51-1.2,60.21,2S444.19,414,444.19,414" transform="translate(-49.12 -77.21)"/><g class="cls-8"><path class="cls-2" d="M330.47,393c-6.51-5-11-25.07-4.51-35.09s15-6.52,22.06-6.52-10-8.52-17-20.56,23.57-76.7,19.56-92.75a24.8,24.8,0,0,0-4.58-8.68c-1.69-.93-3.45-1.88-5.31-2.85-38.53-20.07-57-22.07-58.2-17.66s-.4,189.45,4.42,193.46,36.12,2,60.6-2c2.69-.44,5.39-.79,8.1-1.07C345.24,397.72,333.82,395.54,330.47,393Z" transform="translate(-49.12 -77.21)"/><path class="cls-9" d="M330.47,393c-6.51-5-11-25.07-4.51-35.09s15-6.52,22.06-6.52-10-8.52-17-20.56,23.57-76.7,19.56-92.75a24.8,24.8,0,0,0-4.58-8.68c-1.69-.93-3.45-1.88-5.31-2.85-38.53-20.07-57-22.07-58.2-17.66s-.4,189.45,4.42,193.46,36.12,2,60.6-2c2.69-.44,5.39-.79,8.1-1.07C345.24,397.72,333.82,395.54,330.47,393Z" transform="translate(-49.12 -77.21)"/></g><path id="_Clipping_Path_4" data-name="&lt;Clipping Path&gt;" class="cls-10" d="M441,300s-8,.4-34.11-20.47-27.7-32.91-66.23-53-57-22.07-58.2-17.66-.4,189.45,4.42,193.46,36.12,2,60.6-2,51-1.2,60.21,2S444.19,414,444.19,414" transform="translate(-49.12 -77.21)"/><path id="_Path_2" data-name="&lt;Path&gt;" class="cls-11" d="M147.7,176.76s-12.28-2.91-17.69,6.87,8.11,21.23,16.65,23.94Z" transform="translate(-49.12 -77.21)"/><path id="_Path_3" data-name="&lt;Path&gt;" class="cls-1" d="M154.77,177.18c-.09-2.14-6.54-.9-7.68-.74a13.7,13.7,0,0,0-11.79,11.79c-1.17,9,7.38,18.89,15.89,21l4.82,1.21S154.77,177.21,154.77,177.18Z" transform="translate(-49.12 -77.21)"/><path id="_Path_4" data-name="&lt;Path&gt;" class="cls-11" d="M144,302.68s-10.33.41-12.45,9.32,11.08,15,18.41,15.22Z" transform="translate(-49.12 -77.21)"/><path id="_Path_5" data-name="&lt;Path&gt;" class="cls-1" d="M152.69,300.39c-.54-1.67-8.37,1.79-9.24,2.17a11.22,11.22,0,0,0-6.7,11.9c1.06,7.38,10,13.28,17.16,13.09l4.07-.11S152.7,300.41,152.69,300.39Z" transform="translate(-49.12 -77.21)"/><path id="_Path_6" data-name="&lt;Path&gt;" class="cls-1" d="M152.27,220.47s-15,.83-19.14,7.7,1.25,13.94,9.15,16.86,10.62,1.66,11.66-.21S152.27,220.47,152.27,220.47Z" transform="translate(-49.12 -77.21)"/><path id="_Path_7" data-name="&lt;Path&gt;" class="cls-1" d="M145,267.09s5.62,12.9,5.2,23.31-12.28,13.52-16.65,11.65-6.24-24.35-3.33-31.84,8.54-8.12,8.54-8.12" transform="translate(-49.12 -77.21)"/><path id="_Path_8" data-name="&lt;Path&gt;" class="cls-11" d="M130.63,279.37S129,292.48,129,298.1s1.24,4.37,4.16-2.5S136.25,273.33,130.63,279.37Z" transform="translate(-49.12 -77.21)"/><path id="_Path_9" data-name="&lt;Path&gt;" class="cls-1" d="M145,230.46s5.62,12.9,5.2,23.31-12.28,13.53-16.65,11.65-6.24-24.35-3.33-31.84,8.54-8.12,8.54-8.12" transform="translate(-49.12 -77.21)"/><path id="_Path_10" data-name="&lt;Path&gt;" class="cls-11" d="M130.63,242.74S129,255.85,129,261.47s1.24,4.37,4.16-2.5S136.25,236.7,130.63,242.74Z" transform="translate(-49.12 -77.21)"/><path id="_Path_11" data-name="&lt;Path&gt;" class="cls-10" d="M383.19,396.69A101.55,101.55,0,0,1,379.57,369" transform="translate(-49.12 -77.21)"/><path id="_Path_12" data-name="&lt;Path&gt;" class="cls-10" d="M387.2,361.77s-.4,17.26,2,23.28" transform="translate(-49.12 -77.21)"/><path id="_Path_13" data-name="&lt;Path&gt;" class="cls-10" d="M334.62,346.12s16.46,11.24,36.12,11.24" transform="translate(-49.12 -77.21)"/><path id="_Clipping_Path_5" data-name="&lt;Clipping Path&gt;" class="cls-5" d="M413.54,285.11s-8-5.62-17.66-21.27S363,214.47,359,197.61s-4.41-22.47-6.82-32.11-8.43-14.45-7.22-26.49-2.41-18.06-8-18.86-14.05-1.61-18.46,19.26,3.61,50.17,6.42,63.82,2.81,25.69-2.81,40.14-11.64,33.71-6,62.21,23.68,36.93,37.73,42.95" transform="translate(-49.12 -77.21)"/><g class="cls-12"><path class="cls-2" d="M334.78,213.42c-1.89-23.12-9.44-45.31-11.33-62.3-1.47-13.27,3.39-25.67,5.59-30.47-4,1.67-8,6.43-10.62,18.76-4.42,20.87,3.61,50.17,6.42,63.82s2.81,25.69-2.81,40.14-11.64,33.71-6,62.21a59,59,0,0,0,7.76,20.36C310.67,285.85,336.62,236,334.78,213.42Z" transform="translate(-49.12 -77.21)"/><path class="cls-9" d="M334.78,213.42c-1.89-23.12-9.44-45.31-11.33-62.3-1.47-13.27,3.39-25.67,5.59-30.47-4,1.67-8,6.43-10.62,18.76-4.42,20.87,3.61,50.17,6.42,63.82s2.81,25.69-2.81,40.14-11.64,33.71-6,62.21a59,59,0,0,0,7.76,20.36C310.67,285.85,336.62,236,334.78,213.42Z" transform="translate(-49.12 -77.21)"/></g><path id="_Clipping_Path_6" data-name="&lt;Clipping Path&gt;" class="cls-10" d="M413.54,285.11s-8-5.62-17.66-21.27S363,214.47,359,197.61s-4.41-22.47-6.82-32.11-8.43-14.45-7.22-26.49-2.41-18.06-8-18.86-14.05-1.61-18.46,19.26,3.61,50.17,6.42,63.82,2.81,25.69-2.81,40.14-11.64,33.71-6,62.21,23.68,36.93,37.73,42.95" transform="translate(-49.12 -77.21)"/><path class="cls-10" d="M349.77,165.59s-2.92-3.64-10.93.73" transform="translate(-49.12 -77.21)"/><path class="cls-10" d="M339.57,170.32s5.83-3.64,10.56-.36" transform="translate(-49.12 -77.21)"/><path class="cls-10" d="M352,173.6a61.33,61.33,0,0,1-7.65.36" transform="translate(-49.12 -77.21)"/><path id="_Path_14" data-name="&lt;Path&gt;" class="cls-11" d="M344.38,147.17l-2.5-.46a11.05,11.05,0,0,1-9-11.15,53.15,53.15,0,0,1,.7-7.26c1.6-9.63,2-13.24,6-12.44s6.42,2,6.42,7.23S344.38,147.17,344.38,147.17Z" transform="translate(-49.12 -77.21)"/><rect id="_Rectangle_" data-name="&lt;Rectangle&gt;" class="cls-13" x="100.96" y="39.19" width="167.9" height="302.59" rx="6.75" ry="6.75"/><path class="cls-5" d="M245.64,134.48h-20.9a2.15,2.15,0,0,1-2.15-2.15h0a2.14,2.14,0,0,1,2.15-2.14h20.9a2.14,2.14,0,0,1,2.14,2.14h0A2.14,2.14,0,0,1,245.64,134.48Z" transform="translate(-49.12 -77.21)"/><path id="_Path_15" data-name="&lt;Path&gt;" class="cls-1" d="M307.37,392H160.69V134.72h34.77l3.91,3.25a7.6,7.6,0,0,0,4.86,1.75h61.34a7.63,7.63,0,0,0,5-1.89l3.53-3.11h33.24Z" transform="translate(-49.12 -77.21)"/><path class="cls-5" d="M238.72,399.87a3.34,3.34,0,1,0-3.34,3.34A3.34,3.34,0,0,0,238.72,399.87Z" transform="translate(-49.12 -77.21)"/><path class="cls-14" d="M240.05,216.57a4.71,4.71,0,1,1-4.7-5A4.83,4.83,0,0,1,240.05,216.57Z" transform="translate(-49.12 -77.21)"/><path class="cls-14" d="M225.92,210.25a12.53,12.53,0,0,1,18.84-.38c2.42,2.55,6.15-1.42,3.74-4a17.66,17.66,0,0,0-26.32.39c-2.33,2.63,1.41,6.59,3.74,4Z" transform="translate(-49.12 -77.21)"/><path class="cls-14" d="M209.83,187.17c7.11-6.6,15.62-10.77,25.17-10.86a36.25,36.25,0,0,1,25.79,10.28c2.5,2.45,6.24-1.51,3.74-4A41.6,41.6,0,0,0,235,170.71c-11,.1-20.73,4.92-28.9,12.5-2.57,2.38,1.19,6.32,3.74,4Z" transform="translate(-49.12 -77.21)"/><path class="cls-14" d="M216.2,200a24.88,24.88,0,0,1,38-.82c2.39,2.57,6.12-1.39,3.73-4a29.95,29.95,0,0,0-45.46.83c-2.29,2.66,1.44,6.62,3.74,4Z" transform="translate(-49.12 -77.21)"/><path class="cls-14" d="M240.55,290.07a4.71,4.71,0,1,1-4.7-5A4.83,4.83,0,0,1,240.55,290.07Z" transform="translate(-49.12 -77.21)"/><path class="cls-14" d="M226.42,283.75a12.53,12.53,0,0,1,18.84-.38c2.42,2.55,6.15-1.42,3.74-4a17.66,17.66,0,0,0-26.32.39c-2.33,2.63,1.41,6.59,3.74,4Z" transform="translate(-49.12 -77.21)"/><path class="cls-14" d="M216.7,273.48a24.88,24.88,0,0,1,38-.82c2.39,2.57,6.12-1.39,3.73-4a29.95,29.95,0,0,0-45.46.83c-2.29,2.66,1.44,6.62,3.74,4Z" transform="translate(-49.12 -77.21)"/><path class="cls-14" d="M240.3,349.32a4.71,4.71,0,1,1-4.7-5A4.83,4.83,0,0,1,240.3,349.32Z" transform="translate(-49.12 -77.21)"/><path class="cls-14" d="M226.17,343a12.52,12.52,0,0,1,18.84-.38c2.42,2.55,6.15-1.42,3.74-4a17.66,17.66,0,0,0-26.32.39c-2.33,2.63,1.41,6.59,3.74,4Z" transform="translate(-49.12 -77.21)"/></g></svg>