<svg xmlns="http://www.w3.org/2000/svg" viewBox="0 0 424.77 384.21"><defs><style>.cls-1,.cls-6{fill:#fb0;}.cls-2,.cls-3,.cls-7{fill:#fff;}.cls-2{opacity:0.7;}.cls-3{opacity:0.5;}.cls-11,.cls-12,.cls-13,.cls-14,.cls-4,.cls-8,.cls-9{fill:none;}.cls-12,.cls-13,.cls-4,.cls-5,.cls-6,.cls-7,.cls-8,.cls-9{stroke:#263238;}.cls-11,.cls-12,.cls-13,.cls-14,.cls-4,.cls-5,.cls-6,.cls-7,.cls-9{stroke-linecap:round;stroke-linejoin:round;}.cls-4{stroke-width:0.75px;}.cls-10,.cls-5{fill:#263238;}.cls-8{stroke-miterlimit:10;stroke-width:0.5px;}.cls-11,.cls-14{stroke:#fff;}.cls-12,.cls-14{stroke-width:2px;}.cls-13{stroke-width:1.5px;}</style></defs><title>polyclinics</title><g id="Background_Simple" data-name="Background Simple"><path class="cls-1" d="M137.65,109S90.09,155.09,76,207.38s6.29,107.18,54.22,137.56,111.88,4,175.48,12.68,122.58-16.06,130.45-79.8-38.14-72-65.88-134S252.16,6.82,137.65,109Z" transform="translate(-37.39 -58.65)"/><path class="cls-2" d="M137.65,109S90.09,155.09,76,207.38s6.29,107.18,54.22,137.56,111.88,4,175.48,12.68,122.58-16.06,130.45-79.8-38.14-72-65.88-134S252.16,6.82,137.65,109Z" transform="translate(-37.39 -58.65)"/></g><g id="Floor"><ellipse class="cls-1" cx="218.1" cy="349.94" rx="193" ry="34.28"/><ellipse class="cls-3" cx="218.1" cy="349.94" rx="193" ry="34.28"/></g><g id="Plants"><path class="cls-1" d="M444.74,231.33s0-4.2-5.88-10.09-9.67-9.24-9.67-9.24-2.94,9.66,2.52,15.55a103.82,103.82,0,0,0,13,11.34Z" transform="translate(-37.39 -58.65)"/><path class="cls-1" d="M436.2,257.57s0-4.2-5.88-10.08-9.66-9.25-9.66-9.25-3,9.67,2.52,15.55a103.31,103.31,0,0,0,13,11.34Z" transform="translate(-37.39 -58.65)"/><path class="cls-1" d="M444.37,238.49s.44-4.18,6.92-9.41,10.58-8.17,10.58-8.17,1.91,9.92-4.15,15.19A103.68,103.68,0,0,1,443.57,246Z" transform="translate(-37.39 -58.65)"/><path class="cls-1" d="M434.06,269.48s.88-4.11,7.86-8.63,11.39-7,11.39-7,.85,10.07-5.72,14.68a104.21,104.21,0,0,1-15.12,8.36Z" transform="translate(-37.39 -58.65)"/><path class="cls-1" d="M436,303.27s0-4.21,5.88-10.09,9.66-9.24,9.66-9.24,2.94,9.66-2.52,15.54a102.89,102.89,0,0,1-13,11.35Z" transform="translate(-37.39 -58.65)"/><path class="cls-1" d="M435.9,311.51s.59-4.16-4.39-10.82-8.25-10.52-8.25-10.52-4.29,9.15.28,15.75A103.2,103.2,0,0,0,434.82,319Z" transform="translate(-37.39 -58.65)"/><path class="cls-1" d="M430.1,336s0-4.2,5.88-10.08,9.66-9.24,9.66-9.24,2.95,9.66-2.52,15.54a102.89,102.89,0,0,1-13,11.35Z" transform="translate(-37.39 -58.65)"/><path class="cls-1" d="M434,358.12s-1.07-4.07,3.13-11.25,7-11.39,7-11.39,5.29,8.6,1.5,15.68a104,104,0,0,1-9.73,14.27Z" transform="translate(-37.39 -58.65)"/><path class="cls-4" d="M445.27,230.25a118.12,118.12,0,0,1-1.61,13.05c-2.32,12-8.14,19.76-10.46,30.62s4.35,24.83,2.56,38.77-7.21,21.69-5.66,31,9.87,35.4,9.87,35.4" transform="translate(-37.39 -58.65)"/><line class="cls-4" x1="406.93" y1="182.63" x2="413.27" y2="177.76"/><line class="cls-4" x1="407.22" y1="177.03" x2="404.57" y2="172.31"/><path class="cls-4" d="M433.55,273.42s5.31-4,10.76-8" transform="translate(-37.39 -58.65)"/><path class="cls-4" d="M435.92,264.39a82.45,82.45,0,0,0-9.15-13.68" transform="translate(-37.39 -58.65)"/><path class="cls-4" d="M436.2,309.24a65.52,65.52,0,0,1,11.36-15.18" transform="translate(-37.39 -58.65)"/><path class="cls-4" d="M435.17,315.14a73.79,73.79,0,0,0-5.75-10.91c-3.09-4.57-3.54-5.16-3.54-5.16" transform="translate(-37.39 -58.65)"/><path class="cls-4" d="M430.1,343.68a69.93,69.93,0,0,1,4.78-9.67,62.09,62.09,0,0,1,6.19-8.11" transform="translate(-37.39 -58.65)"/><path class="cls-4" d="M435.94,365.43a18,18,0,0,1,1.59-9.3c2.21-4.28,4.72-9.88,5.75-12.09" transform="translate(-37.39 -58.65)"/><path class="cls-1" d="M406.22,287.46s-.46-2.63,2.59-7,5.06-6.85,5.06-6.85,2.89,5.75.11,10a66.18,66.18,0,0,1-6.94,8.53Z" transform="translate(-37.39 -58.65)"/><path class="cls-1" d="M414.42,303s-.45-2.63,2.6-7,5.05-6.85,5.05-6.85,2.9,5.74.11,10a65.72,65.72,0,0,1-6.94,8.52Z" transform="translate(-37.39 -58.65)"/><path class="cls-1" d="M407.23,291.91s-.73-2.57-5.36-5.15-7.53-4-7.53-4-.11,6.43,4.26,9.07a65.55,65.55,0,0,0,9.95,4.68Z" transform="translate(-37.39 -58.65)"/><path class="cls-1" d="M417.06,310.22s-1-2.48-5.87-4.55-7.9-3.16-7.9-3.16.56,6.4,5.18,8.58a66.08,66.08,0,0,0,10.39,3.6Z" transform="translate(-37.39 -58.65)"/><path class="cls-1" d="M419.51,331.62s-.45-2.63-4.78-5.68-7.07-4.75-7.07-4.75-.79,6.38,3.27,9.48a66.76,66.76,0,0,0,9.4,5.7Z" transform="translate(-37.39 -58.65)"/><path class="cls-1" d="M420.47,336.78s-.83-2.54,1.58-7.26,4-7.49,4-7.49,3.68,5.27,1.53,9.9a65.69,65.69,0,0,1-5.65,9.43Z" transform="translate(-37.39 -58.65)"/><path class="cls-1" d="M427.85,358s.31-2.66,4.45-6,6.78-5.14,6.78-5.14,1.16,6.32-2.72,9.64a65.13,65.13,0,0,1-9.06,6.23Z" transform="translate(-37.39 -58.65)"/><path class="cls-1" d="M426.76,351.48s-.46-2.63-4.78-5.68-7.07-4.75-7.07-4.75-.79,6.38,3.27,9.47a65.64,65.64,0,0,0,9.4,5.71Z" transform="translate(-37.39 -58.65)"/><path class="cls-1" d="M426.7,365.81s.23-2.67-3.19-6.72-5.63-6.38-5.63-6.38-2.38,6,.77,10a65.27,65.27,0,0,0,7.65,7.89Z" transform="translate(-37.39 -58.65)"/><path class="cls-4" d="M405.77,286.85a78.21,78.21,0,0,0,2.42,8c2.77,7.28,7.25,11.51,9.89,18.07s0,16,2.6,24.59,6.88,12.81,6.92,18.81S425.27,379,425.27,379" transform="translate(-37.39 -58.65)"/><line class="cls-4" x1="370.18" y1="235.01" x2="365.68" y2="232.64"/><line class="cls-4" x1="369.39" y1="231.53" x2="370.54" y2="228.28"/><path class="cls-4" d="M417.81,312.64s-3.77-1.92-7.62-3.82" transform="translate(-37.39 -58.65)"/><path class="cls-4" d="M415.21,306.91a61.14,61.14,0,0,1,4.38-9.24" transform="translate(-37.39 -58.65)"/><path class="cls-4" d="M420,335.39a42,42,0,0,0-8.77-8.29" transform="translate(-37.39 -58.65)"/><path class="cls-4" d="M421.32,339a46.88,46.88,0,0,1,2.42-7.47c1.44-3.2,1.66-3.61,1.66-3.61" transform="translate(-37.39 -58.65)"/><path class="cls-4" d="M427.39,360.88a39.52,39.52,0,0,1,4.85-5,26.13,26.13,0,0,0,3.14-2.74" transform="translate(-37.39 -58.65)"/><path class="cls-4" d="M427.6,356.32a44.71,44.71,0,0,0-4.05-5.54,39.77,39.77,0,0,0-4.76-4.41" transform="translate(-37.39 -58.65)"/><path class="cls-4" d="M426.3,370.6a11.48,11.48,0,0,0-2-5.66c-1.85-2.44-4-5.68-4.92-7" transform="translate(-37.39 -58.65)"/><path class="cls-5" d="M380.46,318.19h28.69a0,0,0,0,1,0,0V333a2.49,2.49,0,0,1-2.49,2.49H382.95a2.49,2.49,0,0,1-2.49-2.49V318.19A0,0,0,0,1,380.46,318.19Z"/><path class="cls-1" d="M80.24,251.16s0-3.58-5-8.58S67,234.72,67,234.72s-2.5,8.22,2.14,13.22a88.54,88.54,0,0,0,11.08,9.65Z" transform="translate(-37.39 -58.65)"/><path class="cls-1" d="M73,273.47s0-3.57-5-8.57S59.76,257,59.76,257s-2.5,8.21,2.14,13.22A88,88,0,0,0,73,279.9Z" transform="translate(-37.39 -58.65)"/><path class="cls-1" d="M79.93,257.24s.37-3.55,5.88-8,9-6.94,9-6.94,1.62,8.43-3.53,12.92a88.34,88.34,0,0,1-12,8.42Z" transform="translate(-37.39 -58.65)"/><path class="cls-1" d="M71.16,283.6s.75-3.5,6.68-7.34,9.69-6,9.69-6,.72,8.55-4.87,12.47a88.13,88.13,0,0,1-12.85,7.12Z" transform="translate(-37.39 -58.65)"/><path class="cls-1" d="M72.81,312.33s0-3.57,5-8.58S86,295.89,86,295.89s2.5,8.22-2.15,13.22a87.1,87.1,0,0,1-11.07,9.65Z" transform="translate(-37.39 -58.65)"/><path class="cls-1" d="M72.72,319.34s.51-3.53-3.73-9.2-7-8.95-7-8.95-3.64,7.78.24,13.4a87.9,87.9,0,0,0,9.6,11.12Z" transform="translate(-37.39 -58.65)"/><path class="cls-1" d="M67.79,340.13s0-3.57,5-8.58S81,323.69,81,323.69s2.5,8.22-2.14,13.22a88.54,88.54,0,0,1-11.08,9.65Z" transform="translate(-37.39 -58.65)"/><path class="cls-1" d="M71.13,359s-.91-3.45,2.67-9.56,6-9.69,6-9.69S84.26,347,81,353.06a88.36,88.36,0,0,1-8.27,12.13Z" transform="translate(-37.39 -58.65)"/><path class="cls-4" d="M80.69,250.24a99.91,99.91,0,0,1-1.37,11.1c-2,10.21-6.92,16.8-8.89,26s3.7,21.12,2.18,33-6.14,18.44-4.82,26.35,8.4,30.11,8.4,30.11" transform="translate(-37.39 -58.65)"/><line class="cls-4" x1="42.49" y1="200.97" x2="47.88" y2="196.83"/><line class="cls-4" x1="42.74" y1="196.21" x2="40.49" y2="192.19"/><path class="cls-4" d="M70.73,287s4.51-3.39,9.15-6.77" transform="translate(-37.39 -58.65)"/><path class="cls-4" d="M72.74,279.27A70.16,70.16,0,0,0,65,267.64" transform="translate(-37.39 -58.65)"/><path class="cls-4" d="M73,317.41a55.82,55.82,0,0,1,9.66-12.91" transform="translate(-37.39 -58.65)"/><path class="cls-4" d="M72.1,322.43a63.07,63.07,0,0,0-4.88-9.28c-2.64-3.89-3-4.39-3-4.39" transform="translate(-37.39 -58.65)"/><path class="cls-4" d="M67.79,346.69a60.82,60.82,0,0,1,4.06-8.22,53,53,0,0,1,5.27-6.89" transform="translate(-37.39 -58.65)"/><path class="cls-4" d="M72.76,365.19a15.3,15.3,0,0,1,1.35-7.91c1.88-3.64,4-8.4,4.89-10.28" transform="translate(-37.39 -58.65)"/><path class="cls-1" d="M47.48,298.89s-.38-2.24,2.21-5.92,4.3-5.82,4.3-5.82,2.46,4.88.09,8.52a55.9,55.9,0,0,1-5.9,7.25Z" transform="translate(-37.39 -58.65)"/><path class="cls-1" d="M54.46,312.1s-.39-2.24,2.21-5.92,4.3-5.83,4.3-5.83,2.46,4.89.09,8.53a55.9,55.9,0,0,1-5.9,7.25Z" transform="translate(-37.39 -58.65)"/><path class="cls-1" d="M48.34,302.67s-.62-2.18-4.55-4.37-6.4-3.38-6.4-3.38-.1,5.46,3.61,7.72a56.19,56.19,0,0,0,8.46,4Z" transform="translate(-37.39 -58.65)"/><path class="cls-1" d="M56.7,318.25s-.85-2.11-5-3.88S45,311.68,45,311.68s.48,5.45,4.41,7.3a56.22,56.22,0,0,0,8.83,3.07Z" transform="translate(-37.39 -58.65)"/><path class="cls-1" d="M58.79,336.44s-.39-2.24-4.07-4.83-6-4-6-4S48,333,51.49,335.63a56.5,56.5,0,0,0,8,4.85Z" transform="translate(-37.39 -58.65)"/><path class="cls-1" d="M59.6,340.83s-.7-2.16,1.34-6.17,3.43-6.37,3.43-6.37,3.13,4.48,1.3,8.42a55.62,55.62,0,0,1-4.8,8Z" transform="translate(-37.39 -58.65)"/><path class="cls-1" d="M65.88,358.91s.26-2.26,3.79-5.06,5.76-4.37,5.76-4.37,1,5.37-2.31,8.2A56.08,56.08,0,0,1,65.41,363Z" transform="translate(-37.39 -58.65)"/><path class="cls-1" d="M65,353.33s-.39-2.24-4.07-4.83-6-4-6-4-.68,5.43,2.78,8.06a56.07,56.07,0,0,0,8,4.85Z" transform="translate(-37.39 -58.65)"/><path class="cls-1" d="M64.9,365.51s.19-2.26-2.71-5.71-4.79-5.42-4.79-5.42-2,5.07.65,8.5a56.09,56.09,0,0,0,6.51,6.71Z" transform="translate(-37.39 -58.65)"/><path class="cls-4" d="M47.1,298.37a67.06,67.06,0,0,0,2.06,6.81c2.35,6.19,6.17,9.78,8.41,15.36s0,13.64,2.21,20.91,5.85,10.9,5.88,16-2,19.29-2,19.29" transform="translate(-37.39 -58.65)"/><line class="cls-4" x1="11.24" y1="245.51" x2="7.42" y2="243.5"/><line class="cls-4" x1="10.57" y1="242.55" x2="11.55" y2="239.79"/><path class="cls-4" d="M57.34,320.3s-3.2-1.63-6.48-3.25" transform="translate(-37.39 -58.65)"/><path class="cls-4" d="M55.13,315.43a52.65,52.65,0,0,1,3.73-7.86" transform="translate(-37.39 -58.65)"/><path class="cls-4" d="M59.23,339.65a35.59,35.59,0,0,0-7.46-7" transform="translate(-37.39 -58.65)"/><path class="cls-4" d="M60.32,342.7a40.36,40.36,0,0,1,2.06-6.35c1.23-2.72,1.41-3.08,1.41-3.08" transform="translate(-37.39 -58.65)"/><path class="cls-4" d="M65.49,361.32a33.35,33.35,0,0,1,4.12-4.27,22.07,22.07,0,0,0,2.67-2.33" transform="translate(-37.39 -58.65)"/><path class="cls-4" d="M65.66,357.45a37.76,37.76,0,0,0-3.44-4.71,33.45,33.45,0,0,0-4-3.76" transform="translate(-37.39 -58.65)"/><path class="cls-4" d="M64.56,369.59a9.83,9.83,0,0,0-1.71-4.82c-1.57-2.07-3.43-4.83-4.18-5.91" transform="translate(-37.39 -58.65)"/><path class="cls-5" d="M18.46,318.19H47.14a0,0,0,0,1,0,0V333a2.49,2.49,0,0,1-2.49,2.49H20.95A2.49,2.49,0,0,1,18.46,333V318.19A0,0,0,0,1,18.46,318.19Z"/></g><g id="Character_4" data-name="Character 4"><path id="_Path_" data-name="&lt;Path&gt;" class="cls-6" d="M329.14,191a34.12,34.12,0,0,0-6.92,15c-1.84,9.33-6.37,26.86-5.8,32.94s2,9.47,7.49,10.46,8.62-3.82,9.76-7.92a71.68,71.68,0,0,0,1.69-8.2L336.49,211s-2-13.39-2.95-16.21S329.14,191,329.14,191Z" transform="translate(-37.39 -58.65)"/><path id="_Path_2" data-name="&lt;Path&gt;" class="cls-6" d="M402.68,186.54s2-.44,3.9,6.5,4.19,16.9,7.94,29.18,4.48,16.33,4.19,19.07-2.45,5.78-10,5.78-11-2.89-13-9.39S394,211.1,393.86,208.5,400.36,185.24,402.68,186.54Z" transform="translate(-37.39 -58.65)"/><path id="_Path_3" data-name="&lt;Path&gt;" class="cls-7" d="M351.1,402.24s-4.91,5.2-7.8,8.53-3.9,5.34.86,7.36,12.14-1,14.31-4.33,6.79-7.08,6.79-7.08,2.45-2.74-.73-6.64S352.54,400.65,351.1,402.24Z" transform="translate(-37.39 -58.65)"/><path id="_Path_4" data-name="&lt;Path&gt;" class="cls-7" d="M380.57,406.58s4.91.72,7.51,3,11.71,7.37,17.77,4.91,2.17-6.5-1.15-9.39a35.28,35.28,0,0,0-6.07-4.33s-9.68-.72-14,1.44S380.57,406.58,380.57,406.58Z" transform="translate(-37.39 -58.65)"/><path id="_Path_5" data-name="&lt;Path&gt;" class="cls-5" d="M345.46,339.39s2.32,17.34,1.16,22.54-4.48,8.24-2,13.3a52.28,52.28,0,0,1,4,12.28c.29,1.73-1.3,2.16,0,4a16.33,16.33,0,0,1,2.31,3.9c0,.44-1.73,2.89-1.73,3.47s.87,4.19.87,4.19,4.62-1,7.94.29a34.19,34.19,0,0,1,6.79,3.9s3-1.16,4.05-2.89a6.75,6.75,0,0,0,1-3c.14-.58,1.59-3.62,1.45-5.93s-1.74-7.22-1.74-10.11,2.17-6.07,2.17-10.69-2.17-34.24-2.17-34.24l2-.73s3.18,17.63,3.18,25.87-2.45,18.49-.86,20.51,3.46,3.76,3.46,4.19-1.88,3.61-1.44,5.2a63.59,63.59,0,0,1,1.73,6.36c0,.87,1.59,4.19,2.89,4.77s2-.73,9.68-2.31,12-1.16,11.27-3.47-1.44-5.35-2.31-5.93.29-1,0-3.17-1.88-4.48-3.32-7.95.57-7.22,1.15-10.84-.29-9-1.73-14.88-.15-20.37-.15-20.37l.73-5.63s-22.11,2-35.69,1.87l-14.59-.14S344.6,334.77,345.46,339.39Z" transform="translate(-37.39 -58.65)"/><path id="_Path_6" data-name="&lt;Path&gt;" class="cls-6" d="M401.52,279s2,26.3,4.62,40A166.14,166.14,0,0,1,409,342.43H398.49c-.44,0,.72-48.69,1-53A62.83,62.83,0,0,1,401.52,279Z" transform="translate(-37.39 -58.65)"/><path id="_Path_7" data-name="&lt;Path&gt;" class="cls-6" d="M358,172s-12.28,8.23-18.63,11.12-9.83,6.65-10.26,8,6.93,22.1,6.93,22.1-.43,68.63-.43,80.19-3.61,46.37-3.18,46.37,12,7.52,27.88,7.95,21-1.88,26-1.88,15,0,15.17-1.44.29-33.38.43-48.26.29-25.43,0-27.88-4.33-55.34-4.33-55.34,3-8.81,4.77-15.89,1.73-7.95-.44-11.12S383.46,174.11,380.57,173a43.45,43.45,0,0,0-11-2.31C366.85,170.5,358,172,358,172Z" transform="translate(-37.39 -58.65)"/><path id="_Path_8" data-name="&lt;Path&gt;" class="cls-6" d="M330.87,230.75s1.88,4.33,4.19,6.21,7.66,2.75,8.81,5.64,0,5.05-1.3,8.52-.57,9.25-5.34,10-6.21-1-10.12-3.76-6.35-3.18-8.66-7.37-3-10-1-13.14" transform="translate(-37.39 -58.65)"/><path id="_Path_9" data-name="&lt;Path&gt;" class="cls-7" d="M357.46,166.31,357,178.45s-1.15,1.73,5.78,2.16a52.41,52.41,0,0,0,13.29-1l-1.15-13.14s-7.23,3-11.42,1.59A40.42,40.42,0,0,0,357.46,166.31Z" transform="translate(-37.39 -58.65)"/><path id="_Path_10" data-name="&lt;Path&gt;" class="cls-7" d="M354.71,163.28s-1,14-1.73,18.2-.58,6.79,1,7.8,10.83,4.63,15.6,4.34,12-4.63,12.57-5.93S377.83,166,377.83,166l-.73.87s1.3,10.69.87,11-17.19-.87-20.23-1-2.16-.29-2.16-.29l-.15-12.28Z" transform="translate(-37.39 -58.65)"/><path class="cls-8" d="M354.25,179.94s15.79,2.33,25.26.5" transform="translate(-37.39 -58.65)"/><path class="cls-8" d="M353.59,183.6s11,4.65,25.92.49" transform="translate(-37.39 -58.65)"/><path class="cls-8" d="M354.75,187.92s10.47,5.65,24.76-.34" transform="translate(-37.39 -58.65)"/><path id="_Path_11" data-name="&lt;Path&gt;" class="cls-7" d="M380.29,148.54c.36-4.44.66-9-.44-11.27-1.73-3.61-6.94-7.8-14.45-7.51s-13.87,3.18-13.72,12.42c0,0,.32,2.75.69,6.12a8.28,8.28,0,0,0-.69,4.72,11.63,11.63,0,0,0,1.59,4.35c.07.86.12,1.6.14,2.15.14,3.9,2.74,8.52,5.06,10.11s6.64,4.05,9.39,4.05,7.65-2.6,10-6.36c1.82-3,2-5,2-8.53H380a31.34,31.34,0,0,0,.73-5.64A17.43,17.43,0,0,0,380.29,148.54Z" transform="translate(-37.39 -58.65)"/><path id="_Path_12" data-name="&lt;Path&gt;" class="cls-5" d="M353,149.41s.43,3.61,1.15,3.46,1.59-5.34,1.59-5.34Z" transform="translate(-37.39 -58.65)"/><path id="_Path_13" data-name="&lt;Path&gt;" class="cls-5" d="M377.54,149s0,4.05,1,4.63,1.73-3.47,1.73-3.47A7.17,7.17,0,0,0,377.54,149Z" transform="translate(-37.39 -58.65)"/><path id="_Path_14" data-name="&lt;Path&gt;" class="cls-6" d="M379.85,137.27c-1.73-3.61-6.94-7.8-14.45-7.51s-13.87,3.18-13.72,12.42c0,0,.32,2.75.69,6.12a8.33,8.33,0,0,0-.77,3.11c2.81-2.25,8.07-5.47,14.67-4.89a34.25,34.25,0,0,1,14.44,5.09,16.92,16.92,0,0,0-.42-3.07C380.65,144.1,381,139.57,379.85,137.27Z" transform="translate(-37.39 -58.65)"/><path id="_Path_15" data-name="&lt;Path&gt;" class="cls-9" d="M364.39,152l-.87,5.2s-1.59.14-1,1.15,3.61,2.17,5.06,1.74,2.89-1.88,2.74-2.46a1,1,0,0,0-.72-.72l-1.88-5.35" transform="translate(-37.39 -58.65)"/><path id="_Path_16" data-name="&lt;Path&gt;" class="cls-9" d="M362.8,162.7a17.14,17.14,0,0,0,8.38-.29" transform="translate(-37.39 -58.65)"/><path id="_Path_17" data-name="&lt;Path&gt;" class="cls-10" d="M361.21,151.79c0,.76-.39,1.37-.87,1.37s-.86-.61-.86-1.37.39-1.37.86-1.37S361.21,151,361.21,151.79Z" transform="translate(-37.39 -58.65)"/><path id="_Path_18" data-name="&lt;Path&gt;" class="cls-10" d="M372.19,151.72c0,.76-.39,1.37-.86,1.37s-.87-.61-.87-1.37.39-1.37.87-1.37S372.19,151,372.19,151.72Z" transform="translate(-37.39 -58.65)"/><path id="_Path_19" data-name="&lt;Path&gt;" class="cls-9" d="M357.89,149.7s1-2.46,4.19-1.59" transform="translate(-37.39 -58.65)"/><path id="_Path_20" data-name="&lt;Path&gt;" class="cls-9" d="M368.58,148.25s3-2.17,5.2,1.59" transform="translate(-37.39 -58.65)"/><path id="_Path_21" data-name="&lt;Path&gt;" class="cls-7" d="M341.27,248.81s8.82,2,10.84,1.59a12.82,12.82,0,0,0,6.93-3.76c2.61-2.6,4.77-4.77,4.77-2.6a6.45,6.45,0,0,1-1.88,4.62c-1,1.16-2.89,2.46-3.32,4.34s.15,3.32,2.46,4.19,9.53,2.16,9.53,4-.58,6.22-3.18,7.66-8.95.43-8.95.43,5.2,2.89,4.19,3.62-4.05-.29-5.49-1.59-2-1.45-6.22-4.48-7.8-6.65-9.82-7.8a12.06,12.06,0,0,1-3-2c-1.16-1-1.59-3-.73-5.34a5.43,5.43,0,0,1,3.18-3Z" transform="translate(-37.39 -58.65)"/><path id="_Path_22" data-name="&lt;Path&gt;" class="cls-6" d="M409.9,232.34s-10.4,2-11.41,2.74,0,3.76,0,3.76-8.82,4.19-12.14,6.5-.29,6.94-.14,7.51c0,0,2.6,8.53,6.93,11.42s8.81,1.87,13.15-2.75,7.08-11,9.1-13.15,4.19-4.19,3.47-9-4.48-5.35-4.48-5.35" transform="translate(-37.39 -58.65)"/><path id="_Path_23" data-name="&lt;Path&gt;" class="cls-7" d="M388.66,251.41s-6.64,1.73-8.52,1.88-2.17.43-3.32-.44-6.51-4-9-6.93-4.34-3.47-4.05-1.88-.29,2.74,1.45,3.9,3.46,4.34,3.46,5.64-.14,1.73-3.75,3-11.85,2.89-11,3.9,2.6,1.3,4.48,1.16,9.68-1.3,10.25-.87a1.73,1.73,0,0,1-.43,2.74c-1.3.87-5.92.87-8.67,1.16s-2.89,1-1.73,1.59a15.2,15.2,0,0,0,5.83.95c2.31,0,5-.23,3.85.49s-2.75.87-5.64,1.3-3.9-.86-3.46.29,3.9,1.16,8.23,1a23.52,23.52,0,0,0,11.13-3.46c2.89-1.74,13.43-4.34,14.16-4.91s1.87-3.91,1.15-7.95S388.66,251.41,388.66,251.41Z" transform="translate(-37.39 -58.65)"/><path id="_Path_24" data-name="&lt;Path&gt;" class="cls-9" d="M400.08,234.5a52.75,52.75,0,0,1,9.1-6.06" transform="translate(-37.39 -58.65)"/><path id="_Path_25" data-name="&lt;Path&gt;" class="cls-7" d="M360.2,261.72s8.22-.94,9.05-1.06,2.35.82,1.64,1.88-1.06.82-4,1.41a52.68,52.68,0,0,1-8.82.59" transform="translate(-37.39 -58.65)"/><path id="_Path_26" data-name="&lt;Path&gt;" class="cls-7" d="M361.14,267.36s9.16-.59,8.93.12-.82,1.64-4.11,1.88-7,.47-10.11-1.06" transform="translate(-37.39 -58.65)"/></g><g id="Character_3" data-name="Character 3"><path id="_Path_27" data-name="&lt;Path&gt;" class="cls-7" d="M269.52,395.12s1.56,1.55-4.66,5.35-11.41,5.53-11.41,7.78,6.91,4.49,14,2.76,10-2.24,14-2.93,5.19-4.15,5.19-9-10.54-6-11.75-6.22S270.39,393.22,269.52,395.12Z" transform="translate(-37.39 -58.65)"/><path id="_Path_28" data-name="&lt;Path&gt;" class="cls-7" d="M285.07,399.09a46.1,46.1,0,0,1-9.5,10.37c-5.36,4-6.05,5.87-3.28,6.91s10.71,1.38,16.07-.69,7.95-5.18,9.5-6.57,2.42-.52,2.42-6.05-5.88-7.43-10.71-7.08S285.07,399.09,285.07,399.09Z" transform="translate(-37.39 -58.65)"/><path id="_Path_29" data-name="&lt;Path&gt;" class="cls-5" d="M264,286.43s1.56,31.45,2.08,40.61,4.32,43.54,5,51.66.69,10.54.69,10.54-3.11,2.25-3.11,2.77-.35,5.35-.35,5.35a33.1,33.1,0,0,0,7.26,2.94,26.57,26.57,0,0,0,8.47.52s5.7,1.9,10.54,3.28,6.74.69,6.74.69,1.38-6.91,1.72-9.16,6.22-26.09,6.22-37-1.38-15.9-3.45-22.29,2.76-29.21,4.49-37.5a136.63,136.63,0,0,0,2.25-14S297.69,292.48,264,286.43Z" transform="translate(-37.39 -58.65)"/><path id="_Path_30" data-name="&lt;Path&gt;" class="cls-11" d="M283.35,297s-.87,23-.87,31.79,2.25,19.53,3.28,29.9.35,27.3-.86,30.24-2.07,4-1.9,6.22.35,5.35.35,5.35" transform="translate(-37.39 -58.65)"/><path id="_Path_31" data-name="&lt;Path&gt;" class="cls-7" d="M280.58,163.22s-1-3.11-2.6-1.9-.51,3.46.87,5.71,2.93,2.76,3.11,1.55S280.58,163.22,280.58,163.22Z" transform="translate(-37.39 -58.65)"/><path id="_Path_32" data-name="&lt;Path&gt;" class="cls-5" d="M280.58,164.61l-1.73-5s-7.25-2.94-5-10.2,19.53-13.82,24.19-13.82,13.65,6.22,15.21,13.48-3.63,13.82-3.63,13.82-2.25,6.39-4,6.05-.7-5.36-2.94-9.33-3.63-6-6.05-5-12.44,4-13.3,5.35S280.93,165.47,280.58,164.61Z" transform="translate(-37.39 -58.65)"/><path id="_Path_33" data-name="&lt;Path&gt;" class="cls-7" d="M315.66,235.8l.86,4.49-10.71,16.59,2.42,3.8a74,74,0,0,0,13.82-11.92c6.91-7.6,7.6-8.64,7.6-11.75s-2.41-8.47-2.41-8.47S322.4,235.8,315.66,235.8Z" transform="translate(-37.39 -58.65)"/><path id="_Path_34" data-name="&lt;Path&gt;" class="cls-9" d="M257.08,225.78s-3.46,8.29-2.76,10.88,12.61,17.8,12.61,17.8l2.07-5.7s-4.49-9.33-4.49-12.44,1.56-9.16,1.56-9.16Z" transform="translate(-37.39 -58.65)"/><path id="_Path_35" data-name="&lt;Path&gt;" class="cls-6" d="M287.67,184.65s-14.86,5.7-17.63,6.57-4.67,1.38-4.84,2.24-8.46,22.12-10,25.06-3.63,6.22-3.63,6.22a69.58,69.58,0,0,0,6.22,3.46,39,39,0,0,0,6.74,2.24l1,11.93-10.2,44.92s20.39,5.7,34,5.19a84.15,84.15,0,0,0,25.4-4.84c2.6-.87,6.57-2.42,6.57-2.42l-13-48.9,1-7.26.69,7.09s6.91,1.55,10.88.51,9-5,9-5l-12.79-39.91-23.84-6.57Z" transform="translate(-37.39 -58.65)"/><path id="_Path_36" data-name="&lt;Path&gt;" class="cls-6" d="M304.46,188.22l-11.09-3.05-5.7-.52-5.13,2c-.1,2.72-.23,7.35-.23,12.9,0,9,1,16.94,3.63,15.38s15-18.31,17.1-23A25.9,25.9,0,0,0,304.46,188.22Z" transform="translate(-37.39 -58.65)"/><path id="_Path_37" data-name="&lt;Path&gt;" class="cls-9" d="M309.44,229.06c-.35-.34-1.9-15.21-1.9-15.21" transform="translate(-37.39 -58.65)"/><path id="_Path_38" data-name="&lt;Path&gt;" class="cls-9" d="M264.51,230.44s-1.21-5.87-.86-8.12,2.76-15.55,2.76-15.55" transform="translate(-37.39 -58.65)"/><path id="_Path_39" data-name="&lt;Path&gt;" class="cls-9" d="M270.39,255.33s-7.95,2.59-7.95,3.11-.18,2.93-.18,2.93l8.13-3.8Z" transform="translate(-37.39 -58.65)"/><polygon id="_Path_40" data-name="&lt;Path&gt;" class="cls-9" points="254.08 197.89 253.74 200.13 271.01 204.63 271.88 202.9 254.08 197.89"/><g id="_Group_" data-name="&lt;Group&gt;"><path id="_Path_41" data-name="&lt;Path&gt;" class="cls-5" d="M297.17,222.18a.89.89,0,0,1-.89-.89c0-3,1.49-10.24,2.94-17.24,1.15-5.57,2.24-10.84,2.24-12.49a6.4,6.4,0,0,0-1.94-4.91c-2.07-1.92-5.75-2.7-10.93-2.32-10.81.8-11.6,25-11.61,25.23a.89.89,0,0,1-.89.87h0a.89.89,0,0,1-.86-.92c0-1.06.85-26,13.26-27,5.7-.41,9.83.52,12.27,2.8a8.21,8.21,0,0,1,2.51,6.21c0,1.83-1.05,6.94-2.27,12.85-1.37,6.59-2.91,14.06-2.91,16.88A.89.89,0,0,1,297.17,222.18Z" transform="translate(-37.39 -58.65)"/></g><path id="_Path_42" data-name="&lt;Path&gt;" class="cls-7" d="M285.76,179.3s0,5-.17,6,0,5.36,0,11.24,1,9.84,2.42,8.46,10.54-13.65,11.06-16.07a21.81,21.81,0,0,0,.52-4.14l.69-6.92s-10.71,3.11-15.21,1.73" transform="translate(-37.39 -58.65)"/><path id="_Path_43" data-name="&lt;Path&gt;" class="cls-5" d="M303.56,168.93a82.08,82.08,0,0,1,.69,18.14c-.69,10.54-1.94,15.48-5,17s.89,3.24,5.55,3.41,11.58-.52,12.79-14.34-8.81-22.81-9.68-24.54A2.4,2.4,0,0,0,303.56,168.93Z" transform="translate(-37.39 -58.65)"/><g id="_Group_2" data-name="&lt;Group&gt;"><path id="_Path_44" data-name="&lt;Path&gt;" class="cls-10" d="M269.87,221.66h-.07a.88.88,0,0,1-.82-1c0-.49,1-12.06,7.11-12.06s6.25,11.13,6.25,11.61a.89.89,0,0,1-.89.89h0a.89.89,0,0,1-.89-.89c0-.1-.13-9.82-4.46-9.82-3.72,0-5.11,7.51-5.33,10.41A.9.9,0,0,1,269.87,221.66Z" transform="translate(-37.39 -58.65)"/></g><path id="_Path_45" data-name="&lt;Path&gt;" class="cls-12" d="M269.87,220.08s0,8.64.34,10.36,4.67,5.36,9.85,7.61" transform="translate(-37.39 -58.65)"/><path id="_Path_46" data-name="&lt;Path&gt;" class="cls-12" d="M281.1,219s.34,8.64-1.38,12.44-6.91,5.36-9.16,6.22" transform="translate(-37.39 -58.65)"/><path id="_Path_47" data-name="&lt;Path&gt;" class="cls-7" d="M282.48,238.39a1.56,1.56,0,0,0-3.11,0,1.56,1.56,0,1,0,3.11,0Z" transform="translate(-37.39 -58.65)"/><path id="_Path_48" data-name="&lt;Path&gt;" class="cls-7" d="M271.77,238.05a1.56,1.56,0,1,0-1.56,1.55A1.56,1.56,0,0,0,271.77,238.05Z" transform="translate(-37.39 -58.65)"/><path id="_Path_49" data-name="&lt;Path&gt;" class="cls-7" d="M302.35,224.57a5.36,5.36,0,1,0-5.35,5.35A5.36,5.36,0,0,0,302.35,224.57Z" transform="translate(-37.39 -58.65)"/><path id="_Path_50" data-name="&lt;Path&gt;" class="cls-7" d="M299.93,224.57a2.94,2.94,0,1,0-2.93,2.94A2.94,2.94,0,0,0,299.93,224.57Z" transform="translate(-37.39 -58.65)"/><path id="_Path_51" data-name="&lt;Path&gt;" class="cls-7" d="M299.93,151.13S284.9,157,283,158a13.44,13.44,0,0,1-2.59,1.21s.86,13.13,1.21,16.59,5.87,6.74,10.71,6.57,8.81-2.77,9.68-4.32,3.28-6.22,3.28-6.22,5.7-1,6-6.05-1.38-4-3.28-2.94-2.94,1.73-2.94,1.73a7.71,7.71,0,0,0-.87-5.36C302.7,156.66,300.28,153.55,299.93,151.13Z" transform="translate(-37.39 -58.65)"/><path id="_Path_52" data-name="&lt;Path&gt;" class="cls-9" d="M287.67,167.2s1.38,2.07,2.59,1.9" transform="translate(-37.39 -58.65)"/><path id="_Path_53" data-name="&lt;Path&gt;" class="cls-9" d="M287.15,170.31s2.93,2.77,8,.52" transform="translate(-37.39 -58.65)"/><path id="_Path_54" data-name="&lt;Path&gt;" class="cls-13" d="M294.58,163.05s3.54-1.55,5.53,1.21" transform="translate(-37.39 -58.65)"/><path id="_Path_55" data-name="&lt;Path&gt;" class="cls-13" d="M287.67,162.71s-2.77-1.73-4.84-.35" transform="translate(-37.39 -58.65)"/><path class="cls-9" d="M289.7,162.06a4.88,4.88,0,1,1-4.87-4.87A4.88,4.88,0,0,1,289.7,162.06Z" transform="translate(-37.39 -58.65)"/><path class="cls-9" d="M301.85,163.43a4.88,4.88,0,1,1-4.88-4.87A4.89,4.89,0,0,1,301.85,163.43Z" transform="translate(-37.39 -58.65)"/><path class="cls-9" d="M289.7,162.06a2.06,2.06,0,0,1,2.05.43" transform="translate(-37.39 -58.65)"/><line class="cls-9" x1="264.63" y1="105.55" x2="269.42" y2="104.87"/></g><g id="Character_1" data-name="Character 1"><path id="_Path_56" data-name="&lt;Path&gt;" class="cls-7" d="M98.86,396.38A42.44,42.44,0,0,1,94,404.31c-2.89,3.55-3.62,6.08-.48,8.28s8.86,1.86,11.74-1.69,7.52-13.34,7.52-13.34S102.66,394.52,98.86,396.38Z" transform="translate(-37.39 -58.65)"/><path id="_Path_57" data-name="&lt;Path&gt;" class="cls-7" d="M134.08,398.57s5,6.59,8,10,8.67,5.06,11.7,4.89,7.38-1.18,4.44-6.58-9.08-10.64-9.08-10.64-6.42,0-10.83-.51S133.86,397.56,134.08,398.57Z" transform="translate(-37.39 -58.65)"/><path id="_Path_58" data-name="&lt;Path&gt;" class="cls-6" d="M101.62,274.45s-2,23-1.32,39.18S98,362.1,97,370s.91,20.94,1,23.81.19,4.4.19,4.4,1.48-1,6.93,0a48.68,48.68,0,0,0,7.47,1,65.76,65.76,0,0,0,5.55-12c1.63-5.4.71-11,.58-13.85s-.6-5.91-.28-6.42,7-48.8,7.36-59.44A117.92,117.92,0,0,1,129,286.11s3.19,14.86,3.44,20.6-.57,52.52-.16,62-.32,12-1.4,14.36-.69,3.54.07,5.4,3.15,10.13,3.15,10.13,12.19.68,13.84-.17,2.29-1.68,2.26-2.19,5.87-12.67,5.31-17.73-1.2-4.22-1.77-13.34,3.16-86,3.15-90-.68,3.71-25.54-1S102.33,271.24,101.62,274.45Z" transform="translate(-37.39 -58.65)"/><path id="_Path_59" data-name="&lt;Path&gt;" class="cls-7" d="M134.8,392s7.81-6.76,14.32-8.45" transform="translate(-37.39 -58.65)"/><path id="_Path_60" data-name="&lt;Path&gt;" class="cls-7" d="M102.91,388.78s9.76-4.73,12.58-5.91" transform="translate(-37.39 -58.65)"/><path id="_Path_61" data-name="&lt;Path&gt;" class="cls-7" d="M119.29,149.49s-2.62-5.91-4.56-3.88-.47,4.72,2.2,7.93,4.78,1.18,4.22-.17S119.29,149.49,119.29,149.49Z" transform="translate(-37.39 -58.65)"/><path id="_Path_62" data-name="&lt;Path&gt;" class="cls-7" d="M144.65,146.28s2.62-5.74,4.76-3-2.46,9.46-3.59,10.64-1.86-7.77-1.86-7.77Z" transform="translate(-37.39 -58.65)"/><path id="_Path_63" data-name="&lt;Path&gt;" class="cls-7" d="M87.77,220.25s-.73,10.47-1.62,13.17A66,66,0,0,0,83.63,253c.35,7.93,3.46,25.16,3.52,30.39s-1.57,6.42.18,7.77,5.47,5.41,6.82,5.41,3.41.67,3.36-.34-.71-.85-1.28-2.2A46.85,46.85,0,0,1,94.45,288a39.69,39.69,0,0,1,1.49-4.39s1.2,4.22,1.43,5.58,2.11,1.85,2-.68-.16-3.55-.28-6.25-2.25-5.06-3.15-6.42-1.61-2.19-1.64-2.7,2.91-18.4,3-24.65.18-11.32.63-12.5,2.69-11.82,2.69-11.82Z" transform="translate(-37.39 -58.65)"/><path id="_Path_64" data-name="&lt;Path&gt;" class="cls-7" d="M171.29,220.75s.72,10.53,1.62,13.31a68.83,68.83,0,0,1,2.51,19.81c-.35,7.91-3.48,24.86-3.54,30.09s1.58,6.55-.17,7.75-5.48,4.92-6.83,4.81-3.4.37-3.36-.64.71-.78,1.28-2.08a42.75,42.75,0,0,0,1.79-5.92,42.13,42.13,0,0,0-1.5-4.53s-1.2,4.12-1.43,5.45-2.1,1.67-2-.85.15-3.53.27-6.22,2.25-4.87,3.16-6.14,1.61-2.06,1.64-2.56-2.91-18.66-3-24.92-.17-11.33-.63-12.55-2.69-12.06-2.69-12.06Z" transform="translate(-37.39 -58.65)"/><path id="_Path_65" data-name="&lt;Path&gt;" class="cls-6" d="M124.7,168.91s-9.6,4.56-15.4,7.09-13.09,5.57-13,6.76-6.18,24.82-8.16,29.72-3.83,8.78-3.83,8.78S91.4,226,96,227a58,58,0,0,0,9,1.18l-5.47,48.64s11,4.39,28.23,4.56a266.59,266.59,0,0,0,32-1.69s1.62-40,1.45-43.91a35.53,35.53,0,0,1,.23-6.42,15.63,15.63,0,0,0,7.92-.33,69.06,69.06,0,0,0,6.63-2.87s-8.39-33.44-9.77-38-.74-5.23-1.94-5.74-14.46-6.25-18.79-8.78-6-2.54-9.79-3.72S126.65,167.22,124.7,168.91Z" transform="translate(-37.39 -58.65)"/><line class="cls-9" x1="124.07" y1="170.72" x2="121.94" y2="140.72"/><path id="_Path_66" data-name="&lt;Path&gt;" class="cls-9" d="M105.4,245.07l18.73-.51s-.83,23.48-1.4,26-4.37,4.22-9.28,4.05-7.88-2.53-8.44-3.71" transform="translate(-37.39 -58.65)"/><line id="_Path_67" data-name="&lt;Path&gt;" class="cls-9" x1="66.97" y1="189.46" x2="86.72" y2="189.29"/><path id="_Path_68" data-name="&lt;Path&gt;" class="cls-9" d="M156.35,274.62c-1.84.51-6.23.51-7.19-2.19s-.33-26.85-.33-26.85l9.64.33" transform="translate(-37.39 -58.65)"/><line id="_Path_69" data-name="&lt;Path&gt;" class="cls-9" x1="111.36" y1="188.96" x2="120.54" y2="190.31"/><path id="_Path_70" data-name="&lt;Path&gt;" class="cls-9" d="M105,228.18s.68-23.13.41-29.21" transform="translate(-37.39 -58.65)"/><path id="_Path_71" data-name="&lt;Path&gt;" class="cls-7" d="M121.84,157.59s1.46,14,1.52,15.54,1.77,5.74,3.39,7.94,6.15,9.29,7.95,7.93,6.87-8.95,7.36-13.17.73-14.18.73-14.18-6.57.34-11.55-1.35S121.84,157.59,121.84,157.59Z" transform="translate(-37.39 -58.65)"/><path id="_Path_72" data-name="&lt;Path&gt;" class="cls-5" d="M114.84,136.65l3.73,11.83s1.4,8.78,3.92,12.32,11.35,8.62,15.36,7.6,8.74-4.73,8.56-8.78-1-15.87-.89-20.43-1-13.85-3.76-16.38-12-4.06-18.63-1.35S112,129.22,114.84,136.65Z" transform="translate(-37.39 -58.65)"/><path id="_Path_73" data-name="&lt;Path&gt;" class="cls-7" d="M118.78,149.49s-.33.17.54-3.21,3.49-5.07,3.75-6.75-3.3-2.2-2.91-4.73,3.87-4.39,11.26-5.24,12.31,3.55,12.07,5.74-.9,2.54.18,4.06,1.54,4.39,1.62,6.08,1,7.76-.6,9.62-2.8,1.52-4.39,0-2.18-3.54-5.72-3.54-4.67,1.35-5.29,2.7-1.22,3-3.24,3-3.46-1.86-4.9-3.89A32.69,32.69,0,0,1,118.78,149.49Z" transform="translate(-37.39 -58.65)"/><path id="_Path_74" data-name="&lt;Path&gt;" class="cls-9" d="M134,141.21s3.27,9.12,3.13,9.8-1.74,2.7-3.61,2.53-2.8-2.36-2.8-2.36" transform="translate(-37.39 -58.65)"/><path id="_Path_75" data-name="&lt;Path&gt;" class="cls-12" d="M134.92,140a2.11,2.11,0,0,1,1.91-2.7,7.46,7.46,0,0,1,5.66,2.2" transform="translate(-37.39 -58.65)"/><path id="_Path_76" data-name="&lt;Path&gt;" class="cls-12" d="M130,139a4.06,4.06,0,0,0-3.41-.68c-2,.51-4.41,3.55-4.38,4.06" transform="translate(-37.39 -58.65)"/><path id="_Path_77" data-name="&lt;Path&gt;" class="cls-10" d="M129.35,143.92c0,.84-.35,1.52-.87,1.52s-1-.68-1-1.52.35-1.52.86-1.52S129.31,143.08,129.35,143.92Z" transform="translate(-37.39 -58.65)"/><path id="_Path_78" data-name="&lt;Path&gt;" class="cls-10" d="M139.12,143.41c0,.84-.35,1.52-.86,1.52s-1-.68-1-1.52.35-1.52.86-1.52S139.08,142.57,139.12,143.41Z" transform="translate(-37.39 -58.65)"/><path id="_Path_79" data-name="&lt;Path&gt;" class="cls-14" d="M130.44,157.26s3.27,1.52,8.24-.68" transform="translate(-37.39 -58.65)"/><path id="_Path_80" data-name="&lt;Path&gt;" class="cls-9" d="M118.41,172s5,17.22,10.37,28.54,9.63,19.25,9.63,19.25,8.09-27.19,8.05-36-.09-9.79-.09-9.79" transform="translate(-37.39 -58.65)"/><polygon id="_Path_81" data-name="&lt;Path&gt;" class="cls-7" points="107.01 178.32 96.71 178.32 95.95 161.09 106.25 161.09 107.01 178.32"/></g><g id="Character_2" data-name="Character 2"><path id="_Path_82" data-name="&lt;Path&gt;" class="cls-7" d="M220.14,403.81s5.4,4.39,9.28,5.57,5.91,1.86,5.07,3.72-3.55,2.53-11.48,2.7-9.46-1.52-12.5-2.37-7.26,0-8.61-1.68-.85-4.23-.85-6.93,11.66-3.88,14.7-2.87A22.21,22.21,0,0,1,220.14,403.81Z" transform="translate(-37.39 -58.65)"/><path id="_Path_83" data-name="&lt;Path&gt;" class="cls-7" d="M204.77,407.19s5.07,5.4,9.29,7.76,6.58,4.06,5.57,5.24-4.22,2.7-12.67,1.86-10.13-2.71-14.18-5.58-5.91-2.53-7.26-4.05-1.35-4.9-1.35-4.9Z" transform="translate(-37.39 -58.65)"/><path id="_Path_84" data-name="&lt;Path&gt;" class="cls-5" d="M230.1,282.22s-3,40.19-4.22,47.45-2.37,11.32-2.2,16.38,1.69,19.59-1.35,28.21-3,19.08-2.7,22.12,1.35,7.09,1.18,7.77-5.06,3.37-8.61,4.05a41,41,0,0,1-6.76.67,45.46,45.46,0,0,1-10.63,2.37c-5.07.34-12-1.18-12-1.18s0-12.5-.68-20.61-3-21.1-.17-30.9,2.2-15,2-18.24,0-17.73-.17-18.24-1.18-42.72-1.18-42.72,18.4,2.7,30.73,1.52,15.54-1.18,15.54-1.18S231.62,276.65,230.1,282.22Z" transform="translate(-37.39 -58.65)"/><path id="_Path_85" data-name="&lt;Path&gt;" class="cls-11" d="M206.29,406.51a34.34,34.34,0,0,0-1-8.11c-1-3.37-1.19-15.36-.68-20.26s3-17.22,3-24.15.68-17.56.68-17.56" transform="translate(-37.39 -58.65)"/><path id="_Path_86" data-name="&lt;Path&gt;" class="cls-7" d="M241.24,332.71,222,332.54c-.84,0-.84-12.83-.84-12.83Z" transform="translate(-37.39 -58.65)"/><path id="_Path_87" data-name="&lt;Path&gt;" class="cls-6" d="M200.55,284.59s19.25,1.18,30.06-.68l-3.72-90.85s-2.53-4.22-9.29-6.59-14.86,1-17.73,4.22-.84,93.56-.84,93.56Z" transform="translate(-37.39 -58.65)"/><path id="_Path_88" data-name="&lt;Path&gt;" class="cls-7" d="M201.39,186.47s-19.08,9.63-21.95,11.32-3,7.76-3,10.64.84,130.7.84,130.7a64.87,64.87,0,0,0,21.45-2.19,56,56,0,0,0,19.08-9.12l-3.21-68.73L211,198.8S208.82,182.08,201.39,186.47Z" transform="translate(-37.39 -58.65)"/><path id="_Path_89" data-name="&lt;Path&gt;" class="cls-7" d="M207.13,180.22s-4.39.51-6.25,3a14.44,14.44,0,0,0-2.36,4.9l-1.69,15.2,5.74-1.35-2.87,6.75s2.87,8.45,6.08,15.54,7.94,21.61,7.94,21.61l-2.2-45.42s0-13.17-1-16S208.48,180.22,207.13,180.22Z" transform="translate(-37.39 -58.65)"/><path id="_Path_90" data-name="&lt;Path&gt;" class="cls-7" d="M218.11,189.51l3.38,137.63,19.75,5.57-2.87-104.86s.51-27-1.18-30.74S220.31,185.8,218.79,186,218.11,189.51,218.11,189.51Z" transform="translate(-37.39 -58.65)"/><path id="_Path_91" data-name="&lt;Path&gt;" class="cls-7" d="M218.11,182.59a8.75,8.75,0,0,1,5.74,4.56c1.69,3.71,6.08,15.2,6.08,15.2l-5.57.67,5.91,4.22L219.8,246.59,218.62,204l-1-17.56S216.42,183.6,218.11,182.59Z" transform="translate(-37.39 -58.65)"/><path id="_Path_92" data-name="&lt;Path&gt;" class="cls-7" d="M205.78,174.48s.68,4.9-.34,7.6,3.21,11.15,4.9,16.38,3.38,9.46,4.39,8.95,4.56-20.26,4.39-22.8,1.52-10.13,1.52-10.13S211.35,177.18,205.78,174.48Z" transform="translate(-37.39 -58.65)"/><ellipse class="cls-5" cx="156.54" cy="100.62" rx="9.63" ry="10.06"/><path id="_Path_93" data-name="&lt;Path&gt;" class="cls-7" d="M198.86,164s-1.69-4.39-3.72-2.7,0,5.4,1.52,7.6,4.39,1.18,4.06-1A8.48,8.48,0,0,0,198.86,164Z" transform="translate(-37.39 -58.65)"/><path id="_Path_94" data-name="&lt;Path&gt;" class="cls-7" d="M225,161.27s.85-4.22,2-1.35a7.79,7.79,0,0,1-.34,7.09c-1,1.69-.84,1.52-1.18,0A52.07,52.07,0,0,1,225,161.27Z" transform="translate(-37.39 -58.65)"/><path id="_Path_95" data-name="&lt;Path&gt;" class="cls-7" d="M196.49,155.87s3.21,15.53,5.24,19.25,8.78,10,14.86,7.43,9.46-7.26,9.46-13,.84-13-.17-19.26a12.72,12.72,0,0,0-12-10.47c-5.41-.17-13.85,2.87-15.54,8.28A39.73,39.73,0,0,0,196.49,155.87Z" transform="translate(-37.39 -58.65)"/><path id="_Path_96" data-name="&lt;Path&gt;" class="cls-5" d="M196.66,161.61s9.46-3.72,15.54-8.28,7.94-7.93,7.94-7.93,2.87,7.76,4.05,10.3,2.19,5.4,2.19,5.4,1.86-3.21,1.86-10-1.86-12.16-9-15.71-18.74-1.35-24,3.72-4.22,13.34-2.87,16.55A20.29,20.29,0,0,0,196.66,161.61Z" transform="translate(-37.39 -58.65)"/><path id="_Path_97" data-name="&lt;Path&gt;" class="cls-9" d="M217.6,155.36s-1,.17-1,3.21,1,8.1.84,8.78-2,2.7-3.2,1.52" transform="translate(-37.39 -58.65)"/><path id="_Path_98" data-name="&lt;Path&gt;" class="cls-9" d="M210,171.91s4.39,1.86,10-1.52" transform="translate(-37.39 -58.65)"/><path id="_Path_99" data-name="&lt;Path&gt;" class="cls-9" d="M218.28,155s3.56-1.36,5.91.68" transform="translate(-37.39 -58.65)"/><path id="_Path_100" data-name="&lt;Path&gt;" class="cls-9" d="M212.37,155.7a10.2,10.2,0,0,0-9.12,1.69" transform="translate(-37.39 -58.65)"/><path id="_Path_101" data-name="&lt;Path&gt;" class="cls-10" d="M210,160.59c0,1-.41,1.86-.92,1.86s-.93-.83-.93-1.86.41-1.85.93-1.85S210,159.57,210,160.59Z" transform="translate(-37.39 -58.65)"/><path id="_Path_102" data-name="&lt;Path&gt;" class="cls-10" d="M221,159.92c0,1-.42,1.86-.93,1.86s-.93-.83-.93-1.86.42-1.86.93-1.86S221,158.89,221,159.92Z" transform="translate(-37.39 -58.65)"/><path id="_Path_103" data-name="&lt;Path&gt;" class="cls-9" d="M231.79,228.35l-3-4.9c-.85-1.35-4.73-.84-6.59-.84a6.29,6.29,0,0,0-4.73,3c-.67,1.35-3.71,3.55-2.53,4.9s4.39.5,4.9.84,4.73,3.21,6.25,3.72a5.79,5.79,0,0,0,2.53.33Z" transform="translate(-37.39 -58.65)"/><path id="_Path_104" data-name="&lt;Path&gt;" class="cls-7" d="M236.35,196.1a13.72,13.72,0,0,1,7.26,8.1c1.86,5.91,8.1,45.26,6.75,49s-4.72,6.58-10.63,4.56-15-11.66-15-11.66l7.09-17.73,5.57,2.87-1.18-15.87" transform="translate(-37.39 -58.65)"/><path id="_Path_105" data-name="&lt;Path&gt;" class="cls-9" d="M237.36,231.22s8.95,5.24,9.8,7.1" transform="translate(-37.39 -58.65)"/><rect id="_Rectangle_" data-name="&lt;Rectangle&gt;" class="cls-5" x="156.07" y="148.93" width="32.59" height="45.6"/><path id="_Path_106" data-name="&lt;Path&gt;" class="cls-7" d="M208.15,239.33s6.24-3.38,8.1-5.24,2.2-2,3.21-2a54.57,54.57,0,0,0,7.43-.51c1-.34.51,2,0,2.53s-3.71,1.19-3.71,1.19,5.4-.51,5.57,1.18a2.71,2.71,0,0,1-.85,2.7l-.5.51s.5,3.54,0,5.23-1.52,2.2-3.72,2.53a36.52,36.52,0,0,1-8.78-.5c-1.69-.34-7.43.84-7.43.84Z" transform="translate(-37.39 -58.65)"/><path id="_Path_107" data-name="&lt;Path&gt;" class="cls-7" d="M185.69,194.75s-10,2.19-11.66,3.2-7.26,41.21-8.44,48,10.47,8.11,14,9.46S209,258.75,209,258.75l.34-20.94-17.9-4.56-.17-28.88" transform="translate(-37.39 -58.65)"/><path id="_Path_108" data-name="&lt;Path&gt;" class="cls-9" d="M191.43,233.25s-6.25-2.87-10.3-1.35-7.43,9.29-7.43,9.29" transform="translate(-37.39 -58.65)"/><path id="_Path_109" data-name="&lt;Path&gt;" class="cls-9" d="M184.5,231.22s-5.91-.34-8.78.85a12.11,12.11,0,0,0-4.56,3.37" transform="translate(-37.39 -58.65)"/><rect id="_Rectangle_2" data-name="&lt;Rectangle&gt;" class="cls-7" x="167.72" y="147.41" width="11.48" height="3.72"/></g></svg>