<svg xmlns="http://www.w3.org/2000/svg" xmlns:xlink="http://www.w3.org/1999/xlink" viewBox="0 0 380.53 266.86"><defs><style>.cls-1,.cls-23,.cls-4,.cls-7,.cls-9{fill:#fff;}.cls-1,.cls-10,.cls-2,.cls-5{stroke:#263238;}.cls-1,.cls-10,.cls-15,.cls-2,.cls-5{stroke-linecap:round;stroke-linejoin:round;}.cls-2,.cls-3{fill:#fb0;}.cls-4{opacity:0.7;}.cls-24,.cls-5{fill:#263238;}.cls-10,.cls-15,.cls-6{fill:none;}.cls-15,.cls-6{stroke:#fff;}.cls-6{stroke-miterlimit:10;}.cls-8{clip-path:url(#clip-path);}.cls-13,.cls-9{opacity:0.5;}.cls-11{clip-path:url(#clip-path-2);}.cls-12{clip-path:url(#clip-path-3);}.cls-14{clip-path:url(#clip-path-4);}.cls-16{clip-path:url(#clip-path-5);}.cls-17{clip-path:url(#clip-path-6);}.cls-18{clip-path:url(#clip-path-7);}.cls-19{clip-path:url(#clip-path-8);}.cls-20{clip-path:url(#clip-path-9);}.cls-21{clip-path:url(#clip-path-10);}.cls-22{clip-path:url(#clip-path-11);}.cls-23{opacity:0.71;}</style><clipPath id="clip-path" transform="translate(-61.23 -115.14)"><path id="_Clipping_Path_" data-name="&lt;Clipping Path&gt;" class="cls-1" d="M334.48,240.88s-4.11,17.32-4.11,27.57,7.07,23.48,18.69,19.15S362.51,271,362.51,263s-.45-18.91-.45-18.91-5.7,4.56-14.59,1.59S334.48,240.88,334.48,240.88Z"/></clipPath><clipPath id="clip-path-2" transform="translate(-61.23 -115.14)"><path id="_Compound_Clipping_Path_" data-name="&lt;Compound Clipping Path&gt;" class="cls-1" d="M339,379.91c-.23-3.42-.46-14.36,6.61-32.36s12.53-44.91,13.9-67,2.51-36.47,2.51-36.47c0-4.11,1.59-6.61,13.67-4.79s39.43,5.7,39.21,9.35-16,54.7-17.78,68.15-1.37,18.91,5.47,15.49S419,323.16,419,323.16v10.25s-24.16,31-31.23,35.79-6.84,3.87-8.66-1.6-1.82-24.38-1.82-24.38c-7.69,21.08-7.28,33.14-6.43,38.28H339.15C339.12,381,339.08,380.52,339,379.91Zm48.53-76.44,9-33.5M259.29,381.5h41.49c1.36-5.77,7.62-32.13,12.27-46.49,5.24-16.18,12.08-36.24,13.45-48.32s7.07-44.22,7.07-44.22c.91-6.15,0-5.47,0-5.47s-43.77.68-47,.91-1.82,22.11-1.82,53.34C284.79,319.94,262.86,373.05,259.29,381.5Zm33.48-87.06,7.29-9.57"/></clipPath><clipPath id="clip-path-3" transform="translate(-61.23 -115.14)"><path id="_Clipping_Path_2" data-name="&lt;Clipping Path&gt;" class="cls-1" d="M310.77,331.59s11.63-4.79,18.46-10.48,18.92-22.57,21-22.34,14.36,9.12,20.52,11.17,10.71,2.05,10.48,3.42-2.73,2.73-7.52,2.73-17.78-6.84-17.78-6.84,7.07,9.12,5.93,10.26a65.2,65.2,0,0,1-14.59,8.66c-5.47,2.05-9.12,3.88-10.26,3.65s-.91-2.51-.22-3.19l2.05-2.05S334,330,331.51,330H329l-19.6,16.63Z"/></clipPath><clipPath id="clip-path-4" transform="translate(-61.23 -115.14)"><path id="_Clipping_Path_3" data-name="&lt;Clipping Path&gt;" class="cls-1" d="M290.72,237.46s-7.53-.69-9.35-.69-4.56,1.37-5,7.52S246,365.55,246,368.51s4.53,4,18.53.46c11.81-3,46.89-14.81,46.89-14.81l3.1-24.89L278,336.61l17.78-52.2"/></clipPath><clipPath id="clip-path-5" transform="translate(-61.23 -115.14)"><path id="_Clipping_Path_4" data-name="&lt;Clipping Path&gt;" class="cls-2" d="M431.66,325.17s-5.67,2.45-10,4.13-1.84,3.22-.15,3.22,8.27-2,10.72-3.52S434.41,324.71,431.66,325.17Z"/></clipPath><clipPath id="clip-path-6" transform="translate(-61.23 -115.14)"><path id="_Clipping_Path_5" data-name="&lt;Clipping Path&gt;" class="cls-2" d="M434.79,319.22s-7.7,3.33-13.53,5.61-2.49,4.37-.2,4.37,11.23-2.7,14.56-4.78S438.53,318.59,434.79,319.22Z"/></clipPath><clipPath id="clip-path-7" transform="translate(-61.23 -115.14)"><path id="_Clipping_Path_6" data-name="&lt;Clipping Path&gt;" class="cls-2" d="M434.56,313.66s-8.44,3.64-14.82,6.15-2.73,4.79-.23,4.79,12.31-3,16-5.25S438.66,313,434.56,313.66Z"/></clipPath><clipPath id="clip-path-8" transform="translate(-61.23 -115.14)"><path id="_Clipping_Path_7" data-name="&lt;Clipping Path&gt;" class="cls-2" d="M435.22,308.57s-8.43,3.65-14.81,6.15-2.74,4.79-.23,4.79,12.31-3,15.95-5.24S439.32,307.89,435.22,308.57Z"/></clipPath><clipPath id="clip-path-9" transform="translate(-61.23 -115.14)"><path id="_Clipping_Path_8" data-name="&lt;Clipping Path&gt;" class="cls-1" d="M349.29,182.75s-16.41,10.49-19.83,14.59-1.82,12.77-1.59,15.5.45,21,2.05,23.93,6.49,14.72,22.41,14c11.47-.53,17.25-9.87,19.53-15.8a50.17,50.17,0,0,0,2.73-12.76s6.63-1.15,6.63-6.62-1.48-11.85-4.58-11.16c-1.57.35-3.64,3.87-3.64,3.87a87.66,87.66,0,0,1-16-14.13C349.75,185.72,349.29,182.75,349.29,182.75Z"/></clipPath><clipPath id="clip-path-10" transform="translate(-61.23 -115.14)"><circle id="_Clipping_Path_9" data-name="&lt;Clipping Path&gt;" class="cls-1" cx="333.34" cy="211.47" r="9.34"/></clipPath><clipPath id="clip-path-11" transform="translate(-61.23 -115.14)"><circle id="_Clipping_Path_10" data-name="&lt;Clipping Path&gt;" class="cls-1" cx="358.87" cy="211.47" r="9.34"/></clipPath></defs><title>pt-management</title><g id="Background_Simple" data-name="Background Simple"><path class="cls-3" d="M439.2,381.07V370.36c0-8.42-6.88-16.07-13.77-23.72s5.36-48.19,6.12-81.85-15.3-43.61-29.83-33.66S380.3,199,376.47,175.28s-26-65-62-59.66S286.2,160,268.61,166.11s-38.25-17.6-74.21-3.06S160.74,273.2,143.91,291.56s-40.54-19.12-60.43,0c-18.68,18-17.79,81.82-17.61,89.51Z" transform="translate(-61.23 -115.14)"/><path class="cls-4" d="M439.2,381.07V370.36c0-8.42-6.88-16.07-13.77-23.72s5.36-48.19,6.12-81.85-15.3-43.61-29.83-33.66S380.3,199,376.47,175.28s-26-65-62-59.66S286.2,160,268.61,166.11s-38.25-17.6-74.21-3.06S160.74,273.2,143.91,291.56s-40.54-19.12-60.43,0c-18.68,18-17.79,81.82-17.61,89.51Z" transform="translate(-61.23 -115.14)"/></g><g id="Character"><path id="_Path_" data-name="&lt;Path&gt;" class="cls-5" d="M337.21,165.89s-26.44-2.51-30.08,10.25,9.11,23.48,13,25.53a31.52,31.52,0,0,1-1.6,20.74C313.74,233.58,308,250,283,272.79s-42.17,32.13-46.27,57.66,8.2,35.56,41.93,35.79S367.3,326.58,381,279.17s9.8-67,9.12-84.11S379.61,162,362.28,160.19,337.21,165.89,337.21,165.89Z" transform="translate(-61.23 -115.14)"/><path class="cls-6" d="M343.34,185.71s-27.67-8.51-29.38-1.28,17.46,10.22,17.46,6.39S321.2,187,321.2,187" transform="translate(-61.23 -115.14)"/><path class="cls-6" d="M369.73,164.85s-22.56-.85-23.84,7.24,31.08,33.2,43.85,36.61" transform="translate(-61.23 -115.14)"/><path class="cls-6" d="M362.07,164.85s-7.66,4.68-4.68,10.22,19.15,12.77,27.24,12.77" transform="translate(-61.23 -115.14)"/><path class="cls-2" d="M327.47,238.36a236.45,236.45,0,0,1,27.55,0c14.67.9,19.76,6.59,19.76,6.59s-22.16,90.13-24.26,106.9-2.39,29.65-2.39,29.65H293s13.47-57.5,18.86-85.34S327.47,238.36,327.47,238.36Z" transform="translate(-61.23 -115.14)"/><path id="_Clipping_Path_11" data-name="&lt;Clipping Path&gt;" class="cls-7" d="M334.48,240.88s-4.11,17.32-4.11,27.57,7.07,23.48,18.69,19.15S362.51,271,362.51,263s-.45-18.91-.45-18.91-5.7,4.56-14.59,1.59S334.48,240.88,334.48,240.88Z" transform="translate(-61.23 -115.14)"/><g class="cls-8"><path class="cls-3" d="M362.47,258.2c-.12-7-.41-14.13-.41-14.13s-5.7,4.56-14.59,1.59-13-4.78-13-4.78-1.89,8-3.11,16.3c2.58,4.19,7.25,7.76,15.78,7.28C354,264.07,358.9,261.64,362.47,258.2Z" transform="translate(-61.23 -115.14)"/><path class="cls-9" d="M362.47,258.2c-.12-7-.41-14.13-.41-14.13s-5.7,4.56-14.59,1.59-13-4.78-13-4.78-1.89,8-3.11,16.3c2.58,4.19,7.25,7.76,15.78,7.28C354,264.07,358.9,261.64,362.47,258.2Z" transform="translate(-61.23 -115.14)"/></g><path id="_Clipping_Path_12" data-name="&lt;Clipping Path&gt;" class="cls-10" d="M334.48,240.88s-4.11,17.32-4.11,27.57,7.07,23.48,18.69,19.15S362.51,271,362.51,263s-.45-18.91-.45-18.91-5.7,4.56-14.59,1.59S334.48,240.88,334.48,240.88Z" transform="translate(-61.23 -115.14)"/><path id="_Path_2" data-name="&lt;Path&gt;" class="cls-10" d="M360.92,247.71s-5.47,7.3-7.07,14.59.91,11.63.91,11.63" transform="translate(-61.23 -115.14)"/><path id="_Compound_Clipping_Path_2" data-name="&lt;Compound Clipping Path&gt;" class="cls-7" d="M339,379.91c-.23-3.42-.46-14.36,6.61-32.36s12.53-44.91,13.9-67,2.51-36.47,2.51-36.47c0-4.11,1.59-6.61,13.67-4.79s39.43,5.7,39.21,9.35-16,54.7-17.78,68.15-1.37,18.91,5.47,15.49S419,323.16,419,323.16v10.25s-24.16,31-31.23,35.79-6.84,3.87-8.66-1.6-1.82-24.38-1.82-24.38c-7.69,21.08-7.28,33.14-6.43,38.28H339.15C339.12,381,339.08,380.52,339,379.91Zm48.53-76.44,9-33.5M259.29,381.5h41.49c1.36-5.77,7.62-32.13,12.27-46.49,5.24-16.18,12.08-36.24,13.45-48.32s7.07-44.22,7.07-44.22c.91-6.15,0-5.47,0-5.47s-43.77.68-47,.91-1.82,22.11-1.82,53.34C284.79,319.94,262.86,373.05,259.29,381.5Zm33.48-87.06,7.29-9.57" transform="translate(-61.23 -115.14)"/><g class="cls-11"><path class="cls-3" d="M397.16,316.78c.35-2.6,1.22-6.59,2.39-11.37l-8.35-1.57s-28.57,50.9-42.86,61.62c-3.2,2.4-6.31,4.58-9.09,6.62a45.61,45.61,0,0,0-.21,7.83c0,.61.08,1.12.11,1.59H370.9c-.85-5.14-1.26-17.2,6.43-38.28,0,0,0,18.91,1.82,24.38s1.6,6.39,8.66,1.6S419,333.41,419,333.41V323.16s-9.57,5.7-16.41,9.11S395.33,330.22,397.16,316.78Z" transform="translate(-61.23 -115.14)"/><path class="cls-3" d="M287.17,306.07l-6.56,13.12c-6.55,26.71-18.74,56.2-21.32,62.31h9.88Z" transform="translate(-61.23 -115.14)"/><path class="cls-9" d="M397.16,316.78c.35-2.6,1.22-6.59,2.39-11.37l-8.35-1.57s-28.57,50.9-42.86,61.62c-3.2,2.4-6.31,4.58-9.09,6.62a45.61,45.61,0,0,0-.21,7.83c0,.61.08,1.12.11,1.59H370.9c-.85-5.14-1.26-17.2,6.43-38.28,0,0,0,18.91,1.82,24.38s1.6,6.39,8.66,1.6S419,333.41,419,333.41V323.16s-9.57,5.7-16.41,9.11S395.33,330.22,397.16,316.78Z" transform="translate(-61.23 -115.14)"/><path class="cls-9" d="M287.17,306.07l-6.56,13.12c-6.55,26.71-18.74,56.2-21.32,62.31h9.88Z" transform="translate(-61.23 -115.14)"/></g><path id="_Compound_Clipping_Path_3" data-name="&lt;Compound Clipping Path&gt;" class="cls-10" d="M339,379.91c-.23-3.42-.46-14.36,6.61-32.36s12.53-44.91,13.9-67,2.51-36.47,2.51-36.47c0-4.11,1.59-6.61,13.67-4.79s39.43,5.7,39.21,9.35-16,54.7-17.78,68.15-1.37,18.91,5.47,15.49S419,323.16,419,323.16v10.25s-24.16,31-31.23,35.79-6.84,3.87-8.66-1.6-1.82-24.38-1.82-24.38c-7.69,21.08-7.28,33.14-6.43,38.28H339.15C339.12,381,339.08,380.52,339,379.91Zm48.53-76.44,9-33.5M259.29,381.5h41.49c1.36-5.77,7.62-32.13,12.27-46.49,5.24-16.18,12.08-36.24,13.45-48.32s7.07-44.22,7.07-44.22c.91-6.15,0-5.47,0-5.47s-43.77.68-47,.91-1.82,22.11-1.82,53.34C284.79,319.94,262.86,373.05,259.29,381.5Zm33.48-87.06,7.29-9.57" transform="translate(-61.23 -115.14)"/><polyline id="_Path_3" data-name="&lt;Path&gt;" class="cls-10" points="270.05 121.63 252.05 154 259.34 164.03 250.91 169.95 245.89 235.14"/><polyline class="cls-10" points="307.48 125.98 313 159.23 305.41 165.03 314.34 173.07 292.02 226.21"/><path id="_Clipping_Path_13" data-name="&lt;Clipping Path&gt;" class="cls-7" d="M310.77,331.59s11.63-4.79,18.46-10.48,18.92-22.57,21-22.34,14.36,9.12,20.52,11.17,10.71,2.05,10.48,3.42-2.73,2.73-7.52,2.73-17.78-6.84-17.78-6.84,7.07,9.12,5.93,10.26a65.2,65.2,0,0,1-14.59,8.66c-5.47,2.05-9.12,3.88-10.26,3.65s-.91-2.51-.22-3.19l2.05-2.05S334,330,331.51,330H329l-19.6,16.63Z" transform="translate(-61.23 -115.14)"/><g class="cls-12"><path class="cls-3" d="M379.2,315.21l-.2,0c-10.75-.74-25.56-9.63-25.56-9.63l2.46,3.69s13,6.84,17.78,6.84A14.55,14.55,0,0,0,379.2,315.21Z" transform="translate(-61.23 -115.14)"/><path class="cls-3" d="M355.66,317.78c-1.85,1.49-4.81-1.85-4.81-1.85s.74,7.41-1.48,7.78-5.19-1.85-5.19-1.85,0,4.81-2.22,4.81-5.55-7-5.55-7,.8,3.52-1.49,5.92-6.66,1.85-6.66,1.85L310.85,340l-1,1.16-.49,5.46L329,330h2.5c2.51,0,7.3-3.42,7.3-3.42l-2.05,2.05c-.69.68-.92,3,.22,3.19s4.79-1.6,10.26-3.65a65.2,65.2,0,0,0,14.59-8.66c1.14-1.14-5.93-10.26-5.93-10.26S357.51,316.3,355.66,317.78Z" transform="translate(-61.23 -115.14)"/><g class="cls-13"><path class="cls-7" d="M379.2,315.21l-.2,0c-10.75-.74-25.56-9.63-25.56-9.63l2.46,3.69s13,6.84,17.78,6.84A14.55,14.55,0,0,0,379.2,315.21Z" transform="translate(-61.23 -115.14)"/><path class="cls-7" d="M355.66,317.78c-1.85,1.49-4.81-1.85-4.81-1.85s.74,7.41-1.48,7.78-5.19-1.85-5.19-1.85,0,4.81-2.22,4.81-5.55-7-5.55-7,.8,3.52-1.49,5.92-6.66,1.85-6.66,1.85L310.85,340l-1,1.16-.49,5.46L329,330h2.5c2.51,0,7.3-3.42,7.3-3.42l-2.05,2.05c-.69.68-.92,3,.22,3.19s4.79-1.6,10.26-3.65a65.2,65.2,0,0,0,14.59-8.66c1.14-1.14-5.93-10.26-5.93-10.26S357.51,316.3,355.66,317.78Z" transform="translate(-61.23 -115.14)"/></g><line id="_Path_4" data-name="&lt;Path&gt;" class="cls-10" x1="277.57" y1="211.43" x2="275.98" y2="208.02"/><path id="_Path_5" data-name="&lt;Path&gt;" class="cls-10" d="M343.14,318.83s4.56,8.43,4.1,9.34" transform="translate(-61.23 -115.14)"/><path id="_Path_6" data-name="&lt;Path&gt;" class="cls-10" d="M349.29,312.67s7.07,10,5.93,11.63" transform="translate(-61.23 -115.14)"/></g><path id="_Clipping_Path_14" data-name="&lt;Clipping Path&gt;" class="cls-10" d="M310.77,331.59s11.63-4.79,18.46-10.48,18.92-22.57,21-22.34,14.36,9.12,20.52,11.17,10.71,2.05,10.48,3.42-2.73,2.73-7.52,2.73-17.78-6.84-17.78-6.84,7.07,9.12,5.93,10.26a65.2,65.2,0,0,1-14.59,8.66c-5.47,2.05-9.12,3.88-10.26,3.65s-.91-2.51-.22-3.19l2.05-2.05S334,330,331.51,330H329l-19.6,16.63Z" transform="translate(-61.23 -115.14)"/><path id="_Clipping_Path_15" data-name="&lt;Clipping Path&gt;" class="cls-7" d="M290.72,237.46s-7.53-.69-9.35-.69-4.56,1.37-5,7.52S246,365.55,246,368.51s4.53,4,18.53.46c11.81-3,46.89-14.81,46.89-14.81l3.1-24.89L278,336.61l17.78-52.2" transform="translate(-61.23 -115.14)"/><g class="cls-14"><path class="cls-3" d="M312.49,345.85c-2.58.69-43.44,11.66-51.22,14.25-8,2.68,8.93-10.72,3.13-10.27s-12.51,8.48-12.51,8.48l15.54-76.26C258.49,318,246,366.6,246,368.51c0,3,4.53,4,18.53.46,11.81-3,46.89-14.81,46.89-14.81Z" transform="translate(-61.23 -115.14)"/><path class="cls-9" d="M312.49,345.85c-2.58.69-43.44,11.66-51.22,14.25-8,2.68,8.93-10.72,3.13-10.27s-12.51,8.48-12.51,8.48l15.54-76.26C258.49,318,246,366.6,246,368.51c0,3,4.53,4,18.53.46,11.81-3,46.89-14.81,46.89-14.81Z" transform="translate(-61.23 -115.14)"/></g><path id="_Clipping_Path_16" data-name="&lt;Clipping Path&gt;" class="cls-10" d="M290.72,237.46s-7.53-.69-9.35-.69-4.56,1.37-5,7.52S246,365.55,246,368.51s4.53,4,18.53.46c11.81-3,46.89-14.81,46.89-14.81l3.1-24.89L278,336.61l17.78-52.2" transform="translate(-61.23 -115.14)"/><polygon id="_Path_7" data-name="&lt;Path&gt;" class="cls-5" points="230.99 185.38 228.94 210.91 245.4 211.57 246.94 186.75 230.99 185.38"/><polygon id="_Path_8" data-name="&lt;Path&gt;" class="cls-1" points="237.15 178.96 236.92 188.99 241.25 189.22 241.48 178.96 237.15 178.96"/><path id="_Path_9" data-name="&lt;Path&gt;" class="cls-5" d="M387.55,287.79l-29.3,64.1a2.59,2.59,0,0,0,2.33,3.67l47.48.4a2.58,2.58,0,0,0,2.35-1.45L441,291.43a2.59,2.59,0,0,0-2.26-3.72L390,286.28A2.61,2.61,0,0,0,387.55,287.79Z" transform="translate(-61.23 -115.14)"/><line id="_Path_10" data-name="&lt;Path&gt;" class="cls-15" x1="307.01" y1="218.02" x2="304.66" y2="223.14"/><path id="_Path_11" data-name="&lt;Path&gt;" class="cls-15" d="M398.21,287.48l-7.25-.22a2.6,2.6,0,0,0-2.43,1.52L370,329.25" transform="translate(-61.23 -115.14)"/><line id="_Path_12" data-name="&lt;Path&gt;" class="cls-15" x1="343.09" y1="172.51" x2="339.25" y2="172.4"/><path id="_Clipping_Path_17" data-name="&lt;Clipping Path&gt;" class="cls-3" d="M431.66,325.17s-5.67,2.45-10,4.13-1.84,3.22-.15,3.22,8.27-2,10.72-3.52S434.41,324.71,431.66,325.17Z" transform="translate(-61.23 -115.14)"/><g class="cls-16"><path id="_Path_13" data-name="&lt;Path&gt;" class="cls-9" d="M431.66,325.17s-5.67,2.45-10,4.13-1.84,3.22-.15,3.22,8.27-2,10.72-3.52S434.41,324.71,431.66,325.17Z" transform="translate(-61.23 -115.14)"/></g><path id="_Clipping_Path_18" data-name="&lt;Clipping Path&gt;" class="cls-10" d="M431.66,325.17s-5.67,2.45-10,4.13-1.84,3.22-.15,3.22,8.27-2,10.72-3.52S434.41,324.71,431.66,325.17Z" transform="translate(-61.23 -115.14)"/><path id="_Clipping_Path_19" data-name="&lt;Clipping Path&gt;" class="cls-3" d="M434.79,319.22s-7.7,3.33-13.53,5.61-2.49,4.37-.2,4.37,11.23-2.7,14.56-4.78S438.53,318.59,434.79,319.22Z" transform="translate(-61.23 -115.14)"/><g class="cls-17"><path id="_Path_14" data-name="&lt;Path&gt;" class="cls-9" d="M434.79,319.22s-7.7,3.33-13.53,5.61-2.49,4.37-.2,4.37,11.23-2.7,14.56-4.78S438.53,318.59,434.79,319.22Z" transform="translate(-61.23 -115.14)"/></g><path id="_Clipping_Path_20" data-name="&lt;Clipping Path&gt;" class="cls-10" d="M434.79,319.22s-7.7,3.33-13.53,5.61-2.49,4.37-.2,4.37,11.23-2.7,14.56-4.78S438.53,318.59,434.79,319.22Z" transform="translate(-61.23 -115.14)"/><path id="_Clipping_Path_21" data-name="&lt;Clipping Path&gt;" class="cls-3" d="M434.56,313.66s-8.44,3.64-14.82,6.15-2.73,4.79-.23,4.79,12.31-3,16-5.25S438.66,313,434.56,313.66Z" transform="translate(-61.23 -115.14)"/><g class="cls-18"><path id="_Path_15" data-name="&lt;Path&gt;" class="cls-9" d="M434.56,313.66s-8.44,3.64-14.82,6.15-2.73,4.79-.23,4.79,12.31-3,16-5.25S438.66,313,434.56,313.66Z" transform="translate(-61.23 -115.14)"/></g><path id="_Clipping_Path_22" data-name="&lt;Clipping Path&gt;" class="cls-10" d="M434.56,313.66s-8.44,3.64-14.82,6.15-2.73,4.79-.23,4.79,12.31-3,16-5.25S438.66,313,434.56,313.66Z" transform="translate(-61.23 -115.14)"/><path id="_Clipping_Path_23" data-name="&lt;Clipping Path&gt;" class="cls-3" d="M435.22,308.57s-8.43,3.65-14.81,6.15-2.74,4.79-.23,4.79,12.31-3,15.95-5.24S439.32,307.89,435.22,308.57Z" transform="translate(-61.23 -115.14)"/><g class="cls-19"><path id="_Path_16" data-name="&lt;Path&gt;" class="cls-9" d="M435.22,308.57s-8.43,3.65-14.81,6.15-2.74,4.79-.23,4.79,12.31-3,15.95-5.24S439.32,307.89,435.22,308.57Z" transform="translate(-61.23 -115.14)"/></g><path id="_Clipping_Path_24" data-name="&lt;Clipping Path&gt;" class="cls-10" d="M435.22,308.57s-8.43,3.65-14.81,6.15-2.74,4.79-.23,4.79,12.31-3,15.95-5.24S439.32,307.89,435.22,308.57Z" transform="translate(-61.23 -115.14)"/><path id="_Clipping_Path_25" data-name="&lt;Clipping Path&gt;" class="cls-7" d="M349.29,182.75s-16.41,10.49-19.83,14.59-1.82,12.77-1.59,15.5.45,21,2.05,23.93,6.49,14.72,22.41,14c11.47-.53,17.25-9.87,19.53-15.8a50.17,50.17,0,0,0,2.73-12.76s6.63-1.15,6.63-6.62-1.48-11.85-4.58-11.16c-1.57.35-3.64,3.87-3.64,3.87a87.66,87.66,0,0,1-16-14.13C349.75,185.72,349.29,182.75,349.29,182.75Z" transform="translate(-61.23 -115.14)"/><g class="cls-20"><path class="cls-3" d="M348.26,192.24s15,19.86,24.74,16a87.66,87.66,0,0,1-16-14.13c-7.29-8.43-7.75-11.4-7.75-11.4s-16.41,10.49-19.83,14.59a8.63,8.63,0,0,0-1.61,3.38Z" transform="translate(-61.23 -115.14)"/><path class="cls-3" d="M381,212.22a18,18,0,0,1-1.29,5.2c-1.86,4.08-6.67,3.34-6.67,3.34s-3,15.55-7,20.36-15.18,8.89-26.29,3.34-9.63-19.26-9.63-19.26,6.67,0,9.26-6.3-.74-9.26-7.41-8.88a6.67,6.67,0,0,0-4.21,1.71c.05.43.09.81.12,1.11.23,2.74.45,21,2.05,23.93s6.49,14.72,22.41,14c11.47-.53,17.25-9.87,19.53-15.8a50.17,50.17,0,0,0,2.73-12.76s6.63-1.15,6.63-6.62A31.49,31.49,0,0,0,381,212.22Z" transform="translate(-61.23 -115.14)"/><path class="cls-9" d="M381,212.22a18,18,0,0,1-1.29,5.2c-1.86,4.08-6.67,3.34-6.67,3.34s-3,15.55-7,20.36-15.18,8.89-26.29,3.34-9.63-19.26-9.63-19.26,6.67,0,9.26-6.3-.74-9.26-7.41-8.88a6.67,6.67,0,0,0-4.21,1.71c.05.43.09.81.12,1.11.23,2.74.45,21,2.05,23.93s6.49,14.72,22.41,14c11.47-.53,17.25-9.87,19.53-15.8a50.17,50.17,0,0,0,2.73-12.76s6.63-1.15,6.63-6.62A31.49,31.49,0,0,0,381,212.22Z" transform="translate(-61.23 -115.14)"/><circle class="cls-3" cx="358.75" cy="214.37" r="9.14" transform="translate(-116.1 39.42) rotate(-22.63)"/><circle class="cls-9" cx="358.75" cy="214.37" r="9.14" transform="translate(-116.1 39.42) rotate(-22.63)"/><path class="cls-9" d="M348.26,192.24s15,19.86,24.74,16a87.66,87.66,0,0,1-16-14.13c-7.29-8.43-7.75-11.4-7.75-11.4s-16.41,10.49-19.83,14.59a8.63,8.63,0,0,0-1.61,3.38Z" transform="translate(-61.23 -115.14)"/></g><path id="_Clipping_Path_26" data-name="&lt;Clipping Path&gt;" class="cls-10" d="M349.29,182.75s-16.41,10.49-19.83,14.59-1.82,12.77-1.59,15.5.45,21,2.05,23.93,6.49,14.72,22.41,14c11.47-.53,17.25-9.87,19.53-15.8a50.17,50.17,0,0,0,2.73-12.76s6.63-1.15,6.63-6.62-1.48-11.85-4.58-11.16c-1.57.35-3.64,3.87-3.64,3.87a87.66,87.66,0,0,1-16-14.13C349.75,185.72,349.29,182.75,349.29,182.75Z" transform="translate(-61.23 -115.14)"/><circle id="_Clipping_Path_27" data-name="&lt;Clipping Path&gt;" class="cls-7" cx="272.1" cy="96.33" r="9.34"/><g class="cls-21"><path class="cls-3" d="M325.61,216.73a9.35,9.35,0,0,0,16.64-8.07c-.78,1.71-1.71,3-2.72,3.08-3.16.27-3.75-.41-6.19-.27C331.76,211.57,328.05,214.59,325.61,216.73Z" transform="translate(-61.23 -115.14)"/></g><circle id="_Clipping_Path_28" data-name="&lt;Clipping Path&gt;" class="cls-10" cx="272.1" cy="96.33" r="9.34"/><circle id="_Clipping_Path_29" data-name="&lt;Clipping Path&gt;" class="cls-7" cx="297.63" cy="96.33" r="9.34"/><g class="cls-22"><path class="cls-3" d="M358.87,220.82a9.35,9.35,0,0,0,9.34-9.35,9.18,9.18,0,0,0-.48-2.93c-3.24,5.79-7.19,2.77-11.15,2.37-2.38-.24-4.62,2.38-6.1,4.67A9.34,9.34,0,0,0,358.87,220.82Z" transform="translate(-61.23 -115.14)"/></g><circle id="_Clipping_Path_30" data-name="&lt;Clipping Path&gt;" class="cls-10" cx="297.63" cy="96.33" r="9.34"/><path id="_Path_17" data-name="&lt;Path&gt;" class="cls-10" d="M342.68,207.83s3.88-3.42,7.3,0" transform="translate(-61.23 -115.14)"/><path id="_Path_18" data-name="&lt;Path&gt;" class="cls-10" d="M329.92,199.62s3.42-4.79,8.89-3.65" transform="translate(-61.23 -115.14)"/><path id="_Path_19" data-name="&lt;Path&gt;" class="cls-10" d="M350.89,195.52s5.47-2.28,10.71,3.87" transform="translate(-61.23 -115.14)"/><path id="_Path_20" data-name="&lt;Path&gt;" class="cls-10" d="M344.05,211.25s.68,5.47-.68,8-4.33,3.88-3.19,5.7,5,2.74,5,2.74" transform="translate(-61.23 -115.14)"/><path id="_Path_21" data-name="&lt;Path&gt;" class="cls-10" d="M344.28,232.9s5.7,1.37,9.57-2.74" transform="translate(-61.23 -115.14)"/><line id="_Path_22" data-name="&lt;Path&gt;" class="cls-10" x1="76.65" y1="266.35" x2="0.5" y2="266.35"/><line id="_Path_23" data-name="&lt;Path&gt;" class="cls-10" x1="347.07" y1="266.35" x2="85.56" y2="266.35"/><line id="_Path_24" data-name="&lt;Path&gt;" class="cls-10" x1="363.78" y1="266.35" x2="354.49" y2="266.35"/></g><g id="Graphics"><rect id="_Rectangle_" data-name="&lt;Rectangle&gt;" class="cls-23" x="13.4" y="132.11" width="181.67" height="113.15"/><path class="cls-2" d="M71.67,240.49V367.16H259.25V240.49ZM256.3,360.4H74.63V247.26H256.3Z" transform="translate(-61.23 -115.14)"/><path id="_Rectangle_2" data-name="&lt;Rectangle&gt;" class="cls-2" d="M20.66,135.7h121.4a3.37,3.37,0,0,1,3.37,3.37v3.28a3.38,3.38,0,0,1-3.38,3.38H20.66a3.37,3.37,0,0,1-3.37-3.37v-3.28a3.37,3.37,0,0,1,3.37-3.37Z"/><line id="_Path_25" data-name="&lt;Path&gt;" class="cls-10" x1="19.37" y1="157.07" x2="45.74" y2="157.07"/><line id="_Path_26" data-name="&lt;Path&gt;" class="cls-10" x1="19.37" y1="163.01" x2="45.74" y2="163.01"/><line id="_Path_27" data-name="&lt;Path&gt;" class="cls-10" x1="19.37" y1="168.96" x2="45.74" y2="168.96"/><line id="_Path_28" data-name="&lt;Path&gt;" class="cls-10" x1="19.37" y1="175.27" x2="45.74" y2="175.27"/><line id="_Path_29" data-name="&lt;Path&gt;" class="cls-10" x1="50.87" y1="157.07" x2="77.24" y2="157.07"/><line id="_Path_30" data-name="&lt;Path&gt;" class="cls-10" x1="50.87" y1="163.01" x2="77.24" y2="163.01"/><line id="_Path_31" data-name="&lt;Path&gt;" class="cls-10" x1="50.87" y1="168.96" x2="77.24" y2="168.96"/><line id="_Path_32" data-name="&lt;Path&gt;" class="cls-10" x1="50.87" y1="175.27" x2="77.24" y2="175.27"/><line id="_Path_33" data-name="&lt;Path&gt;" class="cls-10" x1="82.37" y1="157.07" x2="108.74" y2="157.07"/><line id="_Path_34" data-name="&lt;Path&gt;" class="cls-10" x1="82.37" y1="163.01" x2="108.74" y2="163.01"/><line id="_Path_35" data-name="&lt;Path&gt;" class="cls-10" x1="82.37" y1="168.96" x2="108.74" y2="168.96"/><line id="_Path_36" data-name="&lt;Path&gt;" class="cls-10" x1="82.37" y1="175.27" x2="108.74" y2="175.27"/><line id="_Path_37" data-name="&lt;Path&gt;" class="cls-10" x1="113.87" y1="157.07" x2="140.24" y2="157.07"/><line id="_Path_38" data-name="&lt;Path&gt;" class="cls-10" x1="113.87" y1="163.01" x2="140.24" y2="163.01"/><line id="_Path_39" data-name="&lt;Path&gt;" class="cls-10" x1="113.87" y1="168.96" x2="140.24" y2="168.96"/><line id="_Path_40" data-name="&lt;Path&gt;" class="cls-10" x1="113.87" y1="175.27" x2="140.24" y2="175.27"/><g id="_Group_" data-name="&lt;Group&gt;"><polyline id="_Path_41" data-name="&lt;Path&gt;" class="cls-10" points="35.25 217.51 57.64 195.11 74.12 209.9 88.06 197.22 108.77 212.86 131.16 189.2"/><circle id="_Path_42" data-name="&lt;Path&gt;" class="cls-2" cx="57.64" cy="195.11" r="2.96"/><circle id="_Path_43" data-name="&lt;Path&gt;" class="cls-2" cx="88.06" cy="197.22" r="2.96"/><circle id="_Path_44" data-name="&lt;Path&gt;" class="cls-2" cx="108.77" cy="212.86" r="2.96"/><circle id="_Path_45" data-name="&lt;Path&gt;" class="cls-2" cx="130.74" cy="189.2" r="2.96"/><circle id="_Path_46" data-name="&lt;Path&gt;" class="cls-2" cx="35.25" cy="217.51" r="2.96"/><circle id="_Path_47" data-name="&lt;Path&gt;" class="cls-2" cx="74.12" cy="209.06" r="2.96"/></g><path class="cls-2" d="M214.82,357.87h0a1.71,1.71,0,0,1-1.71-1.7V252.37a1.72,1.72,0,0,1,1.71-1.71h0a1.71,1.71,0,0,1,1.7,1.71v103.8A1.7,1.7,0,0,1,214.82,357.87Z" transform="translate(-61.23 -115.14)"/><line class="cls-10" x1="172.35" y1="156.39" x2="191.37" y2="156.39"/><line class="cls-10" x1="158.76" y1="156.39" x2="165.41" y2="156.39"/><line class="cls-10" x1="188.05" y1="161.4" x2="191.37" y2="161.4"/><line class="cls-10" x1="178.69" y1="161.4" x2="185.33" y2="161.4"/><line class="cls-10" x1="158.76" y1="161.4" x2="174.16" y2="161.4"/><line class="cls-10" x1="174.46" y1="166.42" x2="191.37" y2="166.42"/><line class="cls-10" x1="158.76" y1="166.42" x2="170.84" y2="166.42"/><line class="cls-10" x1="184.12" y1="171.44" x2="191.37" y2="171.44"/><line class="cls-10" x1="166.01" y1="171.44" x2="181.1" y2="171.44"/><line class="cls-10" x1="158.76" y1="171.44" x2="162.69" y2="171.44"/><line class="cls-10" x1="172.35" y1="175.83" x2="191.37" y2="175.83"/><line class="cls-10" x1="158.76" y1="175.83" x2="165.41" y2="175.83"/><line class="cls-10" x1="188.05" y1="180.84" x2="191.37" y2="180.84"/><line class="cls-10" x1="178.69" y1="180.84" x2="185.33" y2="180.84"/><line class="cls-10" x1="158.76" y1="180.84" x2="174.16" y2="180.84"/><line class="cls-10" x1="174.46" y1="185.86" x2="191.37" y2="185.86"/><line class="cls-10" x1="158.76" y1="185.86" x2="170.84" y2="185.86"/><line class="cls-10" x1="184.12" y1="190.87" x2="191.37" y2="190.87"/><line class="cls-10" x1="166.01" y1="190.87" x2="181.1" y2="190.87"/><line class="cls-10" x1="158.76" y1="190.87" x2="162.69" y2="190.87"/><line class="cls-10" x1="172.35" y1="195.26" x2="191.37" y2="195.26"/><line class="cls-10" x1="158.76" y1="195.26" x2="165.41" y2="195.26"/><line class="cls-10" x1="188.05" y1="200.28" x2="191.37" y2="200.28"/><line class="cls-10" x1="178.69" y1="200.28" x2="185.33" y2="200.28"/><line class="cls-10" x1="158.76" y1="200.28" x2="174.16" y2="200.28"/><line class="cls-10" x1="174.46" y1="205.29" x2="191.37" y2="205.29"/><line class="cls-10" x1="158.76" y1="205.29" x2="170.84" y2="205.29"/><line class="cls-10" x1="184.12" y1="210.31" x2="191.37" y2="210.31"/><line class="cls-10" x1="166.01" y1="210.31" x2="181.1" y2="210.31"/><line class="cls-10" x1="158.76" y1="210.31" x2="162.69" y2="210.31"/><line class="cls-10" x1="172.35" y1="214.7" x2="191.37" y2="214.7"/><line class="cls-10" x1="158.76" y1="214.7" x2="165.41" y2="214.7"/><line class="cls-10" x1="188.05" y1="219.72" x2="191.37" y2="219.72"/><line class="cls-10" x1="178.69" y1="219.72" x2="185.33" y2="219.72"/><line class="cls-10" x1="158.76" y1="219.72" x2="174.16" y2="219.72"/><line class="cls-10" x1="174.46" y1="224.73" x2="191.37" y2="224.73"/><line class="cls-10" x1="158.76" y1="224.73" x2="170.84" y2="224.73"/><line class="cls-10" x1="184.12" y1="229.75" x2="191.37" y2="229.75"/><line class="cls-10" x1="166.01" y1="229.75" x2="181.1" y2="229.75"/><line class="cls-10" x1="158.76" y1="229.75" x2="162.69" y2="229.75"/><rect class="cls-3" x="21.56" y="232.22" width="4.5" height="10"/><rect class="cls-24" x="30.56" y="236.69" width="4.5" height="5.54"/><rect class="cls-3" x="39.56" y="239.26" width="4.5" height="2.96"/><rect class="cls-24" x="48.56" y="235.14" width="4.5" height="7.08"/><rect class="cls-3" x="57.56" y="237.72" width="4.5" height="4.51"/><rect class="cls-24" x="66.56" y="234.8" width="4.5" height="7.43"/><rect class="cls-3" x="75.56" y="240.98" width="4.5" height="1.25"/><rect class="cls-24" x="84.56" y="232.22" width="4.5" height="10"/><rect class="cls-3" x="93.56" y="238.58" width="4.5" height="3.65"/><rect class="cls-24" x="102.56" y="240.81" width="4.5" height="1.42"/><rect class="cls-3" x="111.56" y="238.92" width="4.5" height="3.31"/><rect class="cls-24" x="120.56" y="232.22" width="4.5" height="10"/><rect class="cls-3" x="129.56" y="234.28" width="4.5" height="7.94"/><rect class="cls-24" x="138.56" y="235.66" width="4.5" height="6.57"/></g></svg>