<svg xmlns="http://www.w3.org/2000/svg" xmlns:xlink="http://www.w3.org/1999/xlink" viewBox="0 0 414.96 366.5"><defs><style>.cls-1,.cls-22{fill:#bebebe;}.cls-1,.cls-16,.cls-17,.cls-18,.cls-19,.cls-20,.cls-21,.cls-25{stroke:#263238;}.cls-1,.cls-17,.cls-18,.cls-19,.cls-20,.cls-21,.cls-25,.cls-8,.cls-9{stroke-linejoin:round;}.cls-19,.cls-2{fill:#fb0;}.cls-20,.cls-3,.cls-4,.cls-5,.cls-8{fill:#fff;}.cls-3{opacity:0.8;}.cls-4{opacity:0.5;}.cls-16,.cls-17,.cls-25,.cls-6,.cls-7{fill:none;}.cls-6{stroke:#8d8d8d;stroke-width:0.5px;}.cls-16,.cls-6,.cls-7{stroke-miterlimit:10;}.cls-7,.cls-8,.cls-9{stroke:#fb0;}.cls-17,.cls-18,.cls-7,.cls-8,.cls-9{stroke-linecap:round;}.cls-7{stroke-width:2px;}.cls-12,.cls-18,.cls-21,.cls-9{fill:#263238;}.cls-10{fill:#dbdbdb;}.cls-11{fill:#888;}.cls-13{fill:#ededed;}.cls-14{fill:#a1a1a1;}.cls-15{fill:#595959;}.cls-23{clip-path:url(#clip-path);}.cls-24{fill:#9f9f9f;}</style><clipPath id="clip-path" transform="translate(-45.7 -50.66)"><path id="_Clipping_Path_" data-name="&lt;Clipping Path&gt;" class="cls-1" d="M286.41,257.7s-6.26,3.8-6.8,13.59,1.63,35.07,3,39.14,8.16,8.16,13.32,7.07c0,0,2.17,23.92,4.62,23.38s15.22-17.67,15.77-22.56,1.36-20.66,1.36-20.66a173.61,173.61,0,0,0,1.9-22.29c0-10.06-2.45-18.22-11.15-21.21S292.39,253.35,286.41,257.7Z"/></clipPath></defs><title>stats</title><g id="Background_Simple" data-name="Background Simple"><path class="cls-2" d="M370.89,73.06S324.72,37.71,266.68,55.83s-81,69.34-113.48,105.07c-17,18.71-42.78,26.21-63.24,40.84-65.4,46.78-52.37,147,.32,183.25,45.62,31.43,101.45,33.12,173.21,6.65s123.19-42.63,166-113.36S427.9,121.23,370.89,73.06Z" transform="translate(-45.7 -50.66)"/><path class="cls-3" d="M370.89,73.06S324.72,37.71,266.68,55.83s-81,69.34-113.48,105.07c-17,18.71-42.78,26.21-63.24,40.84-65.4,46.78-52.37,147,.32,183.25,45.62,31.43,101.45,33.12,173.21,6.65s123.19-42.63,166-113.36S427.9,121.23,370.89,73.06Z" transform="translate(-45.7 -50.66)"/></g><g id="Page"><rect class="cls-2" x="49.91" y="68.39" width="302.79" height="250.89"/><rect class="cls-4" x="49.91" y="68.39" width="302.79" height="250.89"/><rect class="cls-5" x="57.2" y="113.99" width="282.23" height="128.46"/><line class="cls-6" x1="66.14" y1="223.99" x2="329.05" y2="223.99"/><line class="cls-6" x1="66.14" y1="223.99" x2="66.14" y2="221.41"/><line class="cls-6" x1="79.98" y1="223.99" x2="79.98" y2="221.41"/><line class="cls-6" x1="93.81" y1="223.99" x2="93.81" y2="221.41"/><line class="cls-6" x1="107.65" y1="223.99" x2="107.65" y2="221.41"/><line class="cls-6" x1="121.49" y1="223.99" x2="121.49" y2="221.41"/><line class="cls-6" x1="135.33" y1="223.99" x2="135.33" y2="221.41"/><line class="cls-6" x1="149.16" y1="223.99" x2="149.16" y2="221.41"/><line class="cls-6" x1="163" y1="223.99" x2="163" y2="221.41"/><line class="cls-6" x1="176.84" y1="223.99" x2="176.84" y2="221.41"/><line class="cls-6" x1="190.67" y1="223.99" x2="190.67" y2="221.41"/><line class="cls-6" x1="204.51" y1="223.99" x2="204.51" y2="221.41"/><line class="cls-6" x1="218.35" y1="223.99" x2="218.35" y2="221.41"/><line class="cls-6" x1="232.19" y1="223.99" x2="232.19" y2="221.41"/><line class="cls-6" x1="246.02" y1="223.99" x2="246.02" y2="221.41"/><line class="cls-6" x1="259.86" y1="223.99" x2="259.86" y2="221.41"/><line class="cls-6" x1="273.7" y1="223.99" x2="273.7" y2="221.41"/><line class="cls-6" x1="287.54" y1="223.99" x2="287.54" y2="221.41"/><line class="cls-6" x1="301.37" y1="223.99" x2="301.37" y2="221.41"/><line class="cls-6" x1="315.21" y1="223.99" x2="315.21" y2="221.41"/><line class="cls-6" x1="329.05" y1="223.99" x2="329.05" y2="221.41"/><line class="cls-6" x1="66.14" y1="223.99" x2="66.14" y2="120.86"/><line class="cls-6" x1="66.14" y1="223.99" x2="72.71" y2="223.99"/><line class="cls-6" x1="66.14" y1="203.36" x2="58.88" y2="203.36"/><line class="cls-6" x1="66.14" y1="182.74" x2="58.88" y2="182.74"/><line class="cls-6" x1="66.14" y1="162.11" x2="58.88" y2="162.11"/><line class="cls-6" x1="66.14" y1="141.49" x2="58.88" y2="141.49"/><line class="cls-6" x1="66.14" y1="120.86" x2="58.88" y2="120.86"/><line class="cls-7" x1="86.89" y1="141.49" x2="73.06" y2="203.36"/><line class="cls-7" x1="100.73" y1="176.55" x2="86.89" y2="141.49"/><line class="cls-7" x1="114.57" y1="162.11" x2="100.73" y2="176.55"/><line class="cls-7" x1="128.41" y1="199.24" x2="114.57" y2="162.11"/><line class="cls-7" x1="142.24" y1="141.49" x2="128.41" y2="199.24"/><line class="cls-7" x1="156.08" y1="120.86" x2="142.24" y2="141.49"/><line class="cls-7" x1="169.92" y1="213.67" x2="156.08" y2="120.86"/><line class="cls-7" x1="183.76" y1="207.49" x2="169.92" y2="213.67"/><line class="cls-7" x1="197.59" y1="205.42" x2="183.76" y2="207.49"/><line class="cls-7" x1="211.43" y1="199.24" x2="197.59" y2="205.42"/><line class="cls-7" x1="225.27" y1="190.99" x2="211.43" y2="199.24"/><line class="cls-7" x1="239.1" y1="195.11" x2="225.27" y2="190.99"/><line class="cls-7" x1="252.94" y1="203.36" x2="239.1" y2="195.11"/><line class="cls-7" x1="266.78" y1="160.05" x2="252.94" y2="203.36"/><line class="cls-7" x1="280.62" y1="153.86" x2="266.78" y2="160.05"/><line class="cls-7" x1="294.45" y1="145.61" x2="280.62" y2="153.86"/><line class="cls-7" x1="308.29" y1="153.86" x2="294.45" y2="145.61"/><line class="cls-7" x1="322.13" y1="162.11" x2="308.29" y2="153.86"/><path class="cls-8" d="M118.75,251.58h0A2.45,2.45,0,0,1,121.2,254h0a2.45,2.45,0,0,1-2.45,2.45h0a2.45,2.45,0,0,1-2.44-2.45h0A2.44,2.44,0,0,1,118.75,251.58Z" transform="translate(-45.7 -50.66)"/><path class="cls-8" d="M132.59,189.7h0a2.45,2.45,0,0,1,2.45,2.45h0a2.45,2.45,0,0,1-2.45,2.44h0a2.45,2.45,0,0,1-2.45-2.44h0A2.45,2.45,0,0,1,132.59,189.7Z" transform="translate(-45.7 -50.66)"/><path class="cls-8" d="M146.43,224.77h0a2.44,2.44,0,0,1,2.44,2.44h0a2.45,2.45,0,0,1-2.44,2.45h0a2.45,2.45,0,0,1-2.45-2.45h0A2.45,2.45,0,0,1,146.43,224.77Z" transform="translate(-45.7 -50.66)"/><path class="cls-8" d="M160.26,210.33h0a2.44,2.44,0,0,1,2.45,2.44h0a2.45,2.45,0,0,1-2.45,2.45h0a2.45,2.45,0,0,1-2.44-2.45h0A2.44,2.44,0,0,1,160.26,210.33Z" transform="translate(-45.7 -50.66)"/><path class="cls-8" d="M174.1,247.45h0a2.45,2.45,0,0,1,2.45,2.45h0a2.45,2.45,0,0,1-2.45,2.44h0a2.44,2.44,0,0,1-2.44-2.44h0A2.45,2.45,0,0,1,174.1,247.45Z" transform="translate(-45.7 -50.66)"/><path class="cls-8" d="M187.94,189.7h0a2.45,2.45,0,0,1,2.44,2.45h0a2.44,2.44,0,0,1-2.44,2.44h0a2.45,2.45,0,0,1-2.45-2.44h0A2.45,2.45,0,0,1,187.94,189.7Z" transform="translate(-45.7 -50.66)"/><path class="cls-9" d="M201.78,169.08h0a2.44,2.44,0,0,1,2.44,2.44h0a2.45,2.45,0,0,1-2.44,2.45h0a2.45,2.45,0,0,1-2.45-2.45h0A2.45,2.45,0,0,1,201.78,169.08Z" transform="translate(-45.7 -50.66)"/><path class="cls-8" d="M215.61,261.89h0a2.45,2.45,0,0,1,2.45,2.45h0a2.45,2.45,0,0,1-2.45,2.44h0a2.44,2.44,0,0,1-2.44-2.44h0A2.45,2.45,0,0,1,215.61,261.89Z" transform="translate(-45.7 -50.66)"/><path class="cls-8" d="M229.45,255.7h0a2.45,2.45,0,0,1,2.45,2.45h0a2.45,2.45,0,0,1-2.45,2.44h0a2.44,2.44,0,0,1-2.44-2.44h0A2.45,2.45,0,0,1,229.45,255.7Z" transform="translate(-45.7 -50.66)"/><path class="cls-8" d="M243.29,253.64h0a2.45,2.45,0,0,1,2.44,2.45h0a2.44,2.44,0,0,1-2.44,2.44h0a2.45,2.45,0,0,1-2.45-2.44h0A2.45,2.45,0,0,1,243.29,253.64Z" transform="translate(-45.7 -50.66)"/><path class="cls-8" d="M257.13,247.45h0a2.45,2.45,0,0,1,2.44,2.45h0a2.44,2.44,0,0,1-2.44,2.44h0a2.44,2.44,0,0,1-2.45-2.44h0A2.45,2.45,0,0,1,257.13,247.45Z" transform="translate(-45.7 -50.66)"/><path class="cls-8" d="M271,239.2h0a2.45,2.45,0,0,1,2.45,2.45h0a2.45,2.45,0,0,1-2.45,2.44h0a2.44,2.44,0,0,1-2.44-2.44h0A2.45,2.45,0,0,1,271,239.2Z" transform="translate(-45.7 -50.66)"/><path class="cls-8" d="M284.8,243.33h0a2.45,2.45,0,0,1,2.45,2.44h0a2.45,2.45,0,0,1-2.45,2.45h0a2.45,2.45,0,0,1-2.45-2.45h0A2.45,2.45,0,0,1,284.8,243.33Z" transform="translate(-45.7 -50.66)"/><path class="cls-8" d="M298.64,251.58h0a2.44,2.44,0,0,1,2.44,2.44h0a2.45,2.45,0,0,1-2.44,2.45h0a2.45,2.45,0,0,1-2.45-2.45h0A2.45,2.45,0,0,1,298.64,251.58Z" transform="translate(-45.7 -50.66)"/><path class="cls-8" d="M312.47,208.27h0a2.44,2.44,0,0,1,2.45,2.44h0a2.45,2.45,0,0,1-2.45,2.45h0a2.45,2.45,0,0,1-2.44-2.45h0A2.44,2.44,0,0,1,312.47,208.27Z" transform="translate(-45.7 -50.66)"/><path class="cls-8" d="M326.31,202.08h0a2.45,2.45,0,0,1,2.45,2.44h0a2.45,2.45,0,0,1-2.45,2.45h0a2.45,2.45,0,0,1-2.44-2.45h0A2.44,2.44,0,0,1,326.31,202.08Z" transform="translate(-45.7 -50.66)"/><path class="cls-8" d="M340.15,193.83h0a2.44,2.44,0,0,1,2.44,2.44h0a2.45,2.45,0,0,1-2.44,2.45h0a2.45,2.45,0,0,1-2.45-2.45h0A2.45,2.45,0,0,1,340.15,193.83Z" transform="translate(-45.7 -50.66)"/><path class="cls-8" d="M354,202.08h0a2.44,2.44,0,0,1,2.44,2.44h0A2.45,2.45,0,0,1,354,207h0a2.45,2.45,0,0,1-2.45-2.45h0A2.45,2.45,0,0,1,354,202.08Z" transform="translate(-45.7 -50.66)"/><path class="cls-8" d="M367.82,210.33h0a2.45,2.45,0,0,1,2.45,2.44h0a2.45,2.45,0,0,1-2.45,2.45h0a2.45,2.45,0,0,1-2.44-2.45h0A2.44,2.44,0,0,1,367.82,210.33Z" transform="translate(-45.7 -50.66)"/><rect class="cls-10" x="344.88" y="68.39" width="7.82" height="250.89"/><rect class="cls-11" x="344.88" y="99.33" width="7.82" height="63.91"/><rect class="cls-12" x="49.91" y="68.39" width="302.79" height="15.36"/><path class="cls-12" d="M49.91,88.42h75.75a2,2,0,0,1,2,2v8.28a2,2,0,0,1-2,2H49.91a0,0,0,0,1,0,0V88.42A0,0,0,0,1,49.91,88.42Z"/><path class="cls-2" d="M107.79,146.18l.8-5.33h1.64v7.5h-1.12V143l-.81,5.38h-1.11l-.88-5.3v5.3h-1v-7.5h1.64Z" transform="translate(-45.7 -50.66)"/><path class="cls-2" d="M114.9,148.35h-1.19l-.2-1.36h-1.45l-.2,1.36h-1.08l1.2-7.5h1.72ZM112.21,146h1.14l-.57-3.79Z" transform="translate(-45.7 -50.66)"/><path class="cls-2" d="M117.91,148.35a2.44,2.44,0,0,1-.1-.92v-1.18c0-.69-.24-.95-.78-.95h-.4v3h-1.18v-7.5h1.78c1.22,0,1.74.57,1.74,1.73v.59a1.49,1.49,0,0,1-.77,1.52c.59.24.78.81.78,1.59v1.16a2.16,2.16,0,0,0,.13.91Zm-1.28-6.43v2.31h.46c.44,0,.7-.2.7-.8v-.73c0-.54-.18-.78-.6-.78Z" transform="translate(-45.7 -50.66)"/><path class="cls-2" d="M123.17,145.56v1c0,1.2-.6,1.89-1.75,1.89s-1.76-.69-1.76-1.89v-3.9a1.64,1.64,0,0,1,1.76-1.88c1.15,0,1.75.68,1.75,1.88v.73h-1.11v-.8c0-.54-.24-.74-.61-.74s-.61.2-.61.74v4c0,.53.23.72.61.72s.61-.19.61-.72v-1.07Z" transform="translate(-45.7 -50.66)"/><path class="cls-2" d="M125.07,148.35h-1.18v-7.5h1.18v3.22h1.34v-3.22h1.2v7.5h-1.2v-3.21h-1.34Z" transform="translate(-45.7 -50.66)"/><rect class="cls-13" x="69.83" y="71" width="194.67" height="8.67"/><rect class="cls-14" x="66.29" y="226.82" width="13.17" height="6.05"/><rect class="cls-15" x="80.14" y="226.82" width="13.17" height="6.05"/><rect class="cls-14" x="94" y="226.82" width="13.17" height="6.05"/><rect class="cls-15" x="107.85" y="226.82" width="13.17" height="6.05"/><rect class="cls-14" x="121.71" y="226.82" width="13.17" height="6.05"/><rect class="cls-15" x="135.56" y="226.82" width="13.17" height="6.05"/><rect class="cls-14" x="149.42" y="226.82" width="13.17" height="6.05"/><rect class="cls-15" x="163.27" y="226.82" width="13.17" height="6.05"/><rect class="cls-14" x="177.12" y="226.82" width="13.17" height="6.05"/><rect class="cls-15" x="190.98" y="226.82" width="13.17" height="6.05"/><rect class="cls-14" x="204.83" y="226.82" width="13.17" height="6.05"/><rect class="cls-15" x="218.69" y="226.82" width="13.17" height="6.05"/><rect class="cls-14" x="232.54" y="226.82" width="13.17" height="6.05"/><rect class="cls-15" x="246.4" y="226.82" width="13.17" height="6.05"/><rect class="cls-14" x="260.25" y="226.82" width="13.17" height="6.05"/><rect class="cls-15" x="274.1" y="226.82" width="13.17" height="6.05"/><rect class="cls-14" x="287.96" y="226.82" width="13.17" height="6.05"/><rect class="cls-15" x="301.81" y="226.82" width="13.17" height="6.05"/><rect class="cls-14" x="315.67" y="226.82" width="13.17" height="6.05"/><rect class="cls-14" x="57.73" y="105.64" width="22.43" height="6.05"/><rect class="cls-15" x="81.32" y="105.64" width="22.43" height="6.05"/><rect class="cls-14" x="104.92" y="105.64" width="22.43" height="6.05"/><rect class="cls-15" x="128.52" y="105.64" width="22.43" height="6.05"/><rect class="cls-14" x="152.12" y="105.64" width="22.43" height="6.05"/><rect class="cls-15" x="175.71" y="105.64" width="22.43" height="6.05"/><rect class="cls-14" x="199.31" y="105.64" width="22.43" height="6.05"/><rect class="cls-15" x="222.91" y="105.64" width="22.43" height="6.05"/><rect class="cls-14" x="246.51" y="105.64" width="22.43" height="6.05"/><rect class="cls-15" x="270.11" y="105.64" width="22.43" height="6.05"/><rect class="cls-14" x="293.7" y="105.64" width="22.43" height="6.05"/><rect class="cls-15" x="317.3" y="105.64" width="22.43" height="6.05"/><path class="cls-12" d="M243.11,170.6H207l8.29,4.14v8.46a2.25,2.25,0,0,0,2.24,2.25h25.55a2.25,2.25,0,0,0,2.25-2.25V172.84A2.25,2.25,0,0,0,243.11,170.6Z" transform="translate(-45.7 -50.66)"/><path class="cls-2" d="M226,175.48c0-.86-.3-1.09-.78-1.09s-.78.26-.78.94v.61H223v-.52a2.25,2.25,0,1,1,4.49,0v.25a1.86,1.86,0,0,1-1.06,2,2,2,0,0,1,1.06,2v.75c0,1.54-.77,2.41-2.25,2.41s-2.24-.87-2.24-2.41v-.79h1.42v.89c0,.68.3.94.78.94s.78-.23.78-1.08v-.75c0-.89-.3-1.22-1-1.22h-.51V177h.59c.56,0,.9-.25.9-1Z" transform="translate(-45.7 -50.66)"/><path class="cls-2" d="M228.35,175.42a2.28,2.28,0,1,1,4.56,0v5a2.28,2.28,0,1,1-4.56,0Zm1.5,5.08c0,.68.3.94.78.94s.78-.26.78-.94v-5.17c0-.68-.3-.94-.78-.94s-.78.26-.78.94Z" transform="translate(-45.7 -50.66)"/><path class="cls-2" d="M235.85,178.89l-.46.87v2.94h-1.51v-9.57h1.51v4.17l2-4.17h1.5l-2.09,4.26,2.09,5.31h-1.54Z" transform="translate(-45.7 -50.66)"/><path class="cls-12" d="M136.09,320.29v1c0,.79.34,1.07.89,1.07s.9-.28.9-1.07v-2.42c0-.78-.35-1.08-.9-1.08s-.89.3-.89,1.08v.33h-1.64l.32-6.37h4.55v1.57h-3l-.14,2.62a1.66,1.66,0,0,1,1.51-.8c1.27,0,1.92.9,1.92,2.51v2.45c0,1.76-.88,2.77-2.58,2.77s-2.58-1-2.58-2.77v-.91Z" transform="translate(-45.7 -50.66)"/><path class="cls-12" d="M140.61,315.49a2.63,2.63,0,1,1,5.25,0v5.71a2.63,2.63,0,1,1-5.25,0Zm1.73,5.82c0,.79.35,1.09.89,1.09s.9-.3.9-1.09v-5.93c0-.79-.35-1.09-.9-1.09s-.89.3-.89,1.09Z" transform="translate(-45.7 -50.66)"/><path class="cls-12" d="M146.83,315.49a2.63,2.63,0,1,1,5.25,0v5.71a2.63,2.63,0,1,1-5.25,0Zm1.73,5.82c0,.79.35,1.09.9,1.09s.89-.3.89-1.09v-5.93c0-.79-.35-1.09-.89-1.09s-.9.3-.9,1.09Z" transform="translate(-45.7 -50.66)"/><path class="cls-12" d="M155.46,319.46l-.54,1v3.38h-1.73v-11h1.73v4.79l2.26-4.79h1.73l-2.4,4.9,2.4,6.09h-1.77Z" transform="translate(-45.7 -50.66)"/><line class="cls-16" x1="88.2" y1="280.86" x2="113.39" y2="280.86"/><path class="cls-12" d="M230.65,320.29v1c0,.79.34,1.07.89,1.07s.9-.28.9-1.07v-2.42c0-.78-.35-1.08-.9-1.08s-.89.3-.89,1.08v.33H229l.32-6.37h4.55v1.57h-3l-.14,2.62a1.64,1.64,0,0,1,1.51-.8c1.27,0,1.91.9,1.91,2.51v2.45c0,1.76-.88,2.77-2.57,2.77S229,323,229,321.2v-.91Z" transform="translate(-45.7 -50.66)"/><path class="cls-12" d="M235.17,315.49a2.62,2.62,0,1,1,5.24,0v5.71a2.62,2.62,0,1,1-5.24,0Zm1.73,5.82c0,.79.34,1.09.89,1.09s.9-.3.9-1.09v-5.93c0-.79-.35-1.09-.9-1.09s-.89.3-.89,1.09Z" transform="translate(-45.7 -50.66)"/><path class="cls-12" d="M241.39,315.49a2.63,2.63,0,1,1,5.25,0v5.71a2.63,2.63,0,1,1-5.25,0Zm1.73,5.82c0,.79.34,1.09.89,1.09s.9-.3.9-1.09v-5.93c0-.79-.35-1.09-.9-1.09s-.89.3-.89,1.09Z" transform="translate(-45.7 -50.66)"/><path class="cls-12" d="M250,319.46l-.53,1v3.38h-1.73v-11h1.73v4.79l2.26-4.79h1.73l-2.41,4.9,2.41,6.09h-1.78Z" transform="translate(-45.7 -50.66)"/><line class="cls-16" x1="182.76" y1="280.86" x2="207.94" y2="280.86"/><path class="cls-12" d="M333.31,320.29v1c0,.79.35,1.07.9,1.07s.89-.28.89-1.07v-2.42c0-.78-.34-1.08-.89-1.08s-.9.3-.9,1.08v.33h-1.63l.32-6.37h4.55v1.57h-3l-.14,2.62a1.63,1.63,0,0,1,1.51-.8c1.27,0,1.91.9,1.91,2.51v2.45c0,1.76-.88,2.77-2.57,2.77s-2.58-1-2.58-2.77v-.91Z" transform="translate(-45.7 -50.66)"/><path class="cls-12" d="M337.84,315.49a2.62,2.62,0,1,1,5.24,0v5.71a2.62,2.62,0,1,1-5.24,0Zm1.73,5.82c0,.79.34,1.09.89,1.09s.9-.3.9-1.09v-5.93c0-.79-.35-1.09-.9-1.09s-.89.3-.89,1.09Z" transform="translate(-45.7 -50.66)"/><path class="cls-12" d="M344.06,315.49a2.62,2.62,0,1,1,5.24,0v5.71a2.62,2.62,0,1,1-5.24,0Zm1.73,5.82c0,.79.34,1.09.89,1.09s.9-.3.9-1.09v-5.93c0-.79-.35-1.09-.9-1.09s-.89.3-.89,1.09Z" transform="translate(-45.7 -50.66)"/><path class="cls-12" d="M352.68,319.46l-.53,1v3.38h-1.73v-11h1.73v4.79l2.26-4.79h1.73l-2.41,4.9,2.41,6.09h-1.78Z" transform="translate(-45.7 -50.66)"/><line class="cls-16" x1="285.42" y1="280.86" x2="310.61" y2="280.86"/><line class="cls-16" x1="149.48" y1="252.84" x2="149.48" y2="305.34"/><line class="cls-16" x1="252.33" y1="252.84" x2="252.33" y2="305.34"/><path class="cls-12" d="M137.71,298.56h3.06v.9h-1v5.4h-1v-5.4h-1Z" transform="translate(-45.7 -50.66)"/><path class="cls-12" d="M141.12,300.07a1.51,1.51,0,1,1,3,0v3.28a1.51,1.51,0,1,1-3,0Zm1,3.34c0,.45.2.62.52.62s.51-.17.51-.62V300c0-.45-.2-.62-.51-.62s-.52.17-.52.62Z" transform="translate(-45.7 -50.66)"/><path class="cls-12" d="M144.77,298.56h1.57c1,0,1.47.55,1.47,1.56v3.18c0,1-.48,1.56-1.47,1.56h-1.57Zm1,.9V304h.56c.31,0,.5-.16.5-.61v-3.28c0-.45-.19-.61-.5-.61Z" transform="translate(-45.7 -50.66)"/><path class="cls-12" d="M151.64,304.86h-1l-.17-1.14h-1.22l-.17,1.14h-.91l1-6.3h1.45Zm-2.26-2h1l-.48-3.18Z" transform="translate(-45.7 -50.66)"/><path class="cls-12" d="M153,302.77l-1.25-4.21h1l.75,2.87.76-2.87h.94L154,302.77v2.09h-1Z" transform="translate(-45.7 -50.66)"/><path class="cls-12" d="M235.87,301.5l-.36,3.36h-1.36l-.7-6.3h1l.53,5,.48-5h1l.5,5,.51-5h.87l-.71,6.3h-1.31Z" transform="translate(-45.7 -50.66)"/><path class="cls-12" d="M239.73,301.22h1.36v.9h-1.36V304h1.71v.9h-2.7v-6.3h2.7v.9h-1.71Z" transform="translate(-45.7 -50.66)"/><path class="cls-12" d="M243,301.22h1.36v.9H243V304h1.71v.9h-2.7v-6.3h2.7v.9H243Z" transform="translate(-45.7 -50.66)"/><path class="cls-12" d="M246.66,302.35l-.31.58v1.93h-1v-6.3h1v2.75l1.3-2.75h1l-1.38,2.81,1.38,3.49h-1Z" transform="translate(-45.7 -50.66)"/><path class="cls-12" d="M336.51,303l.68-4.47h1.38v6.3h-.94v-4.52l-.68,4.52H336l-.74-4.45v4.45h-.86v-6.3h1.37Z" transform="translate(-45.7 -50.66)"/><path class="cls-12" d="M339.2,300.07a1.51,1.51,0,1,1,3,0v3.28a1.51,1.51,0,1,1-3,0Zm1,3.34c0,.45.2.62.52.62s.51-.17.51-.62V300c0-.45-.2-.62-.51-.62s-.52.17-.52.62Z" transform="translate(-45.7 -50.66)"/><path class="cls-12" d="M343.73,300.3v4.56h-.89v-6.3h1.24l1,3.77v-3.77H346v6.3h-1Z" transform="translate(-45.7 -50.66)"/><path class="cls-12" d="M346.4,298.56h3.07v.9h-1v5.4h-1v-5.4h-1Z" transform="translate(-45.7 -50.66)"/><path class="cls-12" d="M350.89,304.86h-1v-6.3h1v2.7H352v-2.7h1v6.3h-1v-2.7h-1.12Z" transform="translate(-45.7 -50.66)"/></g><g id="Plants"><path class="cls-2" d="M400.77,379.38s-1.34-4.33-5.23-5.89c-2.7-1.08-5.81-.8-8.61-.31-5.22.91-9.77,3-14.72,4.76,0,0,2.11-.78,10.78,3.44a23.27,23.27,0,0,0,10.49,2.68C396.41,384,400.91,383.16,400.77,379.38Z" transform="translate(-45.7 -50.66)"/><path class="cls-2" d="M401.24,366.65s0-4.54-3.3-7.15c-2.28-1.82-5.34-2.44-8.16-2.79-5.26-.63-10.22,0-15.47.31,0,0,2.25-.14,9.33,6.41a23.19,23.19,0,0,0,9.27,5.59C395.74,369.81,400.28,370.31,401.24,366.65Z" transform="translate(-45.7 -50.66)"/><path class="cls-2" d="M410.2,383.49s-3.54-2.84-3.55-7c0-2.91,1.4-5.7,2.89-8.12,2.76-4.52,6.37-8,9.85-11.93,0,0-1.51,1.67-.78,11.29a23.31,23.31,0,0,1-1.37,10.74C416.09,381.14,413.66,385,410.2,383.49Z" transform="translate(-45.7 -50.66)"/><path class="cls-2" d="M422.72,390.45s-.5-4.51,2.45-7.48c2.05-2.07,5-3.05,7.79-3.71,5.14-1.25,10.15-1.15,15.39-1.49,0,0-2.24.12-8.52,7.44a23.35,23.35,0,0,1-8.56,6.64C428.55,393,424.1,394,422.72,390.45Z" transform="translate(-45.7 -50.66)"/><path class="cls-2" d="M421.9,374.39s-4.49-.62-6.65-4.21c-1.5-2.49-1.73-5.61-1.7-8.45.06-5.3,1.37-10.13,2.33-15.3,0,0-.43,2.21,5.13,10.08a23.41,23.41,0,0,1,4.34,9.93C425.76,369.35,425.66,373.91,421.9,374.39Z" transform="translate(-45.7 -50.66)"/><path class="cls-2" d="M434.83,366.32s3.23,3.18,7.39,2.7c2.9-.33,5.5-2.06,7.73-3.81,4.17-3.28,7.19-7.27,10.7-11.18,0,0-1.49,1.69-11.12,2.09A23.19,23.19,0,0,0,439,358.74C436.47,360.19,432.91,363.06,434.83,366.32Z" transform="translate(-45.7 -50.66)"/><path class="cls-2" d="M431.09,363.17s4.51.46,7.46-2.53c2-2.07,3-5,3.63-7.81,1.19-5.17,1-10.17,1.33-15.42,0,0-.11,2.25-7.36,8.6a23.44,23.44,0,0,0-6.55,8.63C428.53,357.37,427.55,361.83,431.09,363.17Z" transform="translate(-45.7 -50.66)"/><polyline class="cls-17" points="369.29 356.42 361.5 337.25 352.51 315.09"/><polyline class="cls-17" points="371.08 353.13 378.87 326.47 387.26 310"/><line class="cls-17" x1="374.08" y1="342.64" x2="381.87" y2="338.15"/><line class="cls-17" x1="378.87" y1="326.47" x2="374.98" y2="317.78"/><line class="cls-17" x1="383.74" y1="317.83" x2="393.25" y2="313.59"/><line class="cls-17" x1="363" y1="340.85" x2="366.29" y2="327.67"/><line class="cls-17" x1="358.63" y1="330.83" x2="351.02" y2="326.77"/><polygon class="cls-18" points="377.06 366 363.01 366 360 350.13 380.07 350.13 377.06 366"/></g><g id="Character"><polygon class="cls-19" points="223.31 286.95 202.93 343.77 207.28 361.16 221.14 352.47 228.48 292.93 223.31 286.95"/><path class="cls-20" d="M250.25,390.08s5.44,5.17,7.61,10.6,1.36,9.52-.81,11.69-5.44,2.18-9.52,2.18-9.51-11.42-10.05-17.13S245.9,388.72,250.25,390.08Z" transform="translate(-45.7 -50.66)"/><path class="cls-1" d="M177.13,399.32s-9.24,4.35-8.43,5.17,7.07-2.18,8.43-2.45S180.12,398.78,177.13,399.32Z" transform="translate(-45.7 -50.66)"/><path class="cls-1" d="M180.66,396.33s-3-.54-3.53.82-3,8.7-2.72,10.33,2.72-1.63,3.81-3.26S180.66,396.33,180.66,396.33Z" transform="translate(-45.7 -50.66)"/><path class="cls-1" d="M186.37,396.33s-4.89-1.36-5.71,0-5.16,10.88-5.16,10.88-.55,1.08,1.9,0S186.37,396.33,186.37,396.33Z" transform="translate(-45.7 -50.66)"/><path class="cls-1" d="M244.81,396.33l-31,3S192.35,395,189.9,394.7s-4.89,1.63-6,3.26S176,408.29,176,408.29l1.63.55,9.52-7.61s5.16-.28,6.79-.28-4.62,3.54-6.52,3.81-4.08.54-3.81,1.63,5.17,1.36,6.25,1.36,8.7-2.72,8.7-2.72,1.91,0,4.35.27,6.8-1.63,6.8-1.63,38.6,9.24,41.32,9S254,398.14,244.81,396.33Z" transform="translate(-45.7 -50.66)"/><path class="cls-21" d="M282.68,334.67S298,321.33,311.35,322,328,330,328,330L316.8,416.6H277.47Z" transform="translate(-45.7 -50.66)"/><path class="cls-19" d="M262.33,416.67h21c1.34-8.48,9.76-61.7,11.51-68.45a104.72,104.72,0,0,1,4.62-13.59l-1.9-10.88S269,335.71,269,337.62s.27,1.08.27,4.89C269.28,346,263.23,407.52,262.33,416.67Z" transform="translate(-45.7 -50.66)"/><polygon class="cls-20" points="245.6 271.19 240.44 285.59 250.22 280.97 245.6 271.19"/><polygon class="cls-20" points="279.31 252.43 265.45 251.34 245.6 271.19 252.13 288.31 264.36 265.21 277.68 265.21 279.31 252.43"/><path id="_Clipping_Path_2" data-name="&lt;Clipping Path&gt;" class="cls-22" d="M286.41,257.7s-6.26,3.8-6.8,13.59,1.63,35.07,3,39.14,8.16,8.16,13.32,7.07c0,0,2.17,23.92,4.62,23.38s15.22-17.67,15.77-22.56,1.36-20.66,1.36-20.66a173.61,173.61,0,0,0,1.9-22.29c0-10.06-2.45-18.22-11.15-21.21S292.39,253.35,286.41,257.7Z" transform="translate(-45.7 -50.66)"/><g class="cls-23"><path class="cls-24" d="M308.42,254.16c-8.69-3-16-.81-22,3.54a9.41,9.41,0,0,0-1.48,1.19c.43.27,3.64,2.09,10.28,2.09,7.16,0,16.44-1.06,16.44-1.06s-4.24,4-4.51,6.89.8,10.34,3.19,11.67.26,3.71,1.59,5.83,3.18,3.18,5.83.8a8.66,8.66,0,0,0,1.54-2.3c.17-2.47.28-5,.28-7.44C319.57,265.31,317.12,257.15,308.42,254.16Z" transform="translate(-45.7 -50.66)"/></g><path id="_Clipping_Path_3" data-name="&lt;Clipping Path&gt;" class="cls-25" d="M286.41,257.7s-6.26,3.8-6.8,13.59,1.63,35.07,3,39.14,8.16,8.16,13.32,7.07c0,0,2.17,23.92,4.62,23.38s15.22-17.67,15.77-22.56,1.36-20.66,1.36-20.66a173.61,173.61,0,0,0,1.9-22.29c0-10.06-2.45-18.22-11.15-21.21S292.39,253.35,286.41,257.7Z" transform="translate(-45.7 -50.66)"/><path class="cls-1" d="M312.77,287.6s4.35-6.8,6.53-5.17,1.63,10.06.27,13.05-3.26,3.81-4.35,1.36" transform="translate(-45.7 -50.66)"/><path class="cls-17" d="M288,285.42s-2.72,11.15-1.91,12.78,5.44,1.63,7.34.54" transform="translate(-45.7 -50.66)"/><path class="cls-17" d="M287.49,303.09s5.44,1.63,9-.54" transform="translate(-45.7 -50.66)"/><path class="cls-12" d="M298.09,287.05c0,1.21-.48,2.18-1.08,2.18s-1.09-1-1.09-2.18.49-2.17,1.09-2.17S298.09,285.85,298.09,287.05Z" transform="translate(-45.7 -50.66)"/><path class="cls-12" d="M285.05,285.7c0,1.2-.49,2.17-1.09,2.17s-1.09-1-1.09-2.17.49-2.18,1.09-2.18S285.05,284.49,285.05,285.7Z" transform="translate(-45.7 -50.66)"/><path class="cls-17" d="M281.24,281.35a5.54,5.54,0,0,1,6,0" transform="translate(-45.7 -50.66)"/><path class="cls-17" d="M293.75,282.16s5.43-2.72,9,.82" transform="translate(-45.7 -50.66)"/><path class="cls-19" d="M346,416.67c1.17-6.83,12.14-71,12.4-73.07s1.36-5.71-.54-6.26S323.1,317,323.1,317l-15.49,10.6s-.27,15.22-3.26,25.55c-2.81,9.69-7.77,57.65-8.37,63.56Z" transform="translate(-45.7 -50.66)"/><polygon class="cls-20" points="261.91 276.89 266.54 291.03 281.21 266.57 279.31 252.43 261.91 276.89"/><path class="cls-19" d="M334.52,349.85l-10.6,37.51,15.49,18.76s13-23.92,17.67-40.23,5.17-25.28,2.18-27.19a47.21,47.21,0,0,0-6.25-3.26" transform="translate(-45.7 -50.66)"/><path class="cls-20" d="M323.92,383.28s-9.79,4.9-10.06,7.89,8.43,12.23,10.6,16.31,5.17,7.34,9.79,5.43,9.51-7.06,9.51-11.68-6.79-11.69-11.69-15S325.55,383.56,323.92,383.28Z" transform="translate(-45.7 -50.66)"/><path class="cls-1" d="M235.3,397.42s-5.44,3-7.88,3.26-2.18,2.45,0,3.26,9.78-3,11.41-3S253.24,402,256,402.31s4.35-2.44-2.45-4.62S235.3,397.42,235.3,397.42Z" transform="translate(-45.7 -50.66)"/><path class="cls-1" d="M241.33,393.6s-5-1.17-5.68.93S229.1,405,229,405.77s1.95,1.45,4.35-1.17S241.33,393.6,241.33,393.6Z" transform="translate(-45.7 -50.66)"/><path class="cls-1" d="M245.09,392.53s-4.35-1.09-5.44,0-8.7,13.86-8.7,15,3,.54,3,.54l8.7-12,2.72-2.45Z" transform="translate(-45.7 -50.66)"/><path class="cls-1" d="M325.28,412.1A7.42,7.42,0,0,0,331.8,405c.55-6.52-6.52-12.78-11.41-13s-27.73,4.9-37,5.17-17.4.27-19.3-.55-18-4.07-19-4.07S232.85,408,232.85,408s.82,1.9,3,0,9.25-8.43,9.25-8.43H253s-7.34,4.35-8.43,5.17-5.43,5.44-4.35,5.71,6.8-4.62,6.8-4.62l8.15-2.18s6,3.81,11.42,4.08a24.84,24.84,0,0,0,9.52-1.36S307.61,412.37,325.28,412.1Z" transform="translate(-45.7 -50.66)"/></g><g id="Device"><line class="cls-25" x1="391.81" y1="366" x2="10.81" y2="366"/><rect class="cls-20" x="94.32" y="361.67" width="118" height="4.33"/><rect class="cls-21" x="156.88" y="361.67" width="55.44" height="4.33"/><polygon class="cls-21" points="159.63 361.67 137.82 306.92 69.82 306.92 97.07 361.67 159.63 361.67"/><polygon class="cls-20" points="156.88 361.67 135.07 306.92 67.07 306.92 94.32 361.67 156.88 361.67"/></g></svg>