<svg xmlns="http://www.w3.org/2000/svg" xmlns:xlink="http://www.w3.org/1999/xlink" viewBox="0 0 330.61 336.13"><defs><style>.cls-1,.cls-13,.cls-22,.cls-9{fill:none;}.cls-2,.cls-4{fill:#fb0;}.cls-12,.cls-13,.cls-2,.cls-3,.cls-6,.cls-7,.cls-9{stroke:#263238;}.cls-12,.cls-13,.cls-2,.cls-22,.cls-3,.cls-9{stroke-linecap:round;stroke-linejoin:round;}.cls-16,.cls-18,.cls-3,.cls-5,.cls-7,.cls-8{fill:#fff;}.cls-5{opacity:0.7;}.cls-10,.cls-12,.cls-21,.cls-25,.cls-6{fill:#263238;}.cls-10,.cls-6,.cls-7{stroke-miterlimit:10;}.cls-8{opacity:0.46;}.cls-9{stroke-width:0.87px;}.cls-10,.cls-22{stroke:#fff;}.cls-11{clip-path:url(#clip-path);}.cls-14{clip-path:url(#clip-path-2);}.cls-15{opacity:0.3;}.cls-17{clip-path:url(#clip-path-3);}.cls-18,.cls-20{opacity:0.5;}.cls-19{clip-path:url(#clip-path-4);}.cls-23{clip-path:url(#clip-path-5);}.cls-24{clip-path:url(#clip-path-6);}.cls-25{opacity:0.9;}</style><clipPath id="clip-path" transform="translate(-78.71 -80)"><rect id="_Rectangle_" data-name="&lt;Rectangle&gt;" class="cls-1" x="161.67" y="142.09" width="176.26" height="182.14"/></clipPath><clipPath id="clip-path-2" transform="translate(-78.71 -80)"><polygon id="_Clipping_Path_" data-name="&lt;Clipping Path&gt;" class="cls-2" points="263.05 229.91 218.81 238.76 225.89 325.92 312.17 325.92 323.67 235.22 271.01 229.47 263.05 229.91"/></clipPath><clipPath id="clip-path-3" transform="translate(-78.71 -80)"><path id="_Clipping_Path_2" data-name="&lt;Clipping Path&gt;" class="cls-3" d="M253.32,211.77s3.09,17.26,3.54,21.68,11.87,35.85,15.29,30.72c3.73-5.59,8.16-23.19,9-27.18s.89-21.23.89-21.23S270.57,223.72,253.32,211.77Z"/></clipPath><clipPath id="clip-path-4" transform="translate(-78.71 -80)"><path id="_Clipping_Path_3" data-name="&lt;Clipping Path&gt;" class="cls-3" d="M243.14,179.92s5.75,26.07,5.75,29.64c0,7.51,14.16,15.93,20.35,17.7s21.24-11.95,22.13-15.49,1.32-34.51-.45-40.7S279,160.89,272.34,160.89,246.24,164.43,243.14,179.92Z"/></clipPath><clipPath id="clip-path-5" transform="translate(-78.71 -80)"><polygon id="_Clipping_Path_4" data-name="&lt;Clipping Path&gt;" class="cls-2" points="323.67 235.22 335.2 326.37 312.17 325.92 323.67 235.22"/></clipPath><clipPath id="clip-path-6" transform="translate(-78.71 -80)"><path id="_Clipping_Path_5" data-name="&lt;Clipping Path&gt;" class="cls-2" d="M219.49,237.87l14.1,5.32s-9.82,61.64-12.18,66.48-7.88,10.46-15,11.14-12.27-7-12.48-15.07S219.49,237.87,219.49,237.87Z"/></clipPath></defs><title>supported</title><g id="Background_Simple" data-name="Background Simple"><path class="cls-4" d="M321.06,338.34s39-2.43,65.84-50.39,22-121.12-11.38-161.76S290.17,71.72,240.59,84.73c-24.16,6.34-40.27,22.77-54.19,42.58-12.13,17.26-25.77,33.9-44.13,44.82-18.17,10.82-36.86,19.44-46,40-22.34,50-6,108.22,46.81,127.84C200,361.1,295.05,349.72,321.06,338.34Z" transform="translate(-78.71 -80)"/><path class="cls-5" d="M321.06,338.34s39-2.43,65.84-50.39,22-121.12-11.38-161.76S290.17,71.72,240.59,84.73c-24.16,6.34-40.27,22.77-54.19,42.58-12.13,17.26-25.77,33.9-44.13,44.82-18.17,10.82-36.86,19.44-46,40-22.34,50-6,108.22,46.81,127.84C200,361.1,295.05,349.72,321.06,338.34Z" transform="translate(-78.71 -80)"/></g><g id="Device"><g id="_Group_" data-name="&lt;Group&gt;"><path id="_Rectangle_2" data-name="&lt;Rectangle&gt;" class="cls-6" d="M52,89.11H285.77a6.42,6.42,0,0,1,6.42,6.42V258.13a0,0,0,0,1,0,0H45.53a0,0,0,0,1,0,0V95.54A6.42,6.42,0,0,1,52,89.11Z"/><path id="_Path_" data-name="&lt;Path&gt;" class="cls-6" d="M400.57,415.63h-306c-3.38,0-6.23-4.85-4.73-7.88l34.4-66.83H370.91l34.58,66.6C407,410.54,404,415.63,400.57,415.63Z" transform="translate(-78.71 -80)"/><path id="_Path_2" data-name="&lt;Path&gt;" class="cls-3" d="M400.57,412.84h-306a4.55,4.55,0,0,1-4.08-6.57l33.75-68.14H370.91l33.74,68.14A4.55,4.55,0,0,1,400.57,412.84Z" transform="translate(-78.71 -80)"/><rect id="_Rectangle_3" data-name="&lt;Rectangle&gt;" class="cls-7" x="60.47" y="102.49" width="216.79" height="142.25"/><rect class="cls-4" x="66.1" y="167.32" width="206.32" height="72.3"/><path class="cls-8" d="M171.18,290.8V289a1,1,0,0,0-1-1H168.8a8.44,8.44,0,0,0-1.07-2.59l1-1a1,1,0,0,0,0-1.37l-1.29-1.29a1,1,0,0,0-1.38,0l-1,1a8.4,8.4,0,0,0-2.6-1.07v-1.41a1,1,0,0,0-1-1h-1.82a1,1,0,0,0-1,1v1.41a8.44,8.44,0,0,0-2.59,1.07l-1-1a1,1,0,0,0-1.37,0L152.44,283a1,1,0,0,0,0,1.37l1,1a8.44,8.44,0,0,0-1.07,2.59H151a1,1,0,0,0-1,1v1.82a1,1,0,0,0,1,1h1.41a8.4,8.4,0,0,0,1.07,2.6l-1,1a1,1,0,0,0,0,1.37l1.29,1.29a1,1,0,0,0,1.37,0l1-1a8.44,8.44,0,0,0,2.59,1.07v1.41a1,1,0,0,0,1,1h1.82a1,1,0,0,0,1-1v-1.41a8.4,8.4,0,0,0,2.6-1.07l1,1a1,1,0,0,0,1.38,0l1.29-1.29a1,1,0,0,0,0-1.37l-1-1a8.4,8.4,0,0,0,1.07-2.6h1.41A1,1,0,0,0,171.18,290.8ZM161,294a4.16,4.16,0,1,1,3.72-3.72A4.16,4.16,0,0,1,161,294Z" transform="translate(-78.71 -80)"/><path class="cls-8" d="M188.35,303.55v-1.82a1,1,0,0,0-1-1H186a8.42,8.42,0,0,0-1.08-2.6l1-1a1,1,0,0,0,0-1.38l-1.29-1.29a1,1,0,0,0-1.38,0l-1,1a8.5,8.5,0,0,0-2.6-1.07V293a1,1,0,0,0-1-1h-1.83a1,1,0,0,0-1,1v1.41a8.5,8.5,0,0,0-2.6,1.07l-1-1a1,1,0,0,0-1.38,0l-1.29,1.29a1,1,0,0,0,0,1.38l1,1a8.18,8.18,0,0,0-1.08,2.6h-1.4a1,1,0,0,0-1,1v1.82a1,1,0,0,0,1,1h1.4a8.13,8.13,0,0,0,1.08,2.59l-1,1a1,1,0,0,0,0,1.38l1.29,1.28a1,1,0,0,0,1.38,0l1-1a8.5,8.5,0,0,0,2.6,1.07v1.41a1,1,0,0,0,1,1h1.83a1,1,0,0,0,1-1v-1.41a8.5,8.5,0,0,0,2.6-1.07l1,1a1,1,0,0,0,1.38,0l1.29-1.28a1,1,0,0,0,0-1.38l-1-1a8.36,8.36,0,0,0,1.08-2.59h1.4A1,1,0,0,0,188.35,303.55Zm-10.18,3.24a4.17,4.17,0,1,1,3.72-3.72A4.17,4.17,0,0,1,178.17,306.79Z" transform="translate(-78.71 -80)"/><line class="cls-9" x1="74.2" y1="173.85" x2="111.6" y2="173.85"/><line class="cls-9" x1="74.2" y1="179.24" x2="111.6" y2="179.24"/><line class="cls-9" x1="74.2" y1="184.64" x2="111.6" y2="184.64"/><line class="cls-9" x1="74.2" y1="190.03" x2="111.6" y2="190.03"/><rect class="cls-4" x="66.1" y="109.2" width="206.32" height="8.37" rx="3.96" ry="3.96"/><rect class="cls-4" x="66.1" y="136.8" width="206.32" height="8.37" rx="3.96" ry="3.96"/><g id="_Group_2" data-name="&lt;Group&gt;"><polygon id="_Path_3" data-name="&lt;Path&gt;" class="cls-10" points="158.57 281.78 159 272.67 145.97 272.67 145.1 281.78 158.57 281.78"/><polygon id="_Path_4" data-name="&lt;Path&gt;" class="cls-10" points="185.51 281.78 185.07 272.67 172.03 272.67 172.04 281.78 185.51 281.78"/><polygon id="_Path_5" data-name="&lt;Path&gt;" class="cls-10" points="255.66 291.51 269.6 291.51 266.33 281.78 252.86 281.78 255.66 291.51"/><polygon id="_Path_6" data-name="&lt;Path&gt;" class="cls-10" points="145.1 281.78 145.97 272.67 132.93 272.67 131.63 281.78 145.1 281.78"/><polygon id="_Path_7" data-name="&lt;Path&gt;" class="cls-10" points="118.17 281.78 119.9 272.67 106.87 272.67 104.7 281.78 118.17 281.78"/><polygon id="_Path_8" data-name="&lt;Path&gt;" class="cls-10" points="239.39 281.78 237.2 272.67 224.17 272.67 225.92 281.78 239.39 281.78"/><polygon id="_Path_9" data-name="&lt;Path&gt;" class="cls-10" points="252.86 281.78 250.24 272.67 237.2 272.67 239.39 281.78 252.86 281.78"/><polygon id="_Path_10" data-name="&lt;Path&gt;" class="cls-10" points="104.7 281.78 106.87 272.67 93.83 272.67 91.23 281.78 104.7 281.78"/><polygon id="_Path_11" data-name="&lt;Path&gt;" class="cls-10" points="198.98 281.78 198.1 272.67 185.07 272.67 185.51 281.78 198.98 281.78"/><polygon id="_Path_12" data-name="&lt;Path&gt;" class="cls-10" points="266.33 281.78 263.27 272.67 250.24 272.67 252.86 281.78 266.33 281.78"/><polygon id="_Path_13" data-name="&lt;Path&gt;" class="cls-10" points="225.92 281.78 224.17 272.67 211.14 272.67 212.45 281.78 225.92 281.78"/><polygon id="_Path_14" data-name="&lt;Path&gt;" class="cls-10" points="212.45 281.78 211.14 272.67 198.1 272.67 198.98 281.78 212.45 281.78"/><polygon id="_Path_15" data-name="&lt;Path&gt;" class="cls-10" points="172.04 281.78 172.03 272.67 159 272.67 158.57 281.78 172.04 281.78"/><polygon id="_Path_16" data-name="&lt;Path&gt;" class="cls-10" points="77.76 281.78 64.29 281.78 60.57 291.51 74.5 291.51 77.76 281.78"/><polygon id="_Path_17" data-name="&lt;Path&gt;" class="cls-10" points="80.8 272.67 67.77 272.67 64.29 281.78 77.76 281.78 80.8 272.67"/><polygon id="_Path_18" data-name="&lt;Path&gt;" class="cls-10" points="91.23 281.78 93.83 272.67 80.8 272.67 77.76 281.78 91.23 281.78"/><polygon id="_Path_19" data-name="&lt;Path&gt;" class="cls-10" points="56.58 301.94 52.3 313.15 67.27 313.15 71.02 301.94 56.58 301.94"/><polygon id="_Path_20" data-name="&lt;Path&gt;" class="cls-10" points="74.5 291.51 60.57 291.51 56.58 301.94 71.02 301.94 74.5 291.51"/><polygon id="_Path_21" data-name="&lt;Path&gt;" class="cls-10" points="71.02 301.94 67.27 313.15 82.24 313.15 85.45 301.94 71.02 301.94"/><polygon id="_Path_22" data-name="&lt;Path&gt;" class="cls-10" points="131.63 281.78 132.93 272.67 119.9 272.67 118.17 281.78 131.63 281.78"/><polygon id="_Path_23" data-name="&lt;Path&gt;" class="cls-10" points="130.25 291.51 131.63 281.78 118.17 281.78 116.31 291.51 130.25 291.51"/><polygon id="_Path_24" data-name="&lt;Path&gt;" class="cls-10" points="116.31 291.51 118.17 281.78 104.7 281.78 102.38 291.51 116.31 291.51"/><polygon id="_Path_25" data-name="&lt;Path&gt;" class="cls-10" points="144.18 291.51 145.1 281.78 131.63 281.78 130.25 291.51 144.18 291.51"/><polygon id="_Path_26" data-name="&lt;Path&gt;" class="cls-10" points="91.23 281.78 77.76 281.78 74.5 291.51 88.44 291.51 91.23 281.78"/><polygon id="_Path_27" data-name="&lt;Path&gt;" class="cls-10" points="258.67 301.94 273.11 301.94 269.6 291.51 255.66 291.51 258.67 301.94"/><polygon id="_Path_28" data-name="&lt;Path&gt;" class="cls-10" points="102.38 291.51 104.7 281.78 91.23 281.78 88.44 291.51 102.38 291.51"/><polygon id="_Path_29" data-name="&lt;Path&gt;" class="cls-10" points="74.5 291.51 71.02 301.94 85.45 301.94 88.44 291.51 74.5 291.51"/><polygon id="_Path_30" data-name="&lt;Path&gt;" class="cls-10" points="227.79 291.51 225.92 281.78 212.45 281.78 213.86 291.51 227.79 291.51"/><polygon id="_Path_31" data-name="&lt;Path&gt;" class="cls-10" points="213.86 291.51 212.45 281.78 198.98 281.78 199.92 291.51 213.86 291.51"/><polygon id="_Path_32" data-name="&lt;Path&gt;" class="cls-10" points="255.66 291.51 252.86 281.78 239.39 281.78 241.73 291.51 255.66 291.51"/><polygon id="_Path_33" data-name="&lt;Path&gt;" class="cls-10" points="172.05 291.51 172.04 281.78 158.57 281.78 158.12 291.51 172.05 291.51"/><polygon id="_Path_34" data-name="&lt;Path&gt;" class="cls-10" points="199.92 291.51 198.98 281.78 185.51 281.78 185.99 291.51 199.92 291.51"/><polygon id="_Path_35" data-name="&lt;Path&gt;" class="cls-10" points="185.99 291.51 185.51 281.78 172.04 281.78 172.05 291.51 185.99 291.51"/><polygon id="_Path_36" data-name="&lt;Path&gt;" class="cls-10" points="158.12 291.51 158.57 281.78 145.1 281.78 144.18 291.51 158.12 291.51"/><polygon id="_Path_37" data-name="&lt;Path&gt;" class="cls-10" points="199.92 291.51 200.93 301.94 215.37 301.94 213.86 291.51 199.92 291.51"/><polygon id="_Path_38" data-name="&lt;Path&gt;" class="cls-10" points="213.86 291.51 215.37 301.94 229.8 301.94 227.79 291.51 213.86 291.51"/><polygon id="_Path_39" data-name="&lt;Path&gt;" class="cls-10" points="88.44 291.51 85.45 301.94 99.89 301.94 102.38 291.51 88.44 291.51"/><polygon id="_Path_40" data-name="&lt;Path&gt;" class="cls-10" points="227.79 291.51 229.8 301.94 244.24 301.94 241.73 291.51 227.79 291.51"/><polygon id="_Path_41" data-name="&lt;Path&gt;" class="cls-10" points="172.05 291.51 172.06 301.94 186.5 301.94 185.99 291.51 172.05 291.51"/><polygon id="_Path_42" data-name="&lt;Path&gt;" class="cls-10" points="241.73 291.51 244.24 301.94 258.67 301.94 255.66 291.51 241.73 291.51"/><polygon id="_Path_43" data-name="&lt;Path&gt;" class="cls-10" points="185.99 291.51 186.5 301.94 200.93 301.94 199.92 291.51 185.99 291.51"/><polygon id="_Path_44" data-name="&lt;Path&gt;" class="cls-10" points="116.31 291.51 114.32 301.94 128.76 301.94 130.25 291.51 116.31 291.51"/><polygon id="_Path_45" data-name="&lt;Path&gt;" class="cls-10" points="102.38 291.51 99.89 301.94 114.32 301.94 116.31 291.51 102.38 291.51"/><polygon id="_Path_46" data-name="&lt;Path&gt;" class="cls-10" points="158.12 291.51 157.63 301.94 172.06 301.94 172.05 291.51 158.12 291.51"/><polygon id="_Path_47" data-name="&lt;Path&gt;" class="cls-10" points="144.18 291.51 143.19 301.94 157.63 301.94 158.12 291.51 144.18 291.51"/><polygon id="_Path_48" data-name="&lt;Path&gt;" class="cls-10" points="130.25 291.51 128.76 301.94 143.19 301.94 144.18 291.51 130.25 291.51"/><polygon id="_Path_49" data-name="&lt;Path&gt;" class="cls-10" points="241.73 291.51 239.39 281.78 225.92 281.78 227.79 291.51 241.73 291.51"/><polygon id="_Path_50" data-name="&lt;Path&gt;" class="cls-10" points="80.8 272.67 83.91 263.35 71.33 263.35 67.77 272.67 80.8 272.67"/><polygon id="_Path_51" data-name="&lt;Path&gt;" class="cls-10" points="67.77 272.67 55.74 272.67 51.85 281.78 64.29 281.78 67.77 272.67"/><polygon id="_Path_52" data-name="&lt;Path&gt;" class="cls-10" points="71.33 263.35 59.71 263.35 55.74 272.67 67.77 272.67 71.33 263.35"/><polygon id="_Path_53" data-name="&lt;Path&gt;" class="cls-10" points="64.29 281.78 51.85 281.78 47.71 291.51 60.57 291.51 64.29 281.78"/><polygon id="_Path_54" data-name="&lt;Path&gt;" class="cls-10" points="60.57 291.51 47.71 291.51 43.26 301.94 56.58 301.94 60.57 291.51"/><polygon id="_Path_55" data-name="&lt;Path&gt;" class="cls-10" points="56.58 301.94 43.26 301.94 38.48 313.15 52.3 313.15 56.58 301.94"/><polygon id="_Path_56" data-name="&lt;Path&gt;" class="cls-10" points="279.8 281.78 283.54 291.51 295.86 291.51 291.71 281.78 279.8 281.78"/><polygon id="_Path_57" data-name="&lt;Path&gt;" class="cls-10" points="287.54 301.94 300.31 301.94 295.86 291.51 283.54 291.51 287.54 301.94"/><polygon id="_Path_58" data-name="&lt;Path&gt;" class="cls-10" points="291.84 313.15 305.09 313.15 300.31 301.94 287.54 301.94 291.84 313.15"/><polygon id="_Path_59" data-name="&lt;Path&gt;" class="cls-10" points="185.07 272.67 184.61 263.35 172.03 263.35 172.03 272.67 185.07 272.67"/><polygon id="_Path_60" data-name="&lt;Path&gt;" class="cls-10" points="279.8 281.78 291.71 281.78 287.83 272.67 276.3 272.67 279.8 281.78"/><polygon id="_Path_61" data-name="&lt;Path&gt;" class="cls-10" points="273.11 301.94 287.54 301.94 283.54 291.51 269.6 291.51 273.11 301.94"/><polygon id="_Path_62" data-name="&lt;Path&gt;" class="cls-10" points="93.83 272.67 96.5 263.35 83.91 263.35 80.8 272.67 93.83 272.67"/><polygon id="_Path_63" data-name="&lt;Path&gt;" class="cls-10" points="263.27 272.67 266.33 281.78 279.8 281.78 276.3 272.67 263.27 272.67"/><polygon id="_Path_64" data-name="&lt;Path&gt;" class="cls-10" points="287.83 272.67 283.86 263.35 272.73 263.35 276.3 272.67 287.83 272.67"/><polygon id="_Path_65" data-name="&lt;Path&gt;" class="cls-10" points="276.3 272.67 272.73 263.35 260.14 263.35 263.27 272.67 276.3 272.67"/><polygon id="_Path_66" data-name="&lt;Path&gt;" class="cls-10" points="229.8 301.94 231.96 313.15 246.93 313.15 244.24 301.94 229.8 301.94"/><polygon id="_Path_67" data-name="&lt;Path&gt;" class="cls-10" points="276.87 313.15 291.84 313.15 287.54 301.94 273.11 301.94 276.87 313.15"/><polygon id="_Path_68" data-name="&lt;Path&gt;" class="cls-10" points="263.27 272.67 260.14 263.35 247.55 263.35 250.24 272.67 263.27 272.67"/><polygon id="_Path_69" data-name="&lt;Path&gt;" class="cls-10" points="258.67 301.94 261.9 313.15 276.87 313.15 273.11 301.94 258.67 301.94"/><polygon id="_Path_70" data-name="&lt;Path&gt;" class="cls-10" points="244.24 301.94 246.93 313.15 261.9 313.15 258.67 301.94 244.24 301.94"/><polygon id="_Path_71" data-name="&lt;Path&gt;" class="cls-10" points="269.6 291.51 283.54 291.51 279.8 281.78 266.33 281.78 269.6 291.51"/><polygon id="_Path_72" data-name="&lt;Path&gt;" class="cls-10" points="145.97 272.67 146.85 263.35 134.26 263.35 132.93 272.67 145.97 272.67"/><polygon id="_Path_73" data-name="&lt;Path&gt;" class="cls-10" points="250.24 272.67 247.55 263.35 234.96 263.35 237.2 272.67 250.24 272.67"/><polygon id="_Path_74" data-name="&lt;Path&gt;" class="cls-10" points="132.93 272.67 134.26 263.35 121.68 263.35 119.9 272.67 132.93 272.67"/><polygon id="_Path_75" data-name="&lt;Path&gt;" class="cls-10" points="172.03 272.67 172.03 263.35 159.44 263.35 159 272.67 172.03 272.67"/><polygon id="_Path_76" data-name="&lt;Path&gt;" class="cls-10" points="119.9 272.67 121.68 263.35 109.09 263.35 106.87 272.67 119.9 272.67"/><polygon id="_Path_77" data-name="&lt;Path&gt;" class="cls-10" points="106.87 272.67 109.09 263.35 96.5 263.35 93.83 272.67 106.87 272.67"/><polygon id="_Path_78" data-name="&lt;Path&gt;" class="cls-10" points="159 272.67 159.44 263.35 146.85 263.35 145.97 272.67 159 272.67"/><polygon id="_Path_79" data-name="&lt;Path&gt;" class="cls-10" points="237.2 272.67 234.96 263.35 222.38 263.35 224.17 272.67 237.2 272.67"/><polygon id="_Path_80" data-name="&lt;Path&gt;" class="cls-10" points="224.17 272.67 222.38 263.35 209.79 263.35 211.14 272.67 224.17 272.67"/><polygon id="_Path_81" data-name="&lt;Path&gt;" class="cls-10" points="198.1 272.67 197.2 263.35 184.61 263.35 185.07 272.67 198.1 272.67"/><polygon id="_Path_82" data-name="&lt;Path&gt;" class="cls-10" points="229.8 301.94 215.37 301.94 200.93 301.94 186.5 301.94 172.06 301.94 157.63 301.94 143.19 301.94 128.76 301.94 114.32 301.94 99.89 301.94 85.45 301.94 82.24 313.15 97.22 313.15 112.19 313.15 127.16 313.15 142.13 313.15 157.1 313.15 172.07 313.15 187.04 313.15 202.01 313.15 216.99 313.15 231.96 313.15 229.8 301.94"/><polygon id="_Path_83" data-name="&lt;Path&gt;" class="cls-10" points="211.14 272.67 209.79 263.35 197.2 263.35 198.1 272.67 211.14 272.67"/></g></g></g><g id="Character"><g class="cls-11"><ellipse class="cls-12" cx="188.41" cy="150.23" rx="26.67" ry="33.95"/><path class="cls-13" d="M218.81,238.76s-22.29,67-22.29,68.7,6.63,9.13,10.78,8.71,11.61-5,11.61-5l7.47-65.53Z" transform="translate(-78.71 -80)"/><polygon id="_Clipping_Path_6" data-name="&lt;Clipping Path&gt;" class="cls-4" points="184.34 149.91 140.1 158.76 147.19 245.92 233.47 245.92 244.96 155.22 192.31 149.47 184.34 149.91"/><g class="cls-14"><polygon class="cls-15" points="147.19 245.92 233.47 245.92 235.63 228.85 235.47 228.02 214.65 232.56 223.74 194.34 173.78 216.29 161.66 228.4 169.24 228.4 146.95 243.06 147.19 245.92"/></g><polygon id="_Clipping_Path_7" data-name="&lt;Clipping Path&gt;" class="cls-13" points="184.34 149.91 140.1 158.76 147.19 245.92 233.47 245.92 244.96 155.22 192.31 149.47 184.34 149.91"/><path class="cls-2" d="M258.35,225s-7.18,3.93-9,7.46S240,262.21,240,262.21l12.39,2.66-11.94,5.75,18.07,51.76,28.76-1.77L306,266.19l-11.51-4.86,10.18-4.43s-9.73-18.58-15-26.54S258.35,225,258.35,225Z" transform="translate(-78.71 -80)"/><polygon class="cls-3" points="178.52 246.81 178.15 155.67 202.04 153.45 209.05 245.92 178.52 246.81"/><path id="_Clipping_Path_8" data-name="&lt;Clipping Path&gt;" class="cls-16" d="M253.32,211.77s3.09,17.26,3.54,21.68,11.87,35.85,15.29,30.72c3.73-5.59,8.16-23.19,9-27.18s.89-21.23.89-21.23S270.57,223.72,253.32,211.77Z" transform="translate(-78.71 -80)"/><g class="cls-17"><path class="cls-4" d="M281.9,227.23c.18-5.66.18-11.47.18-11.47s-11.51,8-28.76-4c0,0,1.27,7.11,2.3,13.37,2.36,3,6.85,7.77,12.39,8.66C273.7,234.71,278.3,231.69,281.9,227.23Z" transform="translate(-78.71 -80)"/><path class="cls-18" d="M281.9,227.23c.18-5.66.18-11.47.18-11.47s-11.51,8-28.76-4c0,0,1.27,7.11,2.3,13.37,2.36,3,6.85,7.77,12.39,8.66C273.7,234.71,278.3,231.69,281.9,227.23Z" transform="translate(-78.71 -80)"/></g><path id="_Clipping_Path_9" data-name="&lt;Clipping Path&gt;" class="cls-13" d="M253.32,211.77s3.09,17.26,3.54,21.68,11.87,35.85,15.29,30.72c3.73-5.59,8.16-23.19,9-27.18s.89-21.23.89-21.23S270.57,223.72,253.32,211.77Z" transform="translate(-78.71 -80)"/><path class="cls-3" d="M291.37,194.52s4.86-6.2,4.86.88-4.86,8-4.86,8Z" transform="translate(-78.71 -80)"/><path id="_Clipping_Path_10" data-name="&lt;Clipping Path&gt;" class="cls-16" d="M243.14,179.92s5.75,26.07,5.75,29.64c0,7.51,14.16,15.93,20.35,17.7s21.24-11.95,22.13-15.49,1.32-34.51-.45-40.7S279,160.89,272.34,160.89,246.24,164.43,243.14,179.92Z" transform="translate(-78.71 -80)"/><g class="cls-19"><path class="cls-4" d="M272.34,160.89c-6.63,0-26.1,3.54-29.2,19,0,0,3.44,15.6,5,24.32,0-4,.7-11.66,5-15,5.94-4.62,15.85-5.29,21.46-7.93s6.93-9.57,6.93-9.57.33,12.21,3,15.19,5.29,5,5.62,10.23,1.32,10.56-1.32,14.86-13.54,12.54-18.49,14.19c-.76.26-1.5.48-2.2.69.39.14.77.27,1.12.37,6.2,1.77,21.24-11.95,22.13-15.49s1.32-34.51-.45-40.7S279,160.89,272.34,160.89Z" transform="translate(-78.71 -80)"/><path class="cls-4" d="M263.15,224.64c-2.41-2.43-9-9.16-12-12.63a22,22,0,0,1-2.32-3.18c0,.29,0,.55,0,.73C248.89,215.11,256.61,221.15,263.15,224.64Z" transform="translate(-78.71 -80)"/><g class="cls-20"><path class="cls-16" d="M272.34,160.89c-6.63,0-26.1,3.54-29.2,19,0,0,3.44,15.6,5,24.32,0-4,.7-11.66,5-15,5.94-4.62,15.85-5.29,21.46-7.93s6.93-9.57,6.93-9.57.33,12.21,3,15.19,5.29,5,5.62,10.23,1.32,10.56-1.32,14.86-13.54,12.54-18.49,14.19c-.76.26-1.5.48-2.2.69.39.14.77.27,1.12.37,6.2,1.77,21.24-11.95,22.13-15.49s1.32-34.51-.45-40.7S279,160.89,272.34,160.89Z" transform="translate(-78.71 -80)"/><path class="cls-16" d="M263.15,224.64c-2.41-2.43-9-9.16-12-12.63a22,22,0,0,1-2.32-3.18c0,.29,0,.55,0,.73C248.89,215.11,256.61,221.15,263.15,224.64Z" transform="translate(-78.71 -80)"/></g></g><path id="_Clipping_Path_11" data-name="&lt;Clipping Path&gt;" class="cls-13" d="M243.14,179.92s5.75,26.07,5.75,29.64c0,7.51,14.16,15.93,20.35,17.7s21.24-11.95,22.13-15.49,1.32-34.51-.45-40.7S279,160.89,272.34,160.89,246.24,164.43,243.14,179.92Z" transform="translate(-78.71 -80)"/><path class="cls-21" d="M266.05,195.93c0,1.24-.55,2.24-1.24,2.24s-1.25-1-1.25-2.24.56-2.24,1.25-2.24S266.05,194.69,266.05,195.93Z" transform="translate(-78.71 -80)"/><path class="cls-21" d="M280.62,195.93c0,1.24-.56,2.24-1.25,2.24s-1.25-1-1.25-2.24.56-2.24,1.25-2.24S280.62,194.69,280.62,195.93Z" transform="translate(-78.71 -80)"/><path class="cls-13" d="M275.18,193.28s-1.33,4.31,0,5.64,4.31.66,4,2.32-5.31,3.66-5.31,3.66" transform="translate(-78.71 -80)"/><path class="cls-13" d="M273.19,210.87s-6,2.33-8.64-1.66" transform="translate(-78.71 -80)"/><path class="cls-13" d="M260.24,192s1.66-4.32,6.64-2.33" transform="translate(-78.71 -80)"/><path class="cls-13" d="M275.84,190s2.45-4,5.77.35" transform="translate(-78.71 -80)"/><path class="cls-12" d="M293.14,164.43c-4.38-5-9-4.7-11.76-3.62-3.74-6.3-16.1-11.3-32-5.23-18.58,7.08-16.37,26.11-15.48,29.65s7.08,12.83,11.06,13.27c0,0,3.54-3.1,3.54-6.19s8.41-9.29,16.81-11.95c5.29-1.67,11.1-4.74,14.46-8.66a13.75,13.75,0,0,0,1.91,7.33c2.66,4,6.64,6.2,6.64,7.53s2.21,6.19,4,6.19,1.77-7.08,2.21-10.18S299.33,171.51,293.14,164.43Z" transform="translate(-78.71 -80)"/><path class="cls-22" d="M244.3,183.23c-1.69,1-2.83,2.23-3.11,3.72" transform="translate(-78.71 -80)"/><path class="cls-22" d="M278.12,167.18a25.7,25.7,0,0,1-12.68,9.7c-5,1.6-12.57,2.78-17.92,4.82" transform="translate(-78.71 -80)"/><path class="cls-22" d="M274.39,165.32s-8.21,5.59-17.53,6.34-15.67-1.12-17.16,1.12" transform="translate(-78.71 -80)"/><path class="cls-22" d="M293.14,174.19a17.54,17.54,0,0,1,.28,3.81" transform="translate(-78.71 -80)"/><path class="cls-22" d="M284.46,164.2a13.07,13.07,0,0,1,8.14,8" transform="translate(-78.71 -80)"/><path class="cls-13" d="M246.21,205.58s6.94,9.29,10.69,11.28,10.9-.75,10.9-.75" transform="translate(-78.71 -80)"/><path class="cls-21" d="M270.28,216.19c0,.91-1.12,1.66-2.49,1.66s-2.49-.75-2.49-1.66,1.11-1.66,2.49-1.66S270.28,215.27,270.28,216.19Z" transform="translate(-78.71 -80)"/><path class="cls-16" d="M242.31,192.92s-8.21-21.26,0-33.94c0,0-12.69,13.05-1.49,36.93Z" transform="translate(-78.71 -80)"/><path class="cls-3" d="M248,199.81c.75,5-.61,9.32-3.05,9.69s-5-3.38-5.76-8.37.62-9.32,3.05-9.69S247.29,194.82,248,199.81Z" transform="translate(-78.71 -80)"/><ellipse class="cls-3" cx="242.22" cy="200.33" rx="3.96" ry="9.13" transform="translate(-105.79 -41.77) rotate(-8.55)"/><polygon id="_Clipping_Path_12" data-name="&lt;Clipping Path&gt;" class="cls-4" points="244.96 155.22 256.49 246.37 233.47 245.92 244.96 155.22"/><g class="cls-23"><polygon class="cls-15" points="251.25 204.93 239.25 212.13 239.45 198.66 233.47 245.92 256.49 246.37 254.61 231.48 244.55 231.81 253.47 222.54 253.4 221.93 241.15 226.13 252.23 212.7 251.25 204.93"/></g><polygon id="_Clipping_Path_13" data-name="&lt;Clipping Path&gt;" class="cls-13" points="244.96 155.22 256.49 246.37 233.47 245.92 244.96 155.22"/><path class="cls-3" d="M241.28,208.34s3.4-1.19,4.14.12,1.6,7,1.58,7.81-.3,1.55-1.84,1-4-5.56-4-5.56Z" transform="translate(-78.71 -80)"/><path class="cls-3" d="M226.4,226.38s3.15-20.25,3.22-22.45,3-4,4.4-4.54,9.4-.28,10.25-.25,4.27-.15,4.24,1-.33,1.64-3.19,2.1-9.7.82-9.7.82l-1.79,2.7,8.49,1.62s2,.88,1.64,2.25-1.35,7.38-1.37,8.2-.9,1.35-2.93,2.67a10.33,10.33,0,0,1-4,1.53s.16,4.13-1,4.64l-2.89,1.29-.4,23.63-13.05-1.48Z" transform="translate(-78.71 -80)"/><line class="cls-13" x1="164.57" y1="130.73" x2="154.27" y2="128.88"/><line class="cls-13" x1="154.92" y1="133.3" x2="163.4" y2="135.35"/><path class="cls-13" d="M235.64,222s-1.43-2.2-.64-2.43,2.61-.7,2.61-.7" transform="translate(-78.71 -80)"/><path id="_Clipping_Path_14" data-name="&lt;Clipping Path&gt;" class="cls-4" d="M219.49,237.87l14.1,5.32s-9.82,61.64-12.18,66.48-7.88,10.46-15,11.14-12.27-7-12.48-15.07S219.49,237.87,219.49,237.87Z" transform="translate(-78.71 -80)"/><g class="cls-24"><path class="cls-15" d="M207.82,289.48a64,64,0,0,1-10.73,4.3c-1.27,3.69-2.24,6.82-2.76,9.06L201,302a74.4,74.4,0,0,0,14-3s-11,6.81-20.81,7.95l-.23,0c.65,7.58,5.61,14.54,12.41,13.89,7.15-.68,12.66-6.31,15-11.14,1.16-2.38,4.12-18.44,6.83-34.17A117,117,0,0,1,207.82,289.48Z" transform="translate(-78.71 -80)"/></g><path id="_Clipping_Path_15" data-name="&lt;Clipping Path&gt;" class="cls-13" d="M219.49,237.87l14.1,5.32s-9.82,61.64-12.18,66.48-7.88,10.46-15,11.14-12.27-7-12.48-15.07S219.49,237.87,219.49,237.87Z" transform="translate(-78.71 -80)"/></g></g><g id="Gears"><path class="cls-21" d="M358.73,132v-2.74a1.46,1.46,0,0,0-1.46-1.46h-2.11a12.82,12.82,0,0,0-1.62-3.9l1.49-1.5a1.47,1.47,0,0,0,0-2.07l-1.93-1.93a1.47,1.47,0,0,0-2.07,0l-1.5,1.49a12.82,12.82,0,0,0-3.9-1.62v-2.11a1.46,1.46,0,0,0-1.46-1.46h-2.74a1.46,1.46,0,0,0-1.46,1.46v2.11a12.82,12.82,0,0,0-3.9,1.62l-1.5-1.49a1.47,1.47,0,0,0-2.07,0l-1.93,1.93a1.47,1.47,0,0,0,0,2.07l1.49,1.5a12.56,12.56,0,0,0-1.61,3.9h-2.12a1.46,1.46,0,0,0-1.46,1.46V132a1.46,1.46,0,0,0,1.46,1.46h2.12a12.56,12.56,0,0,0,1.61,3.9l-1.49,1.5a1.47,1.47,0,0,0,0,2.07l1.93,1.93a1.47,1.47,0,0,0,2.07,0l1.5-1.49A12.56,12.56,0,0,0,340,143v2.12a1.46,1.46,0,0,0,1.46,1.46h2.74a1.46,1.46,0,0,0,1.46-1.46V143a12.56,12.56,0,0,0,3.9-1.61l1.5,1.49a1.47,1.47,0,0,0,2.07,0L355,141a1.47,1.47,0,0,0,0-2.07l-1.49-1.5a12.82,12.82,0,0,0,1.62-3.9h2.11A1.46,1.46,0,0,0,358.73,132Zm-15.29,4.86A6.26,6.26,0,1,1,349,131.3,6.27,6.27,0,0,1,343.44,136.89Z" transform="translate(-78.71 -80)"/><path class="cls-21" d="M102.73,251.46V249.4a1.11,1.11,0,0,0-1.11-1.11H100a9.63,9.63,0,0,0-1.22-2.94l1.13-1.12a1.1,1.1,0,0,0,0-1.56l-1.46-1.46a1.1,1.1,0,0,0-1.56,0l-1.13,1.12a9.41,9.41,0,0,0-2.94-1.21v-1.6a1.1,1.1,0,0,0-1.1-1.1H89.69a1.11,1.11,0,0,0-1.11,1.1v1.6a9.41,9.41,0,0,0-2.94,1.21l-1.13-1.12a1.1,1.1,0,0,0-1.56,0l-1.45,1.46a1.09,1.09,0,0,0,0,1.56l1.12,1.12a9.63,9.63,0,0,0-1.22,2.94H79.81a1.11,1.11,0,0,0-1.1,1.11v2.06a1.1,1.1,0,0,0,1.1,1.1H81.4a9.43,9.43,0,0,0,1.22,2.94l-1.12,1.13a1.09,1.09,0,0,0,0,1.56L83,259.65a1.1,1.1,0,0,0,1.56,0l1.13-1.13a9.43,9.43,0,0,0,2.94,1.22v1.59a1.11,1.11,0,0,0,1.11,1.11h2.06a1.11,1.11,0,0,0,1.1-1.11v-1.59a9.43,9.43,0,0,0,2.94-1.22l1.13,1.13a1.1,1.1,0,0,0,1.56,0l1.46-1.46a1.1,1.1,0,0,0,0-1.56l-1.13-1.13a9.43,9.43,0,0,0,1.22-2.94h1.59A1.11,1.11,0,0,0,102.73,251.46ZM91.2,255.12a4.72,4.72,0,1,1,4.21-4.21A4.72,4.72,0,0,1,91.2,255.12Z" transform="translate(-78.71 -80)"/><path class="cls-21" d="M409.32,224v-2.06a1.11,1.11,0,0,0-1.11-1.11h-1.59a9.43,9.43,0,0,0-1.22-2.94l1.13-1.12a1.1,1.1,0,0,0,0-1.56l-1.46-1.46a1.1,1.1,0,0,0-1.56,0l-1.13,1.12a9.67,9.67,0,0,0-2.94-1.22V212a1.1,1.1,0,0,0-1.1-1.1h-2.07a1.1,1.1,0,0,0-1.1,1.1v1.59a9.67,9.67,0,0,0-2.94,1.22l-1.13-1.12a1.1,1.1,0,0,0-1.56,0l-1.45,1.46a1.09,1.09,0,0,0,0,1.56l1.12,1.12a9.43,9.43,0,0,0-1.22,2.94H386.4a1.11,1.11,0,0,0-1.1,1.11V224a1.1,1.1,0,0,0,1.1,1.1H388a9.43,9.43,0,0,0,1.22,2.94l-1.12,1.13a1.09,1.09,0,0,0,0,1.56l1.45,1.46a1.1,1.1,0,0,0,1.56,0l1.13-1.13a9.43,9.43,0,0,0,2.94,1.22v1.59a1.11,1.11,0,0,0,1.1,1.11h2.07a1.11,1.11,0,0,0,1.1-1.11v-1.59a9.43,9.43,0,0,0,2.94-1.22l1.13,1.13a1.1,1.1,0,0,0,1.56,0l1.46-1.46a1.1,1.1,0,0,0,0-1.56L405.4,228a9.43,9.43,0,0,0,1.22-2.94h1.59A1.11,1.11,0,0,0,409.32,224Zm-11.53,3.66a4.72,4.72,0,1,1,4.21-4.21A4.72,4.72,0,0,1,397.79,227.64Z" transform="translate(-78.71 -80)"/><path class="cls-21" d="M240.79,89.8V88.74a.56.56,0,0,0-.57-.56h-.81a5,5,0,0,0-.63-1.51l.58-.57a.57.57,0,0,0,0-.8l-.75-.75a.56.56,0,0,0-.79,0l-.58.58a5,5,0,0,0-1.51-.63v-.81a.57.57,0,0,0-.56-.57h-1.06a.57.57,0,0,0-.56.57v.81a4.93,4.93,0,0,0-1.51.63l-.58-.58a.57.57,0,0,0-.8,0l-.74.75a.57.57,0,0,0,0,.8l.57.57a5,5,0,0,0-.62,1.51h-.82a.56.56,0,0,0-.56.56V89.8a.57.57,0,0,0,.56.57h.82a4.85,4.85,0,0,0,.62,1.5l-.57.58a.57.57,0,0,0,0,.8l.74.75a.57.57,0,0,0,.8,0l.58-.58a4.67,4.67,0,0,0,1.51.62v.82a.56.56,0,0,0,.56.56h1.06a.56.56,0,0,0,.56-.56V94a4.77,4.77,0,0,0,1.51-.62l.58.58a.56.56,0,0,0,.79,0l.75-.75a.57.57,0,0,0,0-.8l-.58-.58a4.87,4.87,0,0,0,.63-1.5h.81A.57.57,0,0,0,240.79,89.8Zm-5.9,1.88A2.42,2.42,0,1,1,237,89.52,2.43,2.43,0,0,1,234.89,91.68Z" transform="translate(-78.71 -80)"/><path class="cls-21" d="M112.15,159.82h-6.8v6.8h6.8Zm-5.42,1.38h4v4.05h-4Z" transform="translate(-78.71 -80)"/><path class="cls-21" d="M386.83,292.71H380v6.8h6.8Zm-5.43,1.38h4.05v4.05H381.4Z" transform="translate(-78.71 -80)"/><path class="cls-21" d="M284.81,97.92H278v6.8h6.8Zm-5.43,1.37h4.05v4h-4.05Z" transform="translate(-78.71 -80)"/><path class="cls-21" d="M108.15,268.41h-6.8v6.81h6.8Zm-5.43,1.38h4v4h-4Z" transform="translate(-78.71 -80)"/><path class="cls-25" d="M306.7,145a4.09,4.09,0,1,0,4.08,4.09A4.09,4.09,0,0,0,306.7,145Zm0,6.54a2.45,2.45,0,1,1,2.45-2.45A2.45,2.45,0,0,1,306.7,151.5Z" transform="translate(-78.71 -80)"/></g><g id="Bubble_Speach" data-name="Bubble Speach"><path class="cls-21" d="M234,164.18l-9.16-12.68a6.36,6.36,0,0,0,6.34-6.34V110.64a6.37,6.37,0,0,0-6.34-6.34h-79.6a6.36,6.36,0,0,0-6.34,6.34v34.52a6.35,6.35,0,0,0,6.34,6.34h68.83Z" transform="translate(-78.71 -80)"/><path class="cls-4" d="M165.35,126.49a3.88,3.88,0,1,0-3.88,3.88A3.88,3.88,0,0,0,165.35,126.49Z" transform="translate(-78.71 -80)"/><path class="cls-4" d="M188.24,126.49a3.88,3.88,0,1,0-3.87,3.88A3.87,3.87,0,0,0,188.24,126.49Z" transform="translate(-78.71 -80)"/><path class="cls-4" d="M211.14,126.49a3.88,3.88,0,1,0-3.88,3.88A3.88,3.88,0,0,0,211.14,126.49Z" transform="translate(-78.71 -80)"/></g></svg>