<svg xmlns="http://www.w3.org/2000/svg" xmlns:xlink="http://www.w3.org/1999/xlink" viewBox="0 0 377.56 375.64"><defs><style>.cls-1,.cls-13,.cls-3,.cls-4,.cls-5{fill:#fff;}.cls-1,.cls-11,.cls-6,.cls-9{stroke:#263238;}.cls-1,.cls-10,.cls-11,.cls-6,.cls-9{stroke-linecap:round;stroke-linejoin:round;}.cls-11,.cls-2{fill:#fb0;}.cls-3{opacity:0.8;}.cls-5{opacity:0.3;}.cls-10,.cls-6{fill:none;}.cls-7{clip-path:url(#clip-path);}.cls-8,.cls-9{fill:#263238;}.cls-10{stroke:#fff;}.cls-12{clip-path:url(#clip-path-2);}.cls-13{opacity:0.5;}.cls-14{clip-path:url(#clip-path-3);}.cls-15{fill:#fafafa;}</style><clipPath id="clip-path" transform="translate(-58.4 -67.93)"><path id="_Clipping_Path_" data-name="&lt;Clipping Path&gt;" class="cls-1" d="M237.89,329.88V312H184.15v17.86a25.56,25.56,0,0,1-5.7,16.06l-2.36,2.91H246l-2.36-2.91A25.57,25.57,0,0,1,237.89,329.88Z"/></clipPath><clipPath id="clip-path-2" transform="translate(-58.4 -67.93)"><path id="_Clipping_Path_2" data-name="&lt;Clipping Path&gt;" class="cls-1" d="M361.45,351.9c-9.61-10.54-9.49-15.73-24.4-26.76-7.55-5.59-16.66-9.4-25.18-13.22-10.67-4.78-21.52-9.21-32.47-13.31-3.75-1.41-7.51-2.78-11.31-4-3.43-1.13-7-2.6-10.63-2.44a5.84,5.84,0,0,0-5.49,4.52c-.88,3.79,2.35,8.34,5.88,9.59l2,.71,19.37,6.84-20.07-4.42s-6.34.3-8.56,2.92-.4,6,2.74,7.72,4.37,1.41,4.93.69a.81.81,0,0,0,.1-.24l0,.28,17.37,8.38L258,325.84s-6.77-.72-9,1.9-.4,6,2.74,7.72c2.69,1.5,5.13,1.71,6.12,1.29L274,344.9l-16.65-1.32-.43.05c-.12-.74-4.76.33-5.15.43a4.79,4.79,0,0,0-3.63,4.57c0,3.18,3.33,6.27,6.37,6.66l1.72.23c0,.16,8.57,3.4,8.57,3.4l13.14,5.26s15.78,21,21,28a7.32,7.32,0,0,1,1,1.67c1.67,1.08,2.68,1.72,2.75,1.8,1.76,2,15.1,3.25,25.69,3.19s21.57,2.9,25.25,4.86,46,29.5,46,29.5L412,381.53S371.05,362.44,361.45,351.9Z"/></clipPath><clipPath id="clip-path-3" transform="translate(-58.4 -67.93)"><path id="_Clipping_Path_3" data-name="&lt;Clipping Path&gt;" class="cls-1" d="M363.88,354.71s-3-2.9-6-10.14-10.59-23-11.16-30.39-.36-9.78-.73-14-2.59-6.65-1.28-11.65.19-7.78-2.13-8.49-5.82-1.62-9.07,6.89-1.82,21.4-1.55,27.34A28.3,28.3,0,0,1,328.08,331a44.34,44.34,0,0,0-6.69,25.83c.47,12.39,7.52,17.15,13.05,20.63"/></clipPath></defs><title>sync</title><g id="Background_Simple" data-name="Background Simple"><path class="cls-2" d="M408,131s-24-54-77-62-90,31-129,51c-20.42,10.47-43.75,6.41-65.43,11.48C67.24,147.69,41.12,249.24,70,307c25,50,69,76,136,82s114,13,174-36S436,202,408,131Z" transform="translate(-58.4 -67.93)"/><path class="cls-3" d="M408,131s-24-54-77-62-90,31-129,51c-20.42,10.47-43.75,6.41-65.43,11.48C67.24,147.69,41.12,249.24,70,307c25,50,69,76,136,82s114,13,174-36S436,202,408,131Z" transform="translate(-58.4 -67.93)"/></g><g id="Plants"><path class="cls-2" d="M404.76,209.33c.05,0,1.1-4,1.14-4.3.43-3.07-.55-9.24-3.67-10.75a4.1,4.1,0,0,0-5.58,2.48c-.83,2.29.23,5.11,1.48,7.05C399.61,206.09,404.75,209.33,404.76,209.33Z" transform="translate(-58.4 -67.93)"/><path class="cls-2" d="M343.25,208c2.48,1.08,8.56.95,8.57.95s-1.31-4-1.42-4.23c-1.34-2.79-5.56-7.4-9-6.93a4.1,4.1,0,0,0-3.29,5.14C338.69,205.3,341.13,207.07,343.25,208Z" transform="translate(-58.4 -67.93)"/><path class="cls-2" d="M422.91,187.3c-3.45-.37-7.54,4.35-8.8,7.17-.11.25-1.37,4.26-1.31,4.26h.08c-.65.74-1.34,1.54-2.08,2.43-1.35,1.66-2.86,3.54-4.36,5.7a74.79,74.79,0,0,0-4.52,7.2,52.6,52.6,0,0,0-3.85,8.69s0,.07,0,.11c0-1,0-3.86,0-4.08-.4-3.06-3-8.76-6.38-9.39a4.11,4.11,0,0,0-4.73,3.86c-.2,2.43,1.57,4.87,3.29,6.41,1.95,1.74,7.34,3.42,7.77,3.55a73.61,73.61,0,0,0-2.28,9.42c-.33,1.85-.6,3.73-.85,5.61,0-.88,0-1.66-.05-1.77-.4-3.07-3-8.76-6.38-9.39a4.1,4.1,0,0,0-4.73,3.85c-.2,2.44,1.57,4.88,3.3,6.42s6.32,3.09,7.53,3.48c-.09.72-.19,1.44-.27,2.17-.42,3.47-.82,6.95-1.31,10.34-.18,1.19-.39,2.37-.61,3.54,0-.78,0-1.44,0-1.54-.4-3.07-3-8.76-6.37-9.39a4.1,4.1,0,0,0-4.73,3.86c-.2,2.43,1.57,4.87,3.29,6.41s5.87,2.94,7.32,3.41c-.26,1.19-.51,2.39-.81,3.53-.22.78-.38,1.55-.64,2.31s-.5,1.53-.74,2.28c-.52,1.43-1.05,2.91-1.59,4.3-.37,1-.74,1.87-1.11,2.79.18-1.19.5-3.52.51-3.72a16,16,0,0,0-2.14-7.74,5.49,5.49,0,0,0-.05-.91,4.11,4.11,0,0,0-5-3.48c-3.35.89-5.47,6.77-5.63,9.86,0,.18.11,2.17.21,3.42-.17-.72-.33-1.43-.51-2.18-.35-1.48-.74-2.95-1.16-4.53-.23-.75-.46-1.52-.69-2.29s-.55-1.55-.81-2.34c-.67-1.81-1.42-3.61-2.23-5.41,1.3-.31,5.88-1.48,7.72-2.9s3.78-3.7,3.76-6.15a4.09,4.09,0,0,0-4.42-4.2c-3.45.38-6.44,5.86-7.06,8.89,0,.19-.25,2.42-.33,3.64-.5-1.08-1-2.15-1.52-3.23-1.54-3.1-3.19-6.19-4.83-9.28l-1.48-2.84c.46-.11,5.94-1.38,8-3,1.84-1.41,3.78-3.71,3.76-6.16a4.09,4.09,0,0,0-4.42-4.19c-3.45.37-6.44,5.86-7.06,8.89,0,.23-.34,3.43-.37,4.24-1.09-2.08-2.15-4.18-3.11-6.28a72.27,72.27,0,0,1-3.38-8.73c.21,0,5.94-1.35,8-3,1.84-1.41,3.78-3.71,3.76-6.16a4.11,4.11,0,0,0-4.43-4.2c-3.44.38-6.43,5.87-7.06,8.9,0,.19-.26,2.64-.34,3.8l-.19,0a53,53,0,0,1-1.77-9.25c-.19-1.73-.28-3.38-.33-5,1.09-.14,6.07-.8,8.14-2s4.16-3.27,4.41-5.7A4.1,4.1,0,0,0,360.9,197c-3.46,0-7,5.12-8,8.06-.05.16-.4,1.85-.64,3.08,0-.73,0-1.48,0-2.18,0-2.62.17-5,.33-7.14.11-1.21.22-2.3.34-3.31,1-.69,5-3.52,6.25-5.54s2.18-4.83,1.28-7.1a4.09,4.09,0,0,0-5.64-2.32c-3.08,1.59-3.89,7.79-3.38,10.84.05.26,1.21,4.31,1.26,4.27l.06,0c-.13,1-.27,2-.39,3.18-.21,2.12-.43,4.52-.49,7.15a72.78,72.78,0,0,0,.2,8.5,53.51,53.51,0,0,0,1.58,9.37l0,.11c-.54-.85-2.15-3.2-2.29-3.36-2-2.34-7.31-5.67-10.5-4.32a4.11,4.11,0,0,0-1.82,5.83c1.18,2.14,4,3.2,6.29,3.53,2.57.38,8-1.2,8.43-1.32a74.88,74.88,0,0,0,3.29,9.1c.75,1.73,1.56,3.45,2.39,5.16-.5-.72-.95-1.37-1-1.45-2-2.34-7.31-5.67-10.5-4.32a4.11,4.11,0,0,0-1.82,5.83c1.18,2.14,4,3.2,6.29,3.53s7-.91,8.2-1.25c.33.65.64,1.31,1,2,1.57,3.13,3.15,6.24,4.61,9.35.52,1.09,1,2.19,1.45,3.28-.44-.64-.81-1.18-.88-1.26-2-2.34-7.31-5.67-10.5-4.31a4.1,4.1,0,0,0-1.82,5.82c1.18,2.14,4,3.2,6.29,3.54s6.52-.79,8-1.2c.45,1.14.9,2.27,1.28,3.39.25.78.53,1.5.74,2.29s.43,1.54.64,2.3c.36,1.48.73,3,1,4.46.22,1,.42,2,.62,2.95-.5-1.1-1.52-3.22-1.63-3.39-1.65-2.61-6.37-6.71-9.73-5.85A4.09,4.09,0,0,0,359,269.7c.84,2.3,3.46,3.77,5.67,4.45,2.44.74,7.82.06,8.5,0,.32,1.61.62,3.18.88,4.66.9,5.15,1.46,9.47,1.81,12.49.06.54.12,1,.16,1.47H365.6l3,59.3h19.3l3-59.3h-9.71l.21-.44c1.33-2.78,3.18-6.77,5.18-11.65.63-1.55,1.28-3.21,1.93-4.92.65.14,6,1.22,8.47.66,2.25-.51,5-1.78,6-4a4.1,4.1,0,0,0-2.26-5.67c-3.29-1.1-8.3,2.63-10.14,5.12-.1.15-1.1,1.87-1.71,3,.26-.7.52-1.38.78-2.1.52-1.43,1-2.87,1.53-4.42.22-.76.45-1.52.68-2.29s.41-1.6.62-2.4c.45-1.88.81-3.8,1.13-5.75,1.25.46,5.72,2,8,1.85s5.19-1,6.53-3.06a4.09,4.09,0,0,0-1.38-5.94c-3.08-1.59-8.6,1.34-10.79,3.52-.14.14-1.54,1.88-2.28,2.85.18-1.17.37-2.34.52-3.53.42-3.43.75-6.92,1.09-10.4.1-1.07.22-2.13.33-3.19.44.16,5.71,2.13,8.31,1.95,2.3-.17,5.19-1,6.53-3.06a4.1,4.1,0,0,0-1.38-6c-3.08-1.58-8.6,1.34-10.79,3.53-.17.16-2.17,2.67-2.65,3.33.24-2.34.51-4.67.87-7a70.92,70.92,0,0,1,2-9.15c.2.08,5.7,2.15,8.35,2,2.31-.16,5.2-1,6.54-3.06a4.1,4.1,0,0,0-1.38-5.94c-3.08-1.59-8.6,1.34-10.79,3.52-.15.15-1.68,2.06-2.39,3l-.17-.09a53.29,53.29,0,0,1,3.63-8.69c.79-1.54,1.63-3,2.48-4.34,1,.49,5.5,2.69,7.91,2.78s5.28-.43,6.83-2.32a4.1,4.1,0,0,0-.72-6.06c-2.88-1.92-8.69.39-11.11,2.32-.13.1-1.35,1.31-2.23,2.21.39-.61.79-1.25,1.17-1.83,1.45-2.19,2.92-4.1,4.22-5.78.76-1,1.45-1.79,2.12-2.57,1.21,0,6.11-.17,8.26-1.18s4.48-2.81,5-5.21A4.1,4.1,0,0,0,422.91,187.3Zm-38.14,92.55c-2.08,4.79-4,8.7-5.38,11.41-.27.55-.52,1-.75,1.48h-.24c-.06-.53-.14-1.11-.23-1.76-.42-3.05-1.08-7.4-2.11-12.57-.32-1.64-.69-3.38-1.1-5.16A43.07,43.07,0,0,0,379.7,271c1.77,1.92,6.32,4.17,6.91,4.45C386,277,385.37,278.47,384.77,279.85Z" transform="translate(-58.4 -67.93)"/></g><g id="Bookshelf"><path class="cls-4" d="M190.2,50.28h58.32a0,0,0,0,1,0,0V67a0,0,0,0,1,0,0H190.2a5.13,5.13,0,0,1-5.13-5.13V55.41A5.13,5.13,0,0,1,190.2,50.28Z"/><path class="cls-4" d="M306.92,97.35h-55.1a8.34,8.34,0,0,0-8.34,8.35h0a8.33,8.33,0,0,0,8.34,8.34h55.1Z" transform="translate(-58.4 -67.93)"/><rect class="cls-4" x="253.52" y="10.21" width="20.04" height="55.93"/><rect class="cls-4" x="278.57" y="10.21" width="20.04" height="55.93"/><rect class="cls-4" x="303.61" y="10.21" width="20.03" height="55.93"/><polygon class="cls-2" points="335.74 67.64 178.42 67.64 178.42 76.96 191.19 76.96 191.19 100.07 198.78 100.07 198.78 76.96 311.67 76.96 311.67 100.07 319.27 100.07 319.27 76.96 335.74 76.96 335.74 67.64"/><polygon class="cls-5" points="335.74 67.64 178.42 67.64 178.42 76.96 191.19 76.96 191.19 100.07 198.78 100.07 198.78 76.96 311.67 76.96 311.67 100.07 319.27 100.07 319.27 76.96 335.74 76.96 335.74 67.64"/></g><g id="Device_1" data-name="Device 1"><line class="cls-6" x1="28.08" y1="284.1" x2="361.13" y2="284.1"/><g id="_Group_" data-name="&lt;Group&gt;"><path id="_Clipping_Path_4" data-name="&lt;Clipping Path&gt;" class="cls-4" d="M237.89,329.88V312H184.15v17.86a25.56,25.56,0,0,1-5.7,16.06l-2.36,2.91H246l-2.36-2.91A25.57,25.57,0,0,1,237.89,329.88Z" transform="translate(-58.4 -67.93)"/><g class="cls-7"><path class="cls-8" d="M180.86,323.56h60.33a25.45,25.45,0,0,1-3.3-12.51V293.19H184.15v17.86A25.44,25.44,0,0,1,180.86,323.56Z" transform="translate(-58.4 -67.93)"/></g><path id="_Clipping_Path_5" data-name="&lt;Clipping Path&gt;" class="cls-6" d="M237.89,329.88V312H184.15v17.86a25.56,25.56,0,0,1-5.7,16.06l-2.36,2.91H246l-2.36-2.91A25.57,25.57,0,0,1,237.89,329.88Z" transform="translate(-58.4 -67.93)"/><rect id="_Rectangle_" data-name="&lt;Rectangle&gt;" class="cls-9" x="44.63" y="91.13" width="215.98" height="158.59" rx="8.48" ry="8.48"/><path id="_Rectangle_2" data-name="&lt;Rectangle&gt;" class="cls-1" d="M44.63,225.06h216a0,0,0,0,1,0,0v16.17a8.48,8.48,0,0,1-8.48,8.48h-199a8.48,8.48,0,0,1-8.48-8.48V225.06A0,0,0,0,1,44.63,225.06Z"/><rect id="_Rectangle_3" data-name="&lt;Rectangle&gt;" class="cls-8" x="55.49" y="100.99" width="194.26" height="112.04"/><rect id="_Rectangle_4" data-name="&lt;Rectangle&gt;" class="cls-10" x="55.49" y="100.99" width="194.26" height="112.04"/><rect id="_Rectangle_5" data-name="&lt;Rectangle&gt;" class="cls-9" x="117.69" y="280.91" width="69.88" height="3.19"/></g></g><g id="Device_2" data-name="Device 2"><path id="_Path_" data-name="&lt;Path&gt;" class="cls-11" d="M257.71,292.29s-5.1-1.74-7.81,2.19,2.58,9.36,6.09,10.86Z" transform="translate(-58.4 -67.93)"/><path id="_Path_2" data-name="&lt;Path&gt;" class="cls-11" d="M252,344.15s-4.38-.52-5.87,3.1,3.67,7,6.75,7.64Z" transform="translate(-58.4 -67.93)"/><path id="_Clipping_Path_6" data-name="&lt;Clipping Path&gt;" class="cls-4" d="M361.45,351.9c-9.61-10.54-9.49-15.73-24.4-26.76-7.55-5.59-16.66-9.4-25.18-13.22-10.67-4.78-21.52-9.21-32.47-13.31-3.75-1.41-7.51-2.78-11.31-4-3.43-1.13-7-2.6-10.63-2.44a5.84,5.84,0,0,0-5.49,4.52c-.88,3.79,2.35,8.34,5.88,9.59l2,.71,19.37,6.84-20.07-4.42s-6.34.3-8.56,2.92-.4,6,2.74,7.72,4.37,1.41,4.93.69a.81.81,0,0,0,.1-.24l0,.28,17.37,8.38L258,325.84s-6.77-.72-9,1.9-.4,6,2.74,7.72c2.69,1.5,5.13,1.71,6.12,1.29L274,344.9l-16.65-1.32-.43.05c-.12-.74-4.76.33-5.15.43a4.79,4.79,0,0,0-3.63,4.57c0,3.18,3.33,6.27,6.37,6.66l1.72.23c0,.16,8.57,3.4,8.57,3.4l13.14,5.26s15.78,21,21,28a7.32,7.32,0,0,1,1,1.67c1.67,1.08,2.68,1.72,2.75,1.8,1.76,2,15.1,3.25,25.69,3.19s21.57,2.9,25.25,4.86,46,29.5,46,29.5L412,381.53S371.05,362.44,361.45,351.9Z" transform="translate(-58.4 -67.93)"/><g class="cls-12"><path class="cls-2" d="M321.66,394.65c-2.41-2.54-3-11.3.44-15.1s6.78-1.74,9.74-1.27-3.66-4.27-5.82-9.81,15.05-30.77,14.43-37.81a10.59,10.59,0,0,0-1.35-4c-.65-.51-1.33-1-2.05-1.56-14.91-11-22.56-13.11-23.36-11.33s-12.81,79.86-11,81.88,15.1,3.25,25.69,3.19q1.74,0,3.48.09C327.57,397.64,322.9,396,321.66,394.65Z" transform="translate(-58.4 -67.93)"/><path class="cls-13" d="M321.66,394.65c-2.41-2.54-3-11.3.44-15.1s6.78-1.74,9.74-1.27-3.66-4.27-5.82-9.81,15.05-30.77,14.43-37.81a10.59,10.59,0,0,0-1.35-4c-.65-.51-1.33-1-2.05-1.56-14.91-11-22.56-13.11-23.36-11.33s-12.81,79.86-11,81.88,15.1,3.25,25.69,3.19q1.74,0,3.48.09C327.57,397.64,322.9,396,321.66,394.65Z" transform="translate(-58.4 -67.93)"/></g><path id="_Clipping_Path_7" data-name="&lt;Clipping Path&gt;" class="cls-6" d="M361.45,351.9c-9.61-10.54-9.49-15.73-24.4-26.76-7.55-5.59-16.66-9.4-25.18-13.22-10.67-4.78-21.52-9.21-32.47-13.31-3.75-1.41-7.51-2.78-11.31-4-3.43-1.13-7-2.6-10.63-2.44a5.84,5.84,0,0,0-5.49,4.52c-.88,3.79,2.35,8.34,5.88,9.59l2,.71,19.37,6.84-20.07-4.42s-6.34.3-8.56,2.92-.4,6,2.74,7.72,4.37,1.41,4.93.69a.81.81,0,0,0,.1-.24l0,.28,17.37,8.38L258,325.84s-6.77-.72-9,1.9-.4,6,2.74,7.72c2.69,1.5,5.13,1.71,6.12,1.29L274,344.9l-16.65-1.32-.43.05c-.12-.74-4.76.33-5.15.43a4.79,4.79,0,0,0-3.63,4.57c0,3.18,3.33,6.27,6.37,6.66l1.72.23c0,.16,8.57,3.4,8.57,3.4l13.14,5.26s15.78,21,21,28a7.32,7.32,0,0,1,1,1.67c1.67,1.08,2.68,1.72,2.75,1.8,1.76,2,15.1,3.25,25.69,3.19s21.57,2.9,25.25,4.86,46,29.5,46,29.5L412,381.53S371.05,362.44,361.45,351.9Z" transform="translate(-58.4 -67.93)"/><path id="_Path_3" data-name="&lt;Path&gt;" class="cls-1" d="M253.87,329.49s1.51,5.82.64,10.18-6.08,4.88-7.8,3.8-1-10.68.72-13.65,4.14-2.85,4.14-2.85" transform="translate(-58.4 -67.93)"/><path id="_Path_4" data-name="&lt;Path&gt;" class="cls-11" d="M247,333.71s-1.58,5.42-1.95,7.79.23,1.93,1.92-.77S249.77,331.54,247,333.71Z" transform="translate(-58.4 -67.93)"/><path id="_Path_5" data-name="&lt;Path&gt;" class="cls-1" d="M255.44,314.05s1.51,5.81.64,10.17-6.08,4.89-7.8,3.81-1-10.69.72-13.65,4.14-2.86,4.14-2.86" transform="translate(-58.4 -67.93)"/><path id="_Path_6" data-name="&lt;Path&gt;" class="cls-11" d="M248.57,318.27s-1.58,5.41-1.95,7.78.23,1.93,1.92-.77S251.34,316.1,248.57,318.27Z" transform="translate(-58.4 -67.93)"/><path id="_Path_7" data-name="&lt;Path&gt;" class="cls-6" d="M343.64,399.74a43.36,43.36,0,0,1,.33-11.92" transform="translate(-58.4 -67.93)"/><path id="_Path_8" data-name="&lt;Path&gt;" class="cls-6" d="M347.66,385.28s-1.32,7.26-.7,10" transform="translate(-58.4 -67.93)"/><path class="cls-1" d="M388.19,363.68s-12.72-3-21.21,15.75-2.42,37-2.42,37l17.57,7.88s-3-20,7.28-36.36,12.12-17.58,12.12-17.58Z" transform="translate(-58.4 -67.93)"/><path class="cls-1" d="M408.8,443.07S384,432.16,379.71,427.31s-3.64-9.69,1.21-31.51,20.61-28.49,20.61-28.49,2.42-1.21,9.09.61,24.85,12.73,24.85,12.73" transform="translate(-58.4 -67.93)"/><path id="_Path_9" data-name="&lt;Path&gt;" class="cls-6" d="M326.54,375.18s6.19,5.83,14.48,7.15" transform="translate(-58.4 -67.93)"/><path id="_Clipping_Path_8" data-name="&lt;Clipping Path&gt;" class="cls-4" d="M363.88,354.71s-3-2.9-6-10.14-10.59-23-11.16-30.39-.36-9.78-.73-14-2.59-6.65-1.28-11.65.19-7.78-2.13-8.49-5.82-1.62-9.07,6.89-1.82,21.4-1.55,27.34A28.3,28.3,0,0,1,328.08,331a44.34,44.34,0,0,0-6.69,25.83c.47,12.39,7.52,17.15,13.05,20.63" transform="translate(-58.4 -67.93)"/><g class="cls-14"><path class="cls-2" d="M335.45,319.23c.75-9.88-1-19.73-.62-27a26,26,0,0,1,4.39-12.47c-1.8.43-3.81,2.17-5.73,7.2-3.26,8.51-1.82,21.4-1.55,27.34A28.3,28.3,0,0,1,328.08,331a44.34,44.34,0,0,0-6.69,25.83,25.16,25.16,0,0,0,1.92,9.1C320.46,348.16,334.73,328.86,335.45,319.23Z" transform="translate(-58.4 -67.93)"/><path class="cls-13" d="M335.45,319.23c.75-9.88-1-19.73-.62-27a26,26,0,0,1,4.39-12.47c-1.8.43-3.81,2.17-5.73,7.2-3.26,8.51-1.82,21.4-1.55,27.34A28.3,28.3,0,0,1,328.08,331a44.34,44.34,0,0,0-6.69,25.83,25.16,25.16,0,0,0,1.92,9.1C320.46,348.16,334.73,328.86,335.45,319.23Z" transform="translate(-58.4 -67.93)"/></g><path id="_Clipping_Path_9" data-name="&lt;Clipping Path&gt;" class="cls-6" d="M363.88,354.71s-3-2.9-6-10.14-10.59-23-11.16-30.39-.36-9.78-.73-14-2.59-6.65-1.28-11.65.19-7.78-2.13-8.49-5.82-1.62-9.07,6.89-1.82,21.4-1.55,27.34A28.3,28.3,0,0,1,328.08,331a44.34,44.34,0,0,0-6.69,25.83c.47,12.39,7.52,17.15,13.05,20.63" transform="translate(-58.4 -67.93)"/><path class="cls-6" d="M345,300.06s-1-1.73-4.65-.42" transform="translate(-58.4 -67.93)"/><path class="cls-6" d="M340.35,301.38s2.7-1.15,4.48.55" transform="translate(-58.4 -67.93)"/><path class="cls-6" d="M345.35,303.58a24.84,24.84,0,0,1-3.25-.35" transform="translate(-58.4 -67.93)"/><path id="_Path_10" data-name="&lt;Path&gt;" class="cls-11" d="M343.92,291.93l-1-.36a4.71,4.71,0,0,1-3.07-5.3,22.89,22.89,0,0,1,.78-3c1.32-3.95,1.73-5.45,3.37-4.84s2.57,1.27,2.22,3.47S343.92,291.93,343.92,291.93Z" transform="translate(-58.4 -67.93)"/><rect id="_Rectangle_6" data-name="&lt;Rectangle&gt;" class="cls-1" x="255.8" y="271.84" width="71.68" height="129.19" rx="6.75" ry="6.75" transform="translate(-37.98 -84.61) rotate(3.39)"/><path class="cls-9" d="M300,280l-8.91-.53a.91.91,0,0,1-.86-1h0a.92.92,0,0,1,1-.86l8.91.53a.91.91,0,0,1,.86,1h0A.92.92,0,0,1,300,280Z" transform="translate(-58.4 -67.93)"/><path id="_Path_11" data-name="&lt;Path&gt;" class="cls-9" d="M319.75,391.24l-62.51-3.7,6.5-109.63,14.82.88,1.58,1.48a3.22,3.22,0,0,0,2,.87l26.14,1.55a3.2,3.2,0,0,0,2.19-.68l1.59-1.23,14.16.84Z" transform="translate(-58.4 -67.93)"/><path class="cls-9" d="M290.29,392.89a1.42,1.42,0,1,0-1.5,1.33A1.42,1.42,0,0,0,290.29,392.89Z" transform="translate(-58.4 -67.93)"/><path class="cls-15" d="M237.71,225.58a10,10,0,0,1-.45-2.84c-.19-.9-.36-2-.67-3.27l-.57-2c-.22-.7-.54-1.41-.83-2.17a29.47,29.47,0,0,0-6.28-9.4,29.17,29.17,0,0,0-11.78-7.07,29.52,29.52,0,0,0-13.72-.73A28.76,28.76,0,0,0,193,202.39a31.35,31.35,0,0,0-5.85,5c-.63.67-1.09,1.22-1.41,1.59s-.52.54-.56.51.06-.27.3-.7a15.76,15.76,0,0,1,1.2-1.79,26.59,26.59,0,0,1,5.69-5.54,28.34,28.34,0,0,1,10.81-4.78,29,29,0,0,1,26.81,8.2,29.14,29.14,0,0,1,6.28,10c.26.81.56,1.55.75,2.29s.32,1.44.47,2.09c.25,1.31.32,2.47.42,3.4A10.47,10.47,0,0,1,237.71,225.58Z" transform="translate(-58.4 -67.93)"/><path class="cls-15" d="M224,215.38c.26-.34,6.52,4,14,9.65l.42.32-1.21.36c3-8.62,5.76-15.4,6.16-15.26s-1.69,7.15-4.69,15.78l-.35,1-.86-.65-.41-.31C229.56,220.6,223.73,215.73,224,215.38Z" transform="translate(-58.4 -67.93)"/><path class="cls-15" d="M183.56,220.81a10.64,10.64,0,0,1,.1,2.8c.05.89.12,2,.23,3.23a31.83,31.83,0,0,0,.84,4.18,29,29,0,0,0,4.79,9.87,28.11,28.11,0,0,0,10.26,8.52l.8.41.82.32,1.64.65c.55.18,1.11.32,1.66.48a12.09,12.09,0,0,0,1.65.42,28.66,28.66,0,0,0,17.2-1.62,31.23,31.23,0,0,0,6.51-3.71c.72-.53,1.26-1,1.64-1.25s.59-.42.63-.38-.11.25-.42.61a14,14,0,0,1-1.47,1.49,26.16,26.16,0,0,1-6.44,4.25,28.13,28.13,0,0,1-11.15,2.69,29.13,29.13,0,0,1-6.81-.58,13.39,13.39,0,0,1-1.74-.43c-.59-.16-1.18-.31-1.76-.5l-1.73-.67-.87-.35-.84-.42-1.68-.86-1.56-1a28.8,28.8,0,0,1-2.9-2.17c-.46-.37-.86-.81-1.29-1.21s-.85-.78-1.21-1.23l-1.1-1.29-.53-.64-.47-.67A28.58,28.58,0,0,1,183,226.91c0-1.29,0-2.41,0-3.32A9.8,9.8,0,0,1,183.56,220.81Z" transform="translate(-58.4 -67.93)"/><path class="cls-15" d="M195.93,232.61c-.31.31-6-4.75-12.7-11.29l-.37-.36,1.25-.21c-4.06,8.18-7.6,14.58-8,14.39s2.54-6.89,6.58-15.09l.47-1,.77.75.38.37C191,226.75,196.23,232.3,195.93,232.61Z" transform="translate(-58.4 -67.93)"/><path class="cls-15" d="M313.26,343.64a9.42,9.42,0,0,1-.06-2.39c-.06-.76-.07-1.69-.19-2.75-.08-.54-.16-1.1-.25-1.7s-.27-1.21-.42-1.87a24.8,24.8,0,0,0-3.94-8.34,22.71,22.71,0,0,0-8.46-6.95,21.5,21.5,0,0,0-19.21.61,25,25,0,0,0-5.06,3.57c-.56.5-1,.9-1.26,1.18s-.46.39-.49.37.08-.22.31-.55a12.67,12.67,0,0,1,1.11-1.36,21.84,21.84,0,0,1,13.9-6.92,22.3,22.3,0,0,1,11.21,1.91,23.15,23.15,0,0,1,8.85,7.41,24.4,24.4,0,0,1,3.89,8.84c.12.69.28,1.33.34,2s.11,1.21.16,1.76c.06,1.11,0,2.06,0,2.84A8.71,8.71,0,0,1,313.26,343.64Z" transform="translate(-58.4 -67.93)"/><path class="cls-15" d="M303.6,333.92c.24-.25,4.68,3.9,9.92,9.29l.29.3-1,.18c3.23-6.81,6.05-12.14,6.34-12s-2,5.73-5.24,12.55l-.38.8-.6-.62-.3-.3C307.42,338.76,303.37,334.18,303.6,333.92Z" transform="translate(-58.4 -67.93)"/><path class="cls-15" d="M271.55,334.53a8.5,8.5,0,0,1-.2,2.31c-.05.74-.11,1.64-.14,2.68a27,27,0,0,0,.22,3.53,25,25,0,0,0,2.73,8.59,22.55,22.55,0,0,0,7.14,8l.58.41.61.35,1.21.69c.41.2.83.37,1.25.55a8.24,8.24,0,0,0,1.24.5,21.23,21.23,0,0,0,5,1.15,21.46,21.46,0,0,0,8.6-.83A24.39,24.39,0,0,0,305.2,360c.61-.36,1.08-.66,1.4-.87s.51-.29.53-.25-.1.19-.38.46a12.26,12.26,0,0,1-1.3,1.09,20.73,20.73,0,0,1-5.45,2.88,21,21,0,0,1-9,1.15,22.17,22.17,0,0,1-5.25-1.13,11.15,11.15,0,0,1-1.31-.52c-.44-.19-.88-.37-1.32-.58l-1.28-.72-.64-.37-.62-.43-1.21-.87c-.38-.31-.75-.65-1.12-1a22.13,22.13,0,0,1-2-2.07c-.32-.34-.59-.74-.88-1.11s-.59-.73-.82-1.13l-.73-1.17-.35-.58-.3-.6a24.52,24.52,0,0,1-2.6-9.07,25.29,25.29,0,0,1-.05-3.66c.1-1.07.23-2,.36-2.73A8.84,8.84,0,0,1,271.55,334.53Z" transform="translate(-58.4 -67.93)"/><path class="cls-15" d="M280,345.43c-.27.22-4.19-4.48-8.75-10.51l-.25-.34,1-.06c-4,6.36-7.4,11.29-7.68,11.1s2.68-5.43,6.66-11.8l.46-.75.53.69.25.34C276.78,340.13,280.26,345.2,280,345.43Z" transform="translate(-58.4 -67.93)"/></g></svg>